<svg xmlns="http://www.w3.org/2000/svg" xmlns:xlink="http://www.w3.org/1999/xlink" viewBox="0 0 384 184">
  <defs>
    <clipPath id="clip-path">
      <rect x="17.36" y="15.48" width="368.55" height="155.93" style="fill: none"/>
    </clipPath>
  </defs>
  <g id="Layer_2" data-name="Layer 2">
    <g id="Layer_1-2" data-name="Layer 1">
      <rect width="384" height="184" style="fill: #fff"/>
      <g style="clip-path: url(#clip-path)">
        <path d="M63.6,146.81a46.24,46.24,0,1,0-46.24-46.24A46.25,46.25,0,0,0,63.6,146.81" style="fill: #1d1d1b"/>
        <path d="M169.44,147.31c23.15,0,41.92-18.07,41.92-40.35s-18.77-40.34-41.92-40.34S127.52,84.68,127.52,107s18.76,40.35,41.92,40.35" style="fill: #a1c639"/>
        <path d="M257.12,147.31a35.91,35.91,0,1,0-35.9-35.91,35.9,35.9,0,0,0,35.9,35.91" style="fill: #5ec2c2"/>
      </g>
      <text transform="translate(139.42 35.68)" style="font-size: 11.199999809265137px;fill: #1d1d1b;font-family: AvenirNext-Medium, Avenir Next;font-weight: 500">3<tspan x="6.66" y="0" style="letter-spacing: -0.01700265095919628em">r</tspan><tspan x="10.53" y="0">d O</tspan><tspan x="29.95" y="0" style="letter-spacing: -0.005057198746837867em">P</tspan><tspan x="36.56" y="0">TION</tspan></text>
      <line x1="27.76" y1="46.68" x2="313.36" y2="46.68" style="fill: none;stroke: #3a4149;stroke-width: 2.4000000953674316px"/>
      <g style="clip-path: url(#clip-path)">
        <path d="M338.12,147.31c13.68,0,24.76-12.43,24.76-27.75S351.8,91.82,338.12,91.82s-24.76,12.42-24.76,27.74,11.08,27.75,24.76,27.75" style="fill: #d1514b"/>
      </g>
      <text transform="translate(32.64 164.72)" style="font-size: 14px;fill: #1d1d1b;font-family: OpenSans-Semibold, Open Sans;font-weight: 600">#000000</text>
      <text transform="translate(132.16 164.72)" style="font-size: 14px;fill: #1d1d1b;font-family: OpenSans-Semibold, Open Sans;font-weight: 600">#a1c639</text>
      <text transform="translate(225.7 164.72)" style="font-size: 14px;fill: #1d1d1b;font-family: OpenSans-Semibold, Open Sans;font-weight: 600">#5ec2c2</text>
      <text transform="translate(308.8 164.72)" style="font-size: 14px;fill: #1d1d1b;font-family: OpenSans-Semibold, Open Sans;font-weight: 600">#d1514b</text>
    </g>
  </g>
</svg>
