<svg xmlns="http://www.w3.org/2000/svg" xmlns:xlink="http://www.w3.org/1999/xlink" viewBox="0 0 398 184">
  <defs>
    <clipPath id="clip-path">
      <rect x="1.9" y="3.28" width="396.18" height="172.13" style="fill: none"/>
    </clipPath>
  </defs>
  <g id="Layer_2" data-name="Layer 2">
    <g id="Layer_1-2" data-name="Layer 1">
      <rect width="398" height="184" style="fill: #fff"/>
      <g style="clip-path: url(#clip-path)">
        <line x1="13.4" y1="22.72" x2="13.4" y2="166.94" style="fill: none;stroke: #2b5da9;stroke-linecap: round;stroke-linejoin: round;stroke-width: 5px;stroke-dasharray: 0,9.946000099182129"/>
        <line x1="23.49" y1="171.91" x2="381.54" y2="171.91" style="fill: none;stroke: #2b5da9;stroke-linecap: round;stroke-linejoin: round;stroke-width: 5px;stroke-dasharray: 0,10.086000442504883"/>
      </g>
      <line x1="386.58" y1="161.96" x2="386.58" y2="17.75" style="fill: none;stroke: #2b5da9;stroke-linecap: round;stroke-linejoin: round;stroke-width: 5px;stroke-dasharray: 0,9.946000099182129"/>
      <line x1="376.49" y1="12.78" x2="18.44" y2="12.78" style="fill: none;stroke: #2b5da9;stroke-linecap: round;stroke-linejoin: round;stroke-width: 5px;stroke-dasharray: 0,10.086000442504883"/>
      <g style="clip-path: url(#clip-path)">
        <path d="M13.4,12.78h0m373.18,0h0m0,159.13h0m-373.18,0h0" style="fill: none;stroke: #2b5da9;stroke-linecap: round;stroke-linejoin: round;stroke-width: 5px"/>
        <path d="M72.38,142.23A46.24,46.24,0,1,0,26.14,96a46.24,46.24,0,0,0,46.24,46.24" style="fill: #1d1d1b"/>
        <circle cx="72.38" cy="95.99" r="46.24" style="fill: none;stroke: #59211a"/>
        <path d="M178.22,142.73c23.15,0,41.92-18.06,41.92-40.34s-18.77-40.34-41.92-40.34S136.3,80.11,136.3,102.39s18.76,40.34,41.92,40.34" style="fill: #2b5da9"/>
        <path d="M265.9,142.73a35.9,35.9,0,1,0-35.9-35.9,35.9,35.9,0,0,0,35.9,35.9" style="fill: #5ec2c2"/>
      </g>
      <text transform="translate(148.2 31.11)" style="font-size: 11.199999809265137px;fill: #1d1d1b;font-family: AvenirNext-Medium, Avenir Next;font-weight: 500">1st O<tspan x="27.63" y="0" style="letter-spacing: -0.005013602205916851em">P</tspan><tspan x="34.24" y="0">TION</tspan></text>
      <line x1="36.54" y1="42.1" x2="322.14" y2="42.1" style="fill: none;stroke: #3a4149;stroke-width: 2.4000000953674316px"/>
      <g style="clip-path: url(#clip-path)">
        <path d="M346.9,142.73c13.68,0,24.76-12.42,24.76-27.74S360.58,87.25,346.9,87.25,322.14,99.67,322.14,115s11.08,27.74,24.76,27.74" style="fill: #a0c639"/>
      </g>
      <text transform="translate(44.33 163.72)" style="font-size: 14px;fill: #1d1d1b;font-family: OpenSans-Semibold, Open Sans;font-weight: 600">#000000</text>
      <text transform="translate(316.6 163.72)" style="font-size: 14px;fill: #1d1d1b;font-family: OpenSans-Semibold, Open Sans;font-weight: 600">#a1c639</text>
      <text transform="translate(234.94 163.72)" style="font-size: 14px;fill: #1d1d1b;font-family: OpenSans-Semibold, Open Sans;font-weight: 600">#5ec2c2</text>
      <text transform="translate(144.37 163.72)" style="font-size: 14px;fill: #1d1d1b;font-family: OpenSans-Semibold, Open Sans;font-weight: 600">#2b5da9</text>
    </g>
  </g>
</svg>
