<svg xmlns="http://www.w3.org/2000/svg" xmlns:xlink="http://www.w3.org/1999/xlink" viewBox="0 0 440.64 403.42">
  <defs>
    <clipPath id="clip-path" transform="translate(-10.32 0)">
      <rect y="293.23" width="451" height="146" style="fill: none"/>
    </clipPath>
    <clipPath id="clip-path-2" transform="translate(-10.32 0)">
      <rect x="10.32" width="487.98" height="403.82" style="fill: none"/>
    </clipPath>
  </defs>
  <title>Asset 1</title>
  <g id="Layer_2" data-name="Layer 2">
    <g id="Layer_1-2" data-name="Layer 1">
      <g style="clip-path: url(#clip-path)">
        <rect y="315.86" width="440.64" height="87.56" style="fill: #3a4149"/>
        <g style="clip-path: url(#clip-path-2)">
          <path d="M284.59,1.85s-72.46,34.8-72.93,85.85,75.71,39,84.54-12.53c0,0-17.65,33.88-42.27,27.38s-9.29-63.11,30.66-100.7" transform="translate(-10.32 0)" style="fill: #8cc740"/>
          <path d="M284.59,1.85s-72.46,34.8-72.93,85.85,75.71,39,84.54-12.53c0,0-17.65,33.88-42.27,27.38S244.64,39.44,284.59,1.85Z" transform="translate(-10.32 0)" style="fill: none;stroke: #21b573;stroke-miterlimit: 10"/>
          <path d="M202.48,1.13H267.7s-74.86,29.47-73,119.73c0,0-16.07-82.78,7.81-119.73" transform="translate(-10.32 0)" style="fill: #8cc740"/>
          <path d="M202.48,1.13H267.7s-74.86,29.47-73,119.73C194.67,120.86,178.6,38.08,202.48,1.13Z" transform="translate(-10.32 0)" style="fill: none;stroke: #21b573;stroke-miterlimit: 10"/>
          <path d="M95.06,325.83s-44.35,20.44-44.64,50.43,46.34,22.89,51.74-7.36c0,0-10.8,19.9-25.87,16.08s-5.68-37.07,18.77-59.15" transform="translate(-10.32 0)" style="fill: #8cc740"/>
          <path d="M95.06,325.83s-44.35,20.44-44.64,50.43,46.34,22.89,51.74-7.36c0,0-10.8,19.9-25.87,16.08S70.61,347.91,95.06,325.83Z" transform="translate(-10.32 0)" style="fill: none;stroke: #21b573;stroke-miterlimit: 10"/>
          <path d="M44.53,324.88H83.87s-45.16,17.48-44.05,71c0,0-9.7-49.11,4.71-71" transform="translate(-10.32 0)" style="fill: #8cc740"/>
          <path d="M44.53,324.88H83.87s-45.16,17.48-44.05,71C39.82,395.9,30.12,346.79,44.53,324.88Z" transform="translate(-10.32 0)" style="fill: none;stroke: #21b573;stroke-miterlimit: 10"/>
        </g>
        <g style="clip-path: url(#clip-path-2)">
          <path d="M155.57,336.14a3.77,3.77,0,0,0,1.21-2.93,3.72,3.72,0,0,0-1.21-2.9,5.34,5.34,0,0,0-3.71-1.11H127.25a8.88,8.88,0,0,0-3.64.65,4.13,4.13,0,0,0-2.09,2.07,8.8,8.8,0,0,0-.67,3.68v39.65a6.88,6.88,0,0,0,1.46,4.79,5.29,5.29,0,0,0,7.53,0,6.84,6.84,0,0,0,1.46-4.8v-17h17.19a5.24,5.24,0,0,0,3.55-1,3.62,3.62,0,0,0,1.19-2.85,3.66,3.66,0,0,0-1.18-2.86,5.1,5.1,0,0,0-3.56-1.08H131.3V337.25h20.56A5.34,5.34,0,0,0,155.57,336.14Z" transform="translate(-10.32 0)" style="fill: none;stroke: #231f20;stroke-width: 2px"/>
          <path d="M171.13,336.88a4.41,4.41,0,0,0,1.4-3.46,4.25,4.25,0,0,0-1.44-3.48,5,5,0,0,0-3.3-1.2,4.93,4.93,0,0,0-3.4,1.32,4.79,4.79,0,0,0,0,6.84,5.07,5.07,0,0,0,3.43,1.23A4.88,4.88,0,0,0,171.13,336.88Zm0,7.15a4.59,4.59,0,0,0-3.48-1.44,4.45,4.45,0,0,0-3.43,1.44,6.24,6.24,0,0,0-1.31,4.29v27.46a6.39,6.39,0,0,0,1.31,4.32,4.35,4.35,0,0,0,3.43,1.52,4.55,4.55,0,0,0,3.48-1.48,6.16,6.16,0,0,0,1.37-4.36V348A5.58,5.58,0,0,0,171.16,344Z" transform="translate(-10.32 0)" style="fill: none;stroke: #231f20;stroke-width: 2px"/>
          <path d="M192.26,360.44a22.07,22.07,0,0,1,1-5.19,7.12,7.12,0,0,1,2.07-3.29,5.21,5.21,0,0,1,3.45-1.1,11.57,11.57,0,0,1,3.56.65,12.37,12.37,0,0,0,2.55.65,3.74,3.74,0,0,0,2.62-1.15,3.79,3.79,0,0,0,1.21-2.9c0-1.66-.94-3-2.84-4a12.38,12.38,0,0,0-5.87-1.52,7.31,7.31,0,0,0-4.84,1.52,16.59,16.59,0,0,0-3.53,4.46,8.32,8.32,0,0,0-1.16-4.46,3.9,3.9,0,0,0-3.45-1.52q-4.67,0-4.67,6.47v26.72a6.3,6.3,0,0,0,1.33,4.36,4.41,4.41,0,0,0,3.41,1.48,4.57,4.57,0,0,0,3.48-1.46,6.15,6.15,0,0,0,1.38-4.38v-8Q192,363.44,192.26,360.44Z" transform="translate(-10.32 0)" style="fill: none;stroke: #231f20;stroke-width: 2px"/>
          <path d="M241.63,364.37a12.11,12.11,0,0,0-4.29-3.57,31.86,31.86,0,0,0-7.29-2.6q-3.77-.92-5.91-1.54a10.84,10.84,0,0,1-3.41-1.6,3,3,0,0,1-1.26-2.48,3.23,3.23,0,0,1,1.72-2.76,7.83,7.83,0,0,1,4.32-1.11,8.11,8.11,0,0,1,4,.84,8.88,8.88,0,0,1,2.57,2.25,16.87,16.87,0,0,0,2.37,2.54,3.87,3.87,0,0,0,2.52.84,4.36,4.36,0,0,0,3.14-1.06,3.55,3.55,0,0,0,1.11-2.7,5.68,5.68,0,0,0-1-3.1,10.34,10.34,0,0,0-3-2.88,16.57,16.57,0,0,0-5-2.07,26.4,26.4,0,0,0-6.7-.78,19.45,19.45,0,0,0-8.1,1.53,11.83,11.83,0,0,0-5.08,4.1,9.6,9.6,0,0,0-1.72,5.45,8.21,8.21,0,0,0,1.86,5.45,13.4,13.4,0,0,0,5,3.57,52.45,52.45,0,0,0,8.06,2.58,23.63,23.63,0,0,1,6.31,2.21,4,4,0,0,1,1.92,3.7,3.59,3.59,0,0,1-1.84,2.93,8.1,8.1,0,0,1-4.73,1.28,10.69,10.69,0,0,1-5.61-1.26A10.53,10.53,0,0,1,218,370.3a8.26,8.26,0,0,0-1.55-2.08,3.33,3.33,0,0,0-2.32-.74,3.87,3.87,0,0,0-2.85,1.13,3.68,3.68,0,0,0-1.12,2.71,8,8,0,0,0,1.75,4.76,12.94,12.94,0,0,0,5.45,3.95,22.34,22.34,0,0,0,8.86,1.59,25.69,25.69,0,0,0,9.2-1.46,11.13,11.13,0,0,0,7.64-11.09A7.87,7.87,0,0,0,241.63,364.37Z" transform="translate(-10.32 0)" style="fill: none;stroke: #231f20;stroke-width: 2px"/>
          <path d="M248.42,344.4a3.11,3.11,0,0,0-1.14,2.48,3.22,3.22,0,0,0,1.09,2.5,4.58,4.58,0,0,0,3.16,1h1.27v18.42a28.41,28.41,0,0,0,.72,7.14,7,7,0,0,0,3,4.18c1.54,1,3.82,1.52,6.82,1.52a17.07,17.07,0,0,0,7.27-1.23,3.86,3.86,0,0,0,2.54-3.55,3.11,3.11,0,0,0-.94-2.31,2.88,2.88,0,0,0-2.09-.93,11.8,11.8,0,0,0-2.25.3,11.86,11.86,0,0,1-2.28.3,2.85,2.85,0,0,1-2.23-.76,3.53,3.53,0,0,1-.85-2,29.59,29.59,0,0,1-.16-3.46V350.36h1.8a10,10,0,0,0,4.37-.77,2.78,2.78,0,0,0,1.53-2.71A3.21,3.21,0,0,0,269,344.4a4.52,4.52,0,0,0-3.11-1h-3.52V336.9a20,20,0,0,0-.26-3.75,4.06,4.06,0,0,0-1.25-2.23,4.74,4.74,0,0,0-3.3-1.37,4.59,4.59,0,0,0-2.36.62,4.42,4.42,0,0,0-1.62,1.59,5.45,5.45,0,0,0-.68,2.27c-.08.88-.12,2.09-.12,3.64v5.77h-1.06A5,5,0,0,0,248.42,344.4Z" transform="translate(-10.32 0)" style="fill: none;stroke: #231f20;stroke-width: 2px"/>
        </g>
        <text transform="translate(105.12 380.74)" style="font-size: 72px;fill: #fff;font-family: ArialRoundedMTBold, Arial Rounded MT Bold"><tspan style="letter-spacing: -0.01300048828125em">F</tspan><tspan x="42.55" y="0">i</tspan><tspan x="62.06" y="0" style="letter-spacing: -0.024000379774305556em">r</tspan><tspan x="91.87" y="0">st</tspan></text>
        <text transform="translate(261.43 380.74)" style="font-size: 72px;fill: #231f20;font-family: ArialRoundedMTBold, Arial Rounded MT Bold"> </text>
        <g style="clip-path: url(#clip-path-2)">
          <text transform="translate(279.42 380.74)" style="font-size: 72px;fill: #9c3;font-family: ArialNarrow, Arial Narrow">Gear</text>
          <path d="M95.06,216.75s-44.35,20.44-44.64,50.43,46.34,22.89,51.74-7.36c0,0-10.8,19.9-25.87,16.08s-5.68-37.07,18.77-59.15" transform="translate(-10.32 0)" style="fill: #8cc740"/>
          <path d="M95.06,216.75s-44.35,20.44-44.64,50.43,46.34,22.89,51.74-7.36c0,0-10.8,19.9-25.87,16.08S70.61,238.83,95.06,216.75Z" transform="translate(-10.32 0)" style="fill: none;stroke: #21b573;stroke-miterlimit: 10"/>
          <path d="M44.53,215.8H83.87s-45.16,17.48-44.05,71c0,0-9.7-49.11,4.71-71" transform="translate(-10.32 0)" style="fill: #8cc740"/>
          <path d="M44.53,215.8H83.87s-45.16,17.48-44.05,71C39.82,286.82,30.12,237.71,44.53,215.8Z" transform="translate(-10.32 0)" style="fill: none;stroke: #21b573;stroke-miterlimit: 10"/>
        </g>
      </g>
    </g>
  </g>
</svg>
