<svg xmlns="http://www.w3.org/2000/svg" xmlns:xlink="http://www.w3.org/1999/xlink" viewBox="0 0 110.16 102.24">
  <defs>
    <clipPath id="clip-path" transform="translate(-2.58 1.39)">
      <rect y="73.31" width="112.75" height="36.5" style="fill: none"/>
    </clipPath>
    <clipPath id="clip-path-2" transform="translate(-2.58 1.39)">
      <rect x="2.58" width="122" height="100.95" style="fill: none"/>
    </clipPath>
  </defs>
  <title>Asset 14</title>
  <g id="Layer_2" data-name="Layer 2">
    <g id="Layer_1-2" data-name="Layer 1">
      <g style="clip-path: url(#clip-path)">
        <rect y="80.35" width="110.16" height="21.89" style="fill: #3a4149"/>
        <g style="clip-path: url(#clip-path-2)">
          <path d="M71.15.46S53,9.16,52.92,21.92s18.92,9.75,21.13-3.13c0,0-4.41,8.47-10.57,6.85S61.16,9.86,71.15.46" transform="translate(-2.58 1.39)" style="fill: #8cc740"/>
          <path d="M71.15.46S53,9.16,52.92,21.92s18.92,9.75,21.13-3.13c0,0-4.41,8.47-10.57,6.85S61.16,9.86,71.15.46Z" transform="translate(-2.58 1.39)" style="fill: none;stroke: #21b573;stroke-miterlimit: 10"/>
          <path d="M50.62.28H66.93S48.21,7.65,48.67,30.22c0,0-4-20.7,1.95-29.94" transform="translate(-2.58 1.39)" style="fill: #8cc740"/>
          <path d="M50.62.28H66.93S48.21,7.65,48.67,30.22C48.67,30.22,44.65,9.52,50.62.28Z" transform="translate(-2.58 1.39)" style="fill: none;stroke: #21b573;stroke-miterlimit: 10"/>
          <path d="M23.76,81.46s-11.08,5.11-11.15,12.6,11.58,5.73,12.93-1.84c0,0-2.7,5-6.47,4S17.65,87,23.76,81.46" transform="translate(-2.58 1.39)" style="fill: #8cc740"/>
          <path d="M23.76,81.46s-11.08,5.11-11.15,12.6,11.58,5.73,12.93-1.84c0,0-2.7,5-6.47,4S17.65,87,23.76,81.46Z" transform="translate(-2.58 1.39)" style="fill: none;stroke: #21b573;stroke-miterlimit: 10"/>
          <path d="M11.13,81.22H21A18.58,18.58,0,0,0,10,99S7.53,86.7,11.13,81.22" transform="translate(-2.58 1.39)" style="fill: #8cc740"/>
          <path d="M11.13,81.22H21A18.58,18.58,0,0,0,10,99S7.53,86.7,11.13,81.22Z" transform="translate(-2.58 1.39)" style="fill: none;stroke: #21b573;stroke-miterlimit: 10"/>
        </g>
        <g style="clip-path: url(#clip-path-2)">
          <path d="M38.89,84a1,1,0,0,0,.31-.74.93.93,0,0,0-.31-.72A1.3,1.3,0,0,0,38,82.3H31.81a2.18,2.18,0,0,0-.91.16,1.05,1.05,0,0,0-.52.52,2.19,2.19,0,0,0-.17.92v9.91a1.68,1.68,0,0,0,.37,1.2,1.33,1.33,0,0,0,1.88,0,1.72,1.72,0,0,0,.36-1.2V89.57h4.3A1.3,1.3,0,0,0,38,89.3a.89.89,0,0,0,.3-.71.9.9,0,0,0-.3-.71,1.26,1.26,0,0,0-.89-.27h-4.3v-3.3H38A1.35,1.35,0,0,0,38.89,84Z" transform="translate(-2.58 1.39)" style="fill: none;stroke: #231f20;stroke-width: 2px"/>
          <path d="M42.78,84.22a1.09,1.09,0,0,0,.35-.87,1.07,1.07,0,0,0-.36-.87,1.28,1.28,0,0,0-.82-.29,1.25,1.25,0,0,0-.85.32,1.1,1.1,0,0,0-.37.84,1.07,1.07,0,0,0,.36.87,1.25,1.25,0,0,0,.86.31A1.19,1.19,0,0,0,42.78,84.22Zm0,1.79a1.15,1.15,0,0,0-.87-.36,1.12,1.12,0,0,0-.86.36,1.54,1.54,0,0,0-.33,1.07V94A1.62,1.62,0,0,0,41.06,95a1.09,1.09,0,0,0,.86.37,1.13,1.13,0,0,0,.87-.37A1.51,1.51,0,0,0,43.13,94V87A1.38,1.38,0,0,0,42.79,86Z" transform="translate(-2.58 1.39)" style="fill: none;stroke: #231f20;stroke-width: 2px"/>
          <path d="M48.06,90.11a6.22,6.22,0,0,1,.26-1.3,1.74,1.74,0,0,1,.52-.82,1.33,1.33,0,0,1,.86-.28,2.94,2.94,0,0,1,.89.17,3.63,3.63,0,0,0,.64.16.94.94,0,0,0,.65-.29.92.92,0,0,0,.31-.72,1.12,1.12,0,0,0-.72-1A3,3,0,0,0,50,85.65,1.77,1.77,0,0,0,48.8,86a4.26,4.26,0,0,0-.89,1.11A2,2,0,0,0,47.62,86a1,1,0,0,0-.86-.38q-1.17,0-1.17,1.62V94A1.6,1.6,0,0,0,45.93,95a1.11,1.11,0,0,0,.85.36,1.15,1.15,0,0,0,.87-.36A1.53,1.53,0,0,0,48,94v-2C48,91.22,48,90.61,48.06,90.11Z" transform="translate(-2.58 1.39)" style="fill: none;stroke: #231f20;stroke-width: 2px"/>
          <path d="M60.41,91.09a3,3,0,0,0-1.07-.89,8,8,0,0,0-1.83-.65c-.62-.15-1.12-.28-1.47-.39a2.37,2.37,0,0,1-.86-.4.73.73,0,0,1-.31-.62.81.81,0,0,1,.43-.69,2,2,0,0,1,1.08-.27,2,2,0,0,1,1,.21A2.14,2.14,0,0,1,58,88a3.7,3.7,0,0,0,.6.63,1,1,0,0,0,.62.21,1.08,1.08,0,0,0,.79-.26.87.87,0,0,0,.28-.68,1.42,1.42,0,0,0-.26-.77,2.64,2.64,0,0,0-.76-.72,4.06,4.06,0,0,0-1.24-.52,6.56,6.56,0,0,0-1.67-.19,5,5,0,0,0-2,.38,3.06,3.06,0,0,0-1.27,1,2.49,2.49,0,0,0-.43,1.37,2,2,0,0,0,.47,1.36,3.22,3.22,0,0,0,1.24.89,13.05,13.05,0,0,0,2,.65,5.92,5.92,0,0,1,1.58.55,1,1,0,0,1,.48.92.92.92,0,0,1-.47.74,2,2,0,0,1-1.18.32,2.66,2.66,0,0,1-1.4-.32,2.58,2.58,0,0,1-.88-1,2.25,2.25,0,0,0-.39-.51.81.81,0,0,0-.58-.19,1,1,0,0,0-.71.28.93.93,0,0,0-.28.68A2,2,0,0,0,53,94a3.19,3.19,0,0,0,1.36,1,5.64,5.64,0,0,0,2.21.39,6.46,6.46,0,0,0,2.3-.36,2.77,2.77,0,0,0,1.91-2.77A2,2,0,0,0,60.41,91.09Z" transform="translate(-2.58 1.39)" style="fill: none;stroke: #231f20;stroke-width: 2px"/>
          <path d="M62.1,86.1a.77.77,0,0,0-.28.62.8.8,0,0,0,.27.62,1.12,1.12,0,0,0,.79.25h.32V92.2A7.06,7.06,0,0,0,63.38,94a1.76,1.76,0,0,0,.76,1,3.15,3.15,0,0,0,1.7.37,4.34,4.34,0,0,0,1.82-.3,1,1,0,0,0,.64-.89.78.78,0,0,0-.24-.58.73.73,0,0,0-.52-.23,4,4,0,0,0-.56.07,3,3,0,0,1-.57.08.7.7,0,0,1-.56-.19.81.81,0,0,1-.21-.49,6.46,6.46,0,0,1,0-.87V87.59h.45a2.45,2.45,0,0,0,1.09-.19.69.69,0,0,0,.38-.68.82.82,0,0,0-.26-.62,1.14,1.14,0,0,0-.78-.24H65.6V84.22a4.5,4.5,0,0,0-.07-.93,1,1,0,0,0-.31-.56,1.18,1.18,0,0,0-.83-.34,1.14,1.14,0,0,0-.58.15,1.05,1.05,0,0,0-.41.4,1.41,1.41,0,0,0-.17.57c0,.22,0,.52,0,.91v1.44h-.26A1.28,1.28,0,0,0,62.1,86.1Z" transform="translate(-2.58 1.39)" style="fill: none;stroke: #231f20;stroke-width: 2px"/>
        </g>
        <text transform="translate(26.28 96.57)" style="font-size: 18px;fill: #fff;font-family: ArialRoundedMTBold, Arial Rounded MT Bold"><tspan style="letter-spacing: -0.013020833333333334em">F</tspan><tspan x="10.64" y="0">i</tspan><tspan x="15.52" y="0" style="letter-spacing: -0.023980034722222224em">r</tspan><tspan x="22.97" y="0">st</tspan></text>
        <text transform="translate(65.36 96.57)" style="font-size: 18px;fill: #231f20;font-family: ArialRoundedMTBold, Arial Rounded MT Bold"> </text>
        <g style="clip-path: url(#clip-path-2)">
          <text transform="translate(69.86 96.57)" style="font-size: 18px;fill: #9c3;font-family: ArialNarrow, Arial Narrow">Gear</text>
          <path d="M23.76,54.19S12.68,59.3,12.61,66.79,24.19,72.52,25.54,65c0,0-2.7,5-6.47,4s-1.42-9.26,4.69-14.78" transform="translate(-2.58 1.39)" style="fill: #8cc740"/>
          <path d="M23.76,54.19S12.68,59.3,12.61,66.79,24.19,72.52,25.54,65c0,0-2.7,5-6.47,4S17.65,59.71,23.76,54.19Z" transform="translate(-2.58 1.39)" style="fill: none;stroke: #21b573;stroke-miterlimit: 10"/>
          <path d="M11.13,54H21A18.58,18.58,0,0,0,10,71.71S7.53,59.43,11.13,54" transform="translate(-2.58 1.39)" style="fill: #8cc740"/>
          <path d="M11.13,54H21A18.58,18.58,0,0,0,10,71.71S7.53,59.43,11.13,54Z" transform="translate(-2.58 1.39)" style="fill: none;stroke: #21b573;stroke-miterlimit: 10"/>
        </g>
      </g>
    </g>
  </g>
</svg>
