<svg id="Layer_1" data-name="Layer 1" xmlns="http://www.w3.org/2000/svg" xmlns:xlink="http://www.w3.org/1999/xlink" viewBox="0 0 110.16 102.24">
  <defs>
    <clipPath id="clip-path" transform="translate(0.42 80.69)">
      <rect x="-3" y="-6" width="112.75" height="36.5" style="fill: none"/>
    </clipPath>
    <clipPath id="clip-path-2" transform="translate(0.42 80.69)">
      <rect x="-0.42" y="-79.31" width="122" height="100.95" style="fill: none"/>
    </clipPath>
  </defs>
  <title>logo5</title>
  <g style="clip-path: url(#clip-path)">
    <rect y="80.35" width="110.16" height="21.89" style="fill: #3a4149"/>
    <g style="clip-path: url(#clip-path-2)">
      <path d="M68.15-78.85S50-70.14,49.92-57.38s18.92,9.74,21.13-3.14c0,0-4.41,8.47-10.57,6.85s-2.32-15.78,7.67-25.18" transform="translate(0.42 80.69)" style="fill: #8cc740"/>
      <path d="M68.15-78.85S50-70.14,49.92-57.38s18.92,9.74,21.13-3.14c0,0-4.41,8.47-10.57,6.85S58.16-69.45,68.15-78.85Z" transform="translate(0.42 80.69)" style="fill: none;stroke: #21b573;stroke-miterlimit: 10"/>
      <path d="M47.62-79H63.93S45.21-71.66,45.67-49.09c0,0-4-20.7,1.95-29.93" transform="translate(0.42 80.69)" style="fill: #8cc740"/>
      <path d="M47.62-79H63.93S45.21-71.66,45.67-49.09C45.67-49.09,41.65-69.79,47.62-79Z" transform="translate(0.42 80.69)" style="fill: none;stroke: #21b573;stroke-miterlimit: 10"/>
      <path d="M20.76,2.15S9.68,7.26,9.61,14.76s11.58,5.72,12.93-1.84c0,0-2.7,5-6.47,4S14.65,7.67,20.76,2.15" transform="translate(0.42 80.69)" style="fill: #8cc740"/>
      <path d="M20.76,2.15S9.68,7.26,9.61,14.76s11.58,5.72,12.93-1.84c0,0-2.7,5-6.47,4S14.65,7.67,20.76,2.15Z" transform="translate(0.42 80.69)" style="fill: none;stroke: #21b573;stroke-miterlimit: 10"/>
      <path d="M8.13,1.91H18A18.58,18.58,0,0,0,7,19.67S4.53,7.39,8.13,1.91" transform="translate(0.42 80.69)" style="fill: #8cc740"/>
      <path d="M8.13,1.91H18A18.58,18.58,0,0,0,7,19.67S4.53,7.39,8.13,1.91Z" transform="translate(0.42 80.69)" style="fill: none;stroke: #21b573;stroke-miterlimit: 10"/>
    </g>
    <g style="clip-path: url(#clip-path-2)">
      <path d="M35.89,4.73A1,1,0,0,0,36.2,4a.94.94,0,0,0-.31-.72A1.3,1.3,0,0,0,35,3H28.81a2.36,2.36,0,0,0-.91.16,1.09,1.09,0,0,0-.52.52,2.22,2.22,0,0,0-.17.92v9.92a1.66,1.66,0,0,0,.37,1.19,1.32,1.32,0,0,0,1.88,0,1.76,1.76,0,0,0,.36-1.2V10.26h4.3A1.35,1.35,0,0,0,35,10a1,1,0,0,0,0-1.43,1.26,1.26,0,0,0-.89-.27h-4.3V5H35A1.35,1.35,0,0,0,35.89,4.73Z" transform="translate(0.42 80.69)" style="fill: none;stroke: #231f20;stroke-width: 2px"/>
      <path d="M39.78,4.91a1.07,1.07,0,0,0,.35-.86,1.07,1.07,0,0,0-.36-.87,1.24,1.24,0,0,0-.82-.3,1.21,1.21,0,0,0-.85.33,1.1,1.1,0,0,0-.37.84,1.1,1.1,0,0,0,.36.87,1.29,1.29,0,0,0,.86.3A1.19,1.19,0,0,0,39.78,4.91Zm0,1.79a1.15,1.15,0,0,0-.87-.36,1.12,1.12,0,0,0-.86.36,1.54,1.54,0,0,0-.33,1.07v6.87a1.59,1.59,0,0,0,.33,1.08,1.1,1.1,0,0,0,.86.38,1.16,1.16,0,0,0,.87-.37,1.55,1.55,0,0,0,.34-1.09V7.7A1.39,1.39,0,0,0,39.79,6.7Z" transform="translate(0.42 80.69)" style="fill: none;stroke: #231f20;stroke-width: 2px"/>
      <path d="M45.06,10.8a6.22,6.22,0,0,1,.26-1.3,1.74,1.74,0,0,1,.52-.82,1.32,1.32,0,0,1,.86-.27,2.89,2.89,0,0,1,.89.16,2.86,2.86,0,0,0,.64.16.93.93,0,0,0,.65-.28,1,1,0,0,0,.31-.73,1.12,1.12,0,0,0-.72-1A3.09,3.09,0,0,0,47,6.34a1.83,1.83,0,0,0-1.21.38,4.26,4.26,0,0,0-.89,1.11,2,2,0,0,0-.29-1.11,1,1,0,0,0-.86-.38q-1.17,0-1.17,1.62v6.68a1.6,1.6,0,0,0,.34,1.09,1.12,1.12,0,0,0,.85.37,1.16,1.16,0,0,0,.87-.37A1.53,1.53,0,0,0,45,14.64v-2C45,11.91,45,11.3,45.06,10.8Z" transform="translate(0.42 80.69)" style="fill: none;stroke: #231f20;stroke-width: 2px"/>
      <path d="M57.41,11.79a3,3,0,0,0-1.07-.9,8,8,0,0,0-1.83-.65c-.62-.15-1.12-.28-1.47-.38a2.76,2.76,0,0,1-.86-.4.74.74,0,0,1-.31-.62.79.79,0,0,1,.43-.69,1.88,1.88,0,0,1,1.08-.28,2,2,0,0,1,1,.21,2.14,2.14,0,0,1,.64.56,3.82,3.82,0,0,0,.6.64,1,1,0,0,0,.62.21A1.08,1.08,0,0,0,57,9.22a.86.86,0,0,0,.28-.67,1.45,1.45,0,0,0-.26-.78,2.64,2.64,0,0,0-.76-.72,4.32,4.32,0,0,0-1.24-.52,7,7,0,0,0-1.67-.19,5,5,0,0,0-2,.38,3,3,0,0,0-1.27,1,2.43,2.43,0,0,0-.43,1.36,2,2,0,0,0,.47,1.36,3.22,3.22,0,0,0,1.24.89,13.05,13.05,0,0,0,2,.65,6.31,6.31,0,0,1,1.58.55,1,1,0,0,1,.48.93.9.9,0,0,1-.47.73,2,2,0,0,1-1.18.32,2.57,2.57,0,0,1-1.4-.32,2.62,2.62,0,0,1-.88-1,2.12,2.12,0,0,0-.39-.52.81.81,0,0,0-.58-.19,1,1,0,0,0-.71.28.93.93,0,0,0-.28.68A1.93,1.93,0,0,0,50,14.71a3.11,3.11,0,0,0,1.36,1,5.63,5.63,0,0,0,2.21.4,6.44,6.44,0,0,0,2.3-.37A2.77,2.77,0,0,0,57.77,13,2,2,0,0,0,57.41,11.79Z" transform="translate(0.42 80.69)" style="fill: none;stroke: #231f20;stroke-width: 2px"/>
      <path d="M59.1,6.79a.77.77,0,0,0-.28.62.82.82,0,0,0,.27.63,1.17,1.17,0,0,0,.79.24h.32v4.61a7.06,7.06,0,0,0,.18,1.78,1.73,1.73,0,0,0,.76,1.05,3.15,3.15,0,0,0,1.7.38,4.32,4.32,0,0,0,1.82-.31,1,1,0,0,0,.64-.89.75.75,0,0,0-.24-.57.7.7,0,0,0-.52-.24,3.08,3.08,0,0,0-.56.08,2.89,2.89,0,0,1-.57.07.7.7,0,0,1-.56-.19.79.79,0,0,1-.21-.49,6.39,6.39,0,0,1,0-.86V8.28h.45a2.45,2.45,0,0,0,1.09-.19.68.68,0,0,0,.38-.68.82.82,0,0,0-.26-.62,1.14,1.14,0,0,0-.78-.24H62.6V4.92A4.54,4.54,0,0,0,62.53,4a1,1,0,0,0-.31-.56,1.18,1.18,0,0,0-.83-.34,1.14,1.14,0,0,0-.58.15,1.13,1.13,0,0,0-.41.4,1.41,1.41,0,0,0-.17.57c0,.22,0,.52,0,.91V6.55h-.26A1.28,1.28,0,0,0,59.1,6.79Z" transform="translate(0.42 80.69)" style="fill: none;stroke: #231f20;stroke-width: 2px"/>
    </g>
    <text transform="translate(26.28 96.57)" style="font-size: 18px;fill: #fff;font-family: ArialRoundedMTBold, Arial Rounded MT Bold"><tspan style="letter-spacing: -0.013020833333333334em">F</tspan><tspan x="10.64" y="0">i</tspan><tspan x="15.52" y="0" style="letter-spacing: -0.023980034722222224em">r</tspan><tspan x="22.97" y="0">st</tspan></text>
    <text transform="translate(65.36 96.57)" style="font-size: 18px;fill: #231f20;font-family: ArialRoundedMTBold, Arial Rounded MT Bold"> </text>
    <g style="clip-path: url(#clip-path-2)">
      <text transform="translate(69.86 96.57)" style="font-size: 18px;fill: #9c3;font-family: ArialNarrow, Arial Narrow">Gear</text>
      <path d="M20.76-25.12S9.68-20,9.61-12.51s11.58,5.72,12.93-1.84c0,0-2.7,5-6.47,4s-1.42-9.27,4.69-14.79" transform="translate(0.42 80.69)" style="fill: #8cc740"/>
      <path d="M20.76-25.12S9.68-20,9.61-12.51s11.58,5.72,12.93-1.84c0,0-2.7,5-6.47,4S14.65-19.6,20.76-25.12Z" transform="translate(0.42 80.69)" style="fill: none;stroke: #21b573;stroke-miterlimit: 10"/>
      <path d="M8.13-25.36H18A18.58,18.58,0,0,0,7-7.6S4.53-19.88,8.13-25.36" transform="translate(0.42 80.69)" style="fill: #8cc740"/>
      <path d="M8.13-25.36H18A18.58,18.58,0,0,0,7-7.6S4.53-19.88,8.13-25.36Z" transform="translate(0.42 80.69)" style="fill: none;stroke: #21b573;stroke-miterlimit: 10"/>
    </g>
  </g>
</svg>
