<svg xmlns="http://www.w3.org/2000/svg" xmlns:xlink="http://www.w3.org/1999/xlink" viewBox="0 0 965.35 600.39">
  <defs>
    <clipPath id="clip-path" transform="translate(-174.82 -198.65)">
      <rect x="164.5" y="678.5" width="451" height="146" style="fill: none"/>
    </clipPath>
    <clipPath id="clip-path-2" transform="translate(-174.82 -198.65)">
      <rect x="174.82" y="385.27" width="487.98" height="403.82" style="fill: none"/>
    </clipPath>
  </defs>
  <title>new logo</title>
  <g id="Layer_1" data-name="Layer 1">
    <g>
      <path d="M534.36,200.5s-94.91,45.63-95.52,112.55S538,364.16,549.57,296.63c0,0-23.12,44.41-55.36,35.89S482,249.78,534.36,200.5Z" transform="translate(-174.82 -198.65)" style="fill: #8cc63f;stroke: #22b573;stroke-miterlimit: 10"/>
      <path d="M427.28,200.5h86.4s-99.17,38.33-96.74,155.75C416.94,356.25,395.65,248.56,427.28,200.5Z" transform="translate(-174.82 -198.65)" style="fill: #8cc63f;stroke: #22b573;stroke-miterlimit: 10"/>
    </g>
    <g>
      <text transform="translate(628.33 576.1)" style="font-size: 79.19999694824219px;fill: #4d4d4d;font-family: ArialRoundedMTBold, Arial Rounded MT Bold"><tspan style="letter-spacing: -0.012996173164913801em">F</tspan><tspan x="46.81" y="0">i</tspan><tspan x="68.27" y="0" style="letter-spacing: -0.024000997215848873em">r</tspan><tspan x="101.06" y="0" style="letter-spacing: 0.000006165167535537856em">st</tspan></text>
      <text transform="translate(800.27 576.1)" style="font-size: 79.19999694824219px;fill: #231f20;font-family: ArialRoundedMTBold, Arial Rounded MT Bold"> </text>
      <text transform="translate(820.07 576.1)" style="font-size: 79.19999694824219px;fill: #9c3;font-family: ArialNarrow, Arial Narrow">Gear</text>
      <g>
        <path d="M788.24,714.5S743.45,736,743.16,767.61s46.8,24.12,52.25-7.75c0,0-10.91,21-26.12,16.94S763.54,737.76,788.24,714.5Z" transform="translate(-174.82 -198.65)" style="fill: #8cc63f;stroke: #22b573;stroke-miterlimit: 10"/>
        <path d="M737.71,714.5h40.76s-46.79,18.09-45.65,73.5C732.82,788,722.78,737.18,737.71,714.5Z" transform="translate(-174.82 -198.65)" style="fill: #8cc63f;stroke: #22b573;stroke-miterlimit: 10"/>
      </g>
    </g>
    <g>
      <path d="M717.14,200.5s-94.91,45.63-95.52,112.55,99.17,51.11,110.73-16.42c0,0-23.12,44.41-55.36,35.89S664.82,249.78,717.14,200.5Z" transform="translate(-174.82 -198.65)" style="fill: #8cc63f;stroke: #22b573;stroke-miterlimit: 10"/>
      <path d="M610.06,200.5h86.4s-99.17,38.33-96.74,155.75C599.72,356.25,578.43,248.56,610.06,200.5Z" transform="translate(-174.82 -198.65)" style="fill: #4d4d4d"/>
    </g>
    <g>
      <path d="M887.14,200.5s-94.91,45.63-95.52,112.55,99.17,51.11,110.73-16.42c0,0-23.12,44.41-55.36,35.89S834.82,249.78,887.14,200.5Z" transform="translate(-174.82 -198.65)" style="fill: #4d4d4d"/>
      <path d="M780.06,200.5h86.4s-99.17,38.33-96.74,155.75C769.72,356.25,748.43,248.56,780.06,200.5Z" transform="translate(-174.82 -198.65)" style="fill: #8cc63f;stroke: #22b573;stroke-miterlimit: 10"/>
    </g>
    <g>
      <text transform="translate(628.13 446.1)" style="font-size: 79.19999694824219px;fill: #4d4d4d;font-family: ArialRoundedMTBold, Arial Rounded MT Bold"><tspan style="letter-spacing: -0.012996173164913801em">F</tspan><tspan x="46.81" y="0">i</tspan><tspan x="68.27" y="0" style="letter-spacing: -0.024000997215848873em">r</tspan><tspan x="101.06" y="0" style="letter-spacing: 0.000006165167535537856em">st</tspan></text>
      <text transform="translate(800.06 446.1)" style="font-size: 79.19999694824219px;fill: #231f20;font-family: ArialRoundedMTBold, Arial Rounded MT Bold"> </text>
      <text transform="translate(819.87 446.1)" style="font-size: 79.19999694824219px;fill: #9c3;font-family: ArialNarrow, Arial Narrow">Gear</text>
      <path d="M788,584.5S743.24,606,743,637.61s46.79,24.12,52.25-7.75c0,0-10.91,21-26.13,16.94S763.34,607.76,788,584.5Z" transform="translate(-174.82 -198.65)" style="fill: #4d4d4d"/>
      <path d="M737.5,584.5h40.77s-46.8,18.09-45.65,73.5C732.62,658,722.57,607.18,737.5,584.5Z" transform="translate(-174.82 -198.65)" style="fill: #8cc63f;stroke: #22b573;stroke-miterlimit: 10"/>
    </g>
    <g>
      <text transform="translate(628.13 310.1)" style="font-size: 79.19999694824219px;fill: #4d4d4d;font-family: ArialRoundedMTBold, Arial Rounded MT Bold"><tspan style="letter-spacing: -0.012996173164913801em">F</tspan><tspan x="46.81" y="0">i</tspan><tspan x="68.27" y="0" style="letter-spacing: -0.024000997215848873em">r</tspan><tspan x="101.06" y="0" style="letter-spacing: 0.000006165167535537856em">st</tspan></text>
      <text transform="translate(800.06 310.1)" style="font-size: 79.19999694824219px;fill: #231f20;font-family: ArialRoundedMTBold, Arial Rounded MT Bold"> </text>
      <text transform="translate(819.87 310.1)" style="font-size: 79.19999694824219px;fill: #9c3;font-family: ArialNarrow, Arial Narrow">Gear</text>
      <path d="M788,448.5S743.24,470,743,501.61s46.79,24.12,52.25-7.75c0,0-10.91,21-26.13,16.94S763.34,471.76,788,448.5Z" transform="translate(-174.82 -198.65)" style="fill: #8cc63f;stroke: #22b573;stroke-miterlimit: 10"/>
      <path d="M737.5,448.5h40.77s-46.8,18.09-45.65,73.5C732.62,522,722.57,471.18,737.5,448.5Z" transform="translate(-174.82 -198.65)" style="fill: #4d4d4d"/>
    </g>
    <g>
      <text transform="translate(43.01 310.6)" style="font-size: 79.19999694824219px;fill: #4d4d4d;font-family: ArialRoundedMTBold, Arial Rounded MT Bold"><tspan style="letter-spacing: -0.012996173164913801em">F</tspan><tspan x="46.81" y="0">i</tspan><tspan x="68.27" y="0" style="letter-spacing: -0.024000997215848873em">r</tspan><tspan x="101.06" y="0" style="letter-spacing: 0.000006165167535537856em">st</tspan></text>
      <text transform="translate(214.94 310.6)" style="font-size: 79.19999694824219px;fill: #231f20;font-family: ArialRoundedMTBold, Arial Rounded MT Bold"> </text>
      <text transform="translate(234.74 310.6)" style="font-size: 79.19999694824219px;fill: #9c3;font-family: ArialNarrow, Arial Narrow">Gear</text>
    </g>
    <text transform="translate(43.01 431.42)" style="font-size: 79.19999694824219px;fill: #fff;stroke: #ccc;stroke-miterlimit: 10;font-family: ArialRoundedMTBold, Arial Rounded MT Bold"><tspan style="letter-spacing: -0.012996173164913801em">F</tspan><tspan x="46.81" y="0">i</tspan><tspan x="68.27" y="0" style="letter-spacing: -0.024000997215848873em">r</tspan><tspan x="101.06" y="0" style="letter-spacing: 0.000006165167535537856em">st</tspan></text>
    <text transform="translate(214.95 431.42)" style="font-size: 79.19999694824219px;fill: #231f20;font-family: ArialRoundedMTBold, Arial Rounded MT Bold"> </text>
    <text transform="translate(234.75 431.42)" style="font-size: 79.19999694824219px;fill: #9c3;font-family: ArialNarrow, Arial Narrow">Gear</text>
  </g>
  <g id="Layer_2" data-name="Layer 2">
    <g style="clip-path: url(#clip-path)">
      <rect y="502.48" width="440.64" height="87.56" style="fill: #3a4149"/>
      <g style="clip-path: url(#clip-path-2)">
        <path d="M449.09,387.12s-72.46,34.8-72.93,85.85,75.71,39,84.54-12.53c0,0-17.65,33.88-42.27,27.38s-9.29-63.11,30.66-100.7" transform="translate(-174.82 -198.65)" style="fill: #8cc740"/>
        <path d="M449.09,387.12s-72.46,34.8-72.93,85.85,75.71,39,84.54-12.53c0,0-17.65,33.88-42.27,27.38S409.14,424.71,449.09,387.12Z" transform="translate(-174.82 -198.65)" style="fill: none;stroke: #21b573;stroke-miterlimit: 10"/>
        <path d="M367,386.4H432.2s-74.86,29.47-73,119.73c0,0-16.07-82.78,7.81-119.73" transform="translate(-174.82 -198.65)" style="fill: #8cc740"/>
        <path d="M367,386.4H432.2s-74.86,29.47-73,119.73C359.17,506.13,343.1,423.35,367,386.4Z" transform="translate(-174.82 -198.65)" style="fill: none;stroke: #21b573;stroke-miterlimit: 10"/>
        <path d="M259.56,711.1s-44.35,20.44-44.64,50.43,46.34,22.89,51.74-7.36c0,0-10.8,19.89-25.87,16.08s-5.68-37.07,18.77-59.15" transform="translate(-174.82 -198.65)" style="fill: #8cc740"/>
        <path d="M259.56,711.1s-44.35,20.44-44.64,50.43,46.34,22.89,51.74-7.36c0,0-10.8,19.89-25.87,16.08S235.11,733.18,259.56,711.1Z" transform="translate(-174.82 -198.65)" style="fill: none;stroke: #21b573;stroke-miterlimit: 10"/>
        <path d="M209,710.15h39.34s-45.16,17.47-44.05,71c0,0-9.7-49.11,4.71-71" transform="translate(-174.82 -198.65)" style="fill: #8cc740"/>
        <path d="M209,710.15h39.34s-45.16,17.47-44.05,71C204.32,781.17,194.62,732.06,209,710.15Z" transform="translate(-174.82 -198.65)" style="fill: none;stroke: #21b573;stroke-miterlimit: 10"/>
      </g>
      <g style="clip-path: url(#clip-path-2)">
        <path d="M320.07,721.41a3.78,3.78,0,0,0,1.21-2.93,3.72,3.72,0,0,0-1.21-2.9,5.34,5.34,0,0,0-3.71-1.11H291.75a8.88,8.88,0,0,0-3.64.65,4.13,4.13,0,0,0-2.09,2.07,8.8,8.8,0,0,0-.67,3.68v39.65a6.84,6.84,0,0,0,1.46,4.78,5.28,5.28,0,0,0,7.53,0,6.84,6.84,0,0,0,1.46-4.8v-17H313a5.24,5.24,0,0,0,3.55-1,3.63,3.63,0,0,0,1.19-2.85,3.68,3.68,0,0,0-1.18-2.87A5.15,5.15,0,0,0,313,735.7H295.8V722.52h20.56A5.34,5.34,0,0,0,320.07,721.41Z" transform="translate(-174.82 -198.65)" style="fill: none;stroke: #231f20;stroke-width: 2px"/>
        <path d="M335.63,722.15a4.41,4.41,0,0,0,1.4-3.46,4.25,4.25,0,0,0-1.44-3.48,5,5,0,0,0-3.3-1.2,4.93,4.93,0,0,0-3.4,1.32,4.79,4.79,0,0,0,0,6.84,5.07,5.07,0,0,0,3.43,1.23A4.88,4.88,0,0,0,335.63,722.15Zm0,7.15a4.59,4.59,0,0,0-3.48-1.44,4.45,4.45,0,0,0-3.43,1.44,6.2,6.2,0,0,0-1.31,4.29v27.46a6.41,6.41,0,0,0,1.31,4.32,4.35,4.35,0,0,0,3.43,1.52,4.55,4.55,0,0,0,3.48-1.48,6.18,6.18,0,0,0,1.37-4.36V733.31A5.56,5.56,0,0,0,335.66,729.3Z" transform="translate(-174.82 -198.65)" style="fill: none;stroke: #231f20;stroke-width: 2px"/>
        <path d="M356.76,745.7a22.09,22.09,0,0,1,1-5.18,7.12,7.12,0,0,1,2.07-3.29,5.22,5.22,0,0,1,3.45-1.11,11.88,11.88,0,0,1,3.56.65,12,12,0,0,0,2.55.66,4,4,0,0,0,3.83-4c0-1.66-.94-3-2.84-4a12.48,12.48,0,0,0-5.87-1.51,7.36,7.36,0,0,0-4.84,1.51,16.82,16.82,0,0,0-3.53,4.47,8.39,8.39,0,0,0-1.16-4.47,3.92,3.92,0,0,0-3.45-1.51q-4.67,0-4.67,6.47v26.72a6.3,6.3,0,0,0,1.33,4.36,4.41,4.41,0,0,0,3.41,1.48,4.57,4.57,0,0,0,3.48-1.46,6.17,6.17,0,0,0,1.38-4.38v-8Q356.48,748.71,356.76,745.7Z" transform="translate(-174.82 -198.65)" style="fill: none;stroke: #231f20;stroke-width: 2px"/>
        <path d="M406.13,749.64a12.11,12.11,0,0,0-4.29-3.57,31.86,31.86,0,0,0-7.29-2.6c-2.51-.61-4.48-1.12-5.91-1.55a10.62,10.62,0,0,1-3.41-1.59,3,3,0,0,1-1.26-2.48,3.23,3.23,0,0,1,1.72-2.76A7.83,7.83,0,0,1,390,734a8.11,8.11,0,0,1,4,.84,8.88,8.88,0,0,1,2.57,2.25A16.25,16.25,0,0,0,399,739.6a3.82,3.82,0,0,0,2.52.85,4.36,4.36,0,0,0,3.14-1.06,3.55,3.55,0,0,0,1.11-2.7,5.68,5.68,0,0,0-1-3.1,10.34,10.34,0,0,0-3-2.88,16.57,16.57,0,0,0-5-2.07,26.4,26.4,0,0,0-6.7-.78,19.45,19.45,0,0,0-8.1,1.53,11.83,11.83,0,0,0-5.08,4.1,9.58,9.58,0,0,0-1.72,5.45,8.21,8.21,0,0,0,1.86,5.45,13.27,13.27,0,0,0,5,3.56,51.27,51.27,0,0,0,8.06,2.59,23.63,23.63,0,0,1,6.31,2.21,4,4,0,0,1,1.92,3.69,3.6,3.6,0,0,1-1.84,2.94,8.1,8.1,0,0,1-4.73,1.28,10.69,10.69,0,0,1-5.61-1.26,10.53,10.53,0,0,1-3.53-3.83,8.09,8.09,0,0,0-1.55-2.08,3.33,3.33,0,0,0-2.32-.74,3.87,3.87,0,0,0-2.85,1.13,3.68,3.68,0,0,0-1.12,2.7,8,8,0,0,0,1.75,4.77,12.94,12.94,0,0,0,5.45,3.95,22.34,22.34,0,0,0,8.86,1.59,25.69,25.69,0,0,0,9.2-1.46,11.91,11.91,0,0,0,5.71-4.29,11.78,11.78,0,0,0,1.93-6.81A7.87,7.87,0,0,0,406.13,749.64Z" transform="translate(-174.82 -198.65)" style="fill: none;stroke: #231f20;stroke-width: 2px"/>
        <path d="M412.92,729.67a3.11,3.11,0,0,0-1.14,2.48,3.22,3.22,0,0,0,1.09,2.5,4.58,4.58,0,0,0,3.16,1h1.27v18.42a28.41,28.41,0,0,0,.72,7.14,7,7,0,0,0,3,4.18c1.54,1,3.82,1.52,6.82,1.52a17.07,17.07,0,0,0,7.27-1.23,3.86,3.86,0,0,0,2.54-3.55,3.11,3.11,0,0,0-.94-2.31,2.88,2.88,0,0,0-2.09-.93,11.8,11.8,0,0,0-2.25.3,11.86,11.86,0,0,1-2.28.3,2.85,2.85,0,0,1-2.23-.76,3.53,3.53,0,0,1-.85-2,29.59,29.59,0,0,1-.16-3.46V735.63h1.8a10,10,0,0,0,4.37-.77,2.78,2.78,0,0,0,1.53-2.71,3.21,3.21,0,0,0-1.07-2.48,4.52,4.52,0,0,0-3.11-1h-3.52v-6.54a20,20,0,0,0-.26-3.75,4.06,4.06,0,0,0-1.25-2.23,4.74,4.74,0,0,0-3.3-1.37,4.59,4.59,0,0,0-2.36.62A4.42,4.42,0,0,0,418.1,717a5.45,5.45,0,0,0-.68,2.27c-.08.88-.12,2.09-.12,3.64v5.77h-1.06A5,5,0,0,0,412.92,729.67Z" transform="translate(-174.82 -198.65)" style="fill: none;stroke: #231f20;stroke-width: 2px"/>
      </g>
      <text transform="translate(105.12 567.36)" style="font-size: 72px;fill: #fff;font-family: ArialRoundedMTBold, Arial Rounded MT Bold"><tspan style="letter-spacing: -0.01300048828125em">F</tspan><tspan x="42.55" y="0">i</tspan><tspan x="62.06" y="0" style="letter-spacing: -0.024000379774305556em">r</tspan><tspan x="91.87" y="0">st</tspan></text>
      <text transform="translate(261.43 567.36)" style="font-size: 72px;fill: #231f20;font-family: ArialRoundedMTBold, Arial Rounded MT Bold"> </text>
      <g style="clip-path: url(#clip-path-2)">
        <text transform="translate(279.42 567.36)" style="font-size: 72px;fill: #9c3;font-family: ArialNarrow, Arial Narrow">Gear</text>
        <path d="M259.56,602s-44.35,20.44-44.64,50.43,46.34,22.89,51.74-7.36c0,0-10.8,19.89-25.87,16.08S235.11,624.1,259.56,602" transform="translate(-174.82 -198.65)" style="fill: #8cc740"/>
        <path d="M259.56,602s-44.35,20.44-44.64,50.43,46.34,22.89,51.74-7.36c0,0-10.8,19.89-25.87,16.08S235.11,624.1,259.56,602Z" transform="translate(-174.82 -198.65)" style="fill: none;stroke: #21b573;stroke-miterlimit: 10"/>
        <path d="M209,601.07h39.34s-45.16,17.47-44.05,71c0,0-9.7-49.11,4.71-71" transform="translate(-174.82 -198.65)" style="fill: #8cc740"/>
        <path d="M209,601.07h39.34s-45.16,17.47-44.05,71C204.32,672.09,194.62,623,209,601.07Z" transform="translate(-174.82 -198.65)" style="fill: none;stroke: #21b573;stroke-miterlimit: 10"/>
      </g>
    </g>
  </g>
</svg>
