<svg xmlns="http://www.w3.org/2000/svg" viewBox="0 0 1180.72 1258.34">
  <g id="Layer_2" data-name="Layer 2">
    <g id="Layer_1-2" data-name="Layer 1">
      <path d="M647.05,106.56c-79,153,6,563,162,583-314,45-519-31-532-42s-31-13-27-28,150-552,150-552C429.05,115.56,647.05,106.56,647.05,106.56Z" style="fill: #ffecb3"/>
      <path d="M0,326.42v931.92H1039.35V326.42H926.07c31.59,82.88,100.74,277.36,70,316.47-39.33,50-300,64.67-495.33,54.67s-246-64-246-75.33c0-10.49,50.8-205.94,76.35-295.81Z" style="fill: #b3e5fc"/>
      <path d="M81.38,230.41v961.92a15,15,0,0,0,15,15H646.22v-30h-.1V712.68c97-.69,186.13-8,252.32-20.87,35.45-6.88,63.4-15.16,83.06-24.57,24.71-11.83,37.33-26.29,37.55-43l.21-4.42a14.61,14.61,0,0,0-.5-4.6L920.18,245.41h230.54v931.92H680.55v30h485.17a15,15,0,0,0,15-15V230.41a15,15,0,0,0-15-15H912.18L872.82,67.77a1.59,1.59,0,0,1,0-.78,25.12,25.12,0,0,0,.95-6.88c0-21.16-25-36-78.79-46.62C751.07,4.78,692.86,0,631.1,0s-120,4.78-163.92,13.49C415.63,23.7,390.5,37.74,388.53,57.54a1.52,1.52,0,0,1,0,.21L239.89,615.24a14.55,14.55,0,0,0-.52,3.87c0,30.13,40,53.12,122.29,70.29C420.9,701.76,496,709.56,577.27,712a5.87,5.87,0,0,0,6-5.87V687.46a5.56,5.56,0,0,0-5.41-5.55C498.51,679.56,425.31,672,367.79,660c-32.88-6.87-59.55-15.08-77.14-23.75-14.07-6.93-19.25-12.62-20.73-15.53a1.52,1.52,0,0,1-.11-1.07L410.7,91.13a1.5,1.5,0,0,1,2.12-1c12.84,6.44,30.85,11.9,54.36,16.56,43.94,8.7,102.15,13.49,163.92,13.49s120-4.79,163.9-13.49c21.69-4.29,38.67-9.28,51.25-15.06a1.51,1.51,0,0,1,2.1,1L989.07,620.49a1.51,1.51,0,0,1,0,.47l-.11,2.15c0,.24,0,.48,0,.73,0,1.8-3.67,8.26-20.47,16.31-17.37,8.3-42.87,15.76-75.82,22.16-64.37,12.48-151.47,19.63-246.59,20.32V345.86a15,15,0,0,0-15-15l-.75,0c-.24,0-.48,0-.74,0a15,15,0,0,0-15,15v831.47H111.38V245.41H257.85a15,15,0,0,0,0-30H96.38A15,15,0,0,0,81.38,230.41ZM840.2,60.12a1.53,1.53,0,0,1-.73,1.33c-7,4.16-23.34,11.19-60.24,17.64-40.78,7.14-93.39,11.07-148.13,11.07S523.75,86.23,483,79.09c-37.08-6.49-53.43-13.53-60.35-17.7a1.5,1.5,0,0,1,0-2.57c6.92-4.16,23.27-11.21,60.35-17.71C523.75,34,576.35,30.05,631.1,30.05S738.45,34,779.23,41.11c36.9,6.47,53.27,13.48,60.24,17.64a1.52,1.52,0,0,1,.73,1.35Z" style="fill: #606060"/>
    </g>
  </g>
</svg>
