<svg xmlns="http://www.w3.org/2000/svg" viewBox="0 0 251.75 143.91">
  <g id="Layer_2" data-name="Layer 2">
    <g id="Layer_1-2" data-name="Layer 1">
      <polygon points="251.56 143.72 0 143.91 0 0 251.75 0.19 251.56 143.72" style="fill: #2f7c8e"/>
      <path d="M75.68,51.15l43.71.35-3.91,11.9h-1s1.55-9.8-13.85-9.8H86.93l13.39,19.25L77.05,97H99.8s9.28,1.4,12-9.1l1,.35L108,104.35H68.8l-.18-1.4,24.45-25.2L75.55,52.2Z" style="fill: #fff"/>
      <g>
        <path d="M102.25,75.11l.46,1.72c.1.38.18.73.25,1.08h0a9.63,9.63,0,0,1,.3-1.07l.55-1.73h.52l.53,1.7c.12.4.22.76.3,1.1h0c.07-.34.16-.7.27-1.1l.48-1.7h.61l-1.1,3.39h-.56l-.51-1.62a10.06,10.06,0,0,1-.3-1.11h0c-.09.41-.2.76-.31,1.12l-.55,1.61h-.56l-1-3.39Z" style="fill: #fff"/>
        <path d="M107.49,75.11l.45,1.72c.1.38.19.73.26,1.08h0c.08-.34.19-.71.31-1.07l.55-1.73h.52l.53,1.7c.12.4.22.76.29,1.1h0c.06-.34.15-.7.26-1.1l.49-1.7h.6l-1.09,3.39h-.56l-.51-1.62a8.25,8.25,0,0,1-.3-1.11h0a8.68,8.68,0,0,1-.31,1.12l-.54,1.61h-.57l-1-3.39Z" style="fill: #fff"/>
        <path d="M112.72,75.11l.46,1.72c.1.38.18.73.25,1.08h0c.07-.34.19-.71.3-1.07l.56-1.73h.51l.53,1.7c.12.4.22.76.3,1.1h0c.06-.34.15-.7.26-1.1l.48-1.7H117l-1.09,3.39h-.56l-.52-1.62a10.06,10.06,0,0,1-.3-1.11h0a10.66,10.66,0,0,1-.31,1.12l-.55,1.61h-.56l-1-3.39Z" style="fill: #fff"/>
        <path d="M117.22,78.14a.42.42,0,1,1,.83,0,.42.42,0,0,1-.42.44A.41.41,0,0,1,117.22,78.14Z" style="fill: #fff"/>
        <path d="M118.72,77.87a1.65,1.65,0,0,0,.82.24c.45,0,.66-.22.66-.5s-.18-.45-.63-.62c-.61-.22-.9-.56-.9-1a1,1,0,0,1,1.17-1,1.69,1.69,0,0,1,.83.2l-.15.45a1.36,1.36,0,0,0-.7-.2c-.36,0-.56.21-.56.47s.2.4.65.58.88.51.88,1-.46,1-1.26,1a1.9,1.9,0,0,1-1-.23Z" style="fill: #fff"/>
        <path d="M122.27,74.16a.37.37,0,0,1-.39.38.37.37,0,0,1-.37-.38.38.38,0,0,1,.38-.39A.37.37,0,0,1,122.27,74.16Zm-.69,4.34V75.11h.62V78.5Z" style="fill: #fff"/>
        <path d="M126.15,75.11c0,.24,0,.52,0,.93v2a2,2,0,0,1-.49,1.55,1.82,1.82,0,0,1-1.23.4,2.11,2.11,0,0,1-1.13-.28l.15-.47a2,2,0,0,0,1,.27c.63,0,1.09-.33,1.09-1.19v-.37h0a1.21,1.21,0,0,1-1.08.57A1.52,1.52,0,0,1,123,76.83,1.61,1.61,0,0,1,124.5,75a1.13,1.13,0,0,1,1.06.58h0l0-.51Zm-.65,1.34a1.14,1.14,0,0,0,0-.28.89.89,0,0,0-.86-.66c-.59,0-1,.5-1,1.29s.34,1.22,1,1.22a.91.91,0,0,0,.86-.64,1.17,1.17,0,0,0,0-.32Z" style="fill: #fff"/>
        <path d="M127.09,76c0-.36,0-.64,0-.92h.53l0,.55h0a1.17,1.17,0,0,1,1.07-.62,1,1,0,0,1,.95.67h0a1.51,1.51,0,0,1,.38-.44,1.2,1.2,0,0,1,.75-.23c.45,0,1.11.29,1.11,1.47v2h-.6V76.58c0-.65-.24-1-.73-1a.81.81,0,0,0-.74.55,1,1,0,0,0-.05.31v2.1h-.6v-2c0-.54-.24-.93-.7-.93a.85.85,0,0,0-.77.61,1.06,1.06,0,0,0,0,.31v2h-.6Z" style="fill: #fff"/>
        <path d="M134.81,78.5l-.06-.43h0a1.25,1.25,0,0,1-1,.51,1,1,0,0,1-1-1c0-.82.72-1.28,2-1.27v-.07a.7.7,0,0,0-.77-.78,1.62,1.62,0,0,0-.88.25l-.14-.41A2.14,2.14,0,0,1,134,75c1,0,1.28.7,1.28,1.38v1.27a5,5,0,0,0,.06.81Zm-.1-1.73c-.66,0-1.43.11-1.43.76a.54.54,0,0,0,.58.59.84.84,0,0,0,.82-.57.42.42,0,0,0,0-.19Z" style="fill: #fff"/>
        <path d="M137,74.14v1h.88v.47H137v1.83c0,.42.12.66.46.66a1.06,1.06,0,0,0,.36,0l0,.47a1.52,1.52,0,0,1-.55.08.86.86,0,0,1-.67-.26,1.27,1.27,0,0,1-.24-.88V75.58h-.52v-.47h.52V74.3Z" style="fill: #fff"/>
        <path d="M140.47,78.5l-.05-.43h0a1.25,1.25,0,0,1-1,.51,1,1,0,0,1-1-1c0-.82.73-1.28,2-1.27v-.07a.7.7,0,0,0-.77-.78,1.64,1.64,0,0,0-.88.25l-.14-.41a2.14,2.14,0,0,1,1.12-.29c1,0,1.29.7,1.29,1.38v1.27a5,5,0,0,0,.05.81Zm-.09-1.73c-.67,0-1.43.11-1.43.76a.54.54,0,0,0,.57.59.85.85,0,0,0,.83-.57.63.63,0,0,0,0-.19Z" style="fill: #fff"/>
        <path d="M142.25,75.11l.49.73c.12.19.23.36.34.55h0c.11-.2.22-.37.34-.56l.47-.72h.67l-1.15,1.64,1.18,1.75h-.69l-.51-.76c-.13-.2-.24-.39-.36-.59h0c-.11.2-.23.38-.36.59l-.49.76h-.68l1.21-1.73-1.15-1.66Z" style="fill: #fff"/>
        <path d="M147.09,78.5l-.06-.43h0a1.23,1.23,0,0,1-1,.51,1,1,0,0,1-1-1c0-.82.73-1.28,2-1.27v-.07a.7.7,0,0,0-.77-.78,1.59,1.59,0,0,0-.88.25l-.14-.41A2.13,2.13,0,0,1,146.3,75c1,0,1.29.7,1.29,1.38v1.27a5,5,0,0,0,0,.81Zm-.1-1.73c-.67,0-1.43.11-1.43.76a.54.54,0,0,0,.58.59.85.85,0,0,0,.82-.57.63.63,0,0,0,0-.19Z" style="fill: #fff"/>
        <path d="M151,78.38a2.35,2.35,0,0,1-1,.19,1.61,1.61,0,0,1-1.69-1.73,1.72,1.72,0,0,1,1.82-1.8,1.92,1.92,0,0,1,.85.18l-.14.47a1.5,1.5,0,0,0-.72-.16,1.28,1.28,0,0,0,0,2.55,1.87,1.87,0,0,0,.75-.16Z" style="fill: #fff"/>
        <path d="M154.09,78.38a2.31,2.31,0,0,1-1,.19,1.61,1.61,0,0,1-1.69-1.73,1.72,1.72,0,0,1,1.82-1.8,2,2,0,0,1,.86.18l-.14.47a1.5,1.5,0,0,0-.72-.16,1.28,1.28,0,0,0,0,2.55,1.92,1.92,0,0,0,.76-.16Z" style="fill: #fff"/>
        <path d="M157.84,76.77a1.66,1.66,0,0,1-1.69,1.81,1.61,1.61,0,0,1-1.63-1.75A1.66,1.66,0,0,1,156.21,75,1.6,1.6,0,0,1,157.84,76.77Zm-2.69,0c0,.75.43,1.31,1,1.31s1-.56,1-1.33c0-.57-.29-1.29-1-1.29S155.15,76.17,155.15,76.81Z" style="fill: #fff"/>
        <path d="M161.45,77.57c0,.36,0,.66,0,.93h-.54l0-.55h0a1.27,1.27,0,0,1-1.12.63c-.53,0-1.17-.3-1.17-1.49v-2h.61V77c0,.65.21,1.09.76,1.09a.91.91,0,0,0,.82-.57,1,1,0,0,0,.05-.31V75.11h.62Z" style="fill: #fff"/>
        <path d="M162.47,76c0-.36,0-.64,0-.92H163l0,.56h0a1.24,1.24,0,0,1,1.12-.63c.46,0,1.19.28,1.19,1.44v2h-.61v-2c0-.55-.21-1-.78-1a.93.93,0,0,0-.88.92v2h-.61Z" style="fill: #fff"/>
        <path d="M167.07,74.14v1H168v.47h-.88v1.83c0,.42.12.66.46.66a1.06,1.06,0,0,0,.36,0l0,.47a1.52,1.52,0,0,1-.55.08.86.86,0,0,1-.67-.26,1.27,1.27,0,0,1-.24-.88V75.58h-.52v-.47h.52V74.3Z" style="fill: #fff"/>
        <path d="M169.33,74.16a.38.38,0,1,1-.76,0,.38.38,0,0,1,.38-.39A.37.37,0,0,1,169.33,74.16Zm-.68,4.34V75.11h.61V78.5Z" style="fill: #fff"/>
        <path d="M170.28,76c0-.36,0-.64,0-.92h.55l0,.56h0A1.25,1.25,0,0,1,172,75c.47,0,1.19.28,1.19,1.44v2h-.61v-2c0-.55-.21-1-.78-1a.9.9,0,0,0-.87.92v2h-.62Z" style="fill: #fff"/>
        <path d="M177.09,75.11c0,.24,0,.52,0,.93v2a2,2,0,0,1-.48,1.55,1.87,1.87,0,0,1-1.24.4,2.13,2.13,0,0,1-1.13-.28l.16-.47a1.89,1.89,0,0,0,1,.27c.62,0,1.09-.33,1.09-1.19v-.37h0a1.18,1.18,0,0,1-1.07.57,1.52,1.52,0,0,1-1.45-1.66A1.62,1.62,0,0,1,175.45,75a1.13,1.13,0,0,1,1.06.58h0l0-.51Zm-.64,1.34a.79.79,0,0,0,0-.28.89.89,0,0,0-.86-.66c-.59,0-1,.5-1,1.29s.34,1.22,1,1.22a.89.89,0,0,0,.86-.64,1.19,1.19,0,0,0,0-.32Z" style="fill: #fff"/>
        <path d="M177.83,78.14a.42.42,0,1,1,.41.44A.42.42,0,0,1,177.83,78.14Z" style="fill: #fff"/>
        <path d="M181.84,78.38a2.35,2.35,0,0,1-1,.19,1.61,1.61,0,0,1-1.69-1.73A1.72,1.72,0,0,1,181,75a1.92,1.92,0,0,1,.85.18l-.13.47a1.53,1.53,0,0,0-.72-.16,1.28,1.28,0,0,0,0,2.55,1.92,1.92,0,0,0,.76-.16Z" style="fill: #fff"/>
        <path d="M185.58,76.77a1.66,1.66,0,0,1-1.68,1.81,1.61,1.61,0,0,1-1.63-1.75A1.65,1.65,0,0,1,184,75,1.59,1.59,0,0,1,185.58,76.77Zm-2.68,0c0,.75.42,1.31,1,1.31s1-.56,1-1.33c0-.57-.29-1.29-1-1.29S182.9,76.17,182.9,76.81Z" style="fill: #fff"/>
        <path d="M186.36,76c0-.36,0-.64,0-.92h.54l0,.55h0A1.17,1.17,0,0,1,188,75a1,1,0,0,1,.95.67h0a1.38,1.38,0,0,1,.38-.44,1.15,1.15,0,0,1,.74-.23c.45,0,1.12.29,1.12,1.47v2h-.6V76.58c0-.65-.24-1-.73-1a.81.81,0,0,0-.74.55,1,1,0,0,0,0,.31v2.1h-.6v-2c0-.54-.24-.93-.7-.93a.85.85,0,0,0-.77.61,1.06,1.06,0,0,0,0,.31v2h-.6Z" style="fill: #fff"/>
      </g>
      <text transform="translate(101.5 69.5)" style="font-size: 8px;fill: #fff;font-family: MyriadPro-Regular, Myriad Pro">“Big Enough, Small Enoug<tspan x="86.24" y="0" style="letter-spacing: -0.032958984375em">h</tspan><tspan x="90.41" y="0" style="letter-spacing: -0.0859375em">”</tspan></text>
    </g>
  </g>
</svg>
