<svg xmlns="http://www.w3.org/2000/svg" xmlns:xlink="http://www.w3.org/1999/xlink" viewBox="0 0 399 193">
  <defs>
    <clipPath id="clip-path">
      <rect x="13.5" y="57.81" width="373.85" height="133.03" style="fill: none"/>
    </clipPath>
  </defs>
  <g id="Layer_2" data-name="Layer 2">
    <g id="Layer_1-2" data-name="Layer 1">
      <rect width="399" height="193" style="fill: #fff"/>
      <text transform="translate(52.18 175.83)" style="font-size: 12px;fill: #1d1d1b;font-family: HelveticaNeue, Helvetica Neue">#f5d<tspan x="24.01" y="0" style="letter-spacing: 0.0030110677083333335em">c</tspan><tspan x="30.49" y="0">aa</tspan></text>
      <path d="M164.22,171.08h-1.09l-.36,1.64h1l-.12.69h-1.06l-.46,2.09h-.46l.45-2.09h-1.3l-.45,2.09h-.47l.47-2.09h-1.15l.12-.69h1.19l.35-1.64H159.8l.09-.7h1.18l.39-1.85h.47l-.41,1.85h1.3l.4-1.85h.45l-.38,1.85h1Zm-2.85,0-.34,1.64h1.29l.34-1.64Zm8.66,1c0,1.75-.64,3.89-2.43,3.89s-2.46-2-2.46-3.87.66-3.89,2.46-3.89S170,170.24,170,172.08Zm-3.83,0c0,1.68.35,3.49,1.4,3.49s1.36-1.8,1.36-3.48-.3-3.47-1.38-3.47S166.2,170.4,166.2,172.07Zm9.59,0c0,1.75-.64,3.89-2.43,3.89s-2.46-2-2.46-3.87.66-3.89,2.46-3.89S175.79,170.24,175.79,172.08Zm-3.83,0c0,1.68.35,3.49,1.4,3.49s1.36-1.8,1.36-3.48-.3-3.47-1.38-3.47S172,170.4,172,172.07Zm5.46-1.64a2.8,2.8,0,0,1,.15-.91,2.73,2.73,0,0,1,1-1.32,2.65,2.65,0,0,1,1.52-.65,1.94,1.94,0,0,1,1.39.58,2.72,2.72,0,0,1,1.57-.84,1.31,1.31,0,0,1,1,.42.34.34,0,0,1,.06.39.62.62,0,0,1-.25.29.23.23,0,0,1-.35,0,1.45,1.45,0,0,0-1-.49.7.7,0,0,0-.62.38,4,4,0,0,0-.27,1.9v.4H183a.42.42,0,0,1-.11.47h-1.33v3.53c0,.8.09.86,1,.95v.3h-2.68v-.3c.66-.09.76-.16.76-.95v-3.53h-2.26v3.53c0,.79.09.86.82.95v.3h-2.58v-.32c.72-.07.81-.14.81-.93v-3.53h-.85l0-.13.31-.34h.57Zm3.21-.07a3.66,3.66,0,0,1,.09-.93,3.26,3.26,0,0,1,.24-.62,1.62,1.62,0,0,0-1.33-.76,1,1,0,0,0-.89.52,3.09,3.09,0,0,0-.37,1.73v.28h2.26Zm3.65.07a3.11,3.11,0,0,1,.14-.91,2.73,2.73,0,0,1,1-1.32,2.68,2.68,0,0,1,1.52-.65,1.92,1.92,0,0,1,1.39.58,2.72,2.72,0,0,1,1.57-.84,1.36,1.36,0,0,1,1,.42.36.36,0,0,1,.06.39.71.71,0,0,1-.26.29.22.22,0,0,1-.34,0,1.5,1.5,0,0,0-1-.49.7.7,0,0,0-.62.38,4,4,0,0,0-.27,1.9l0,.4h1.42a.44.44,0,0,1-.1.47h-1.34v3.53c0,.8.09.86,1,.95v.3h-2.68v-.3c.66-.09.76-.16.76-.95v-3.53h-2.26v3.53c0,.79.09.86.82.95v.3h-2.58v-.32c.72-.07.82-.14.82-.93v-3.53h-.85l0-.13.31-.34h.58Zm3.2-.07a3.58,3.58,0,0,1,.1-.93,3.18,3.18,0,0,1,.23-.62,1.6,1.6,0,0,0-1.33-.76,1,1,0,0,0-.88.52,3,3,0,0,0-.38,1.73v.28h2.26Z" style="fill: #1d1d1b"/>
      <text transform="translate(249.61 176.21)" style="font-size: 12px;fill: #1d1d1b;font-family: HelveticaNeue, Helvetica Neue">#761635</text>
      <text transform="translate(325.82 174.36)" style="font-size: 12px;fill: #1d1d1b;font-family: HelveticaNeue, Helvetica Neue">#824192</text>
      <g style="clip-path: url(#clip-path)">
        <path d="M68.74,157.29A46.24,46.24,0,1,0,22.5,111.05a46.24,46.24,0,0,0,46.24,46.24" style="fill: #38bbf5"/>
        <path d="M343.49,139.29A22.57,22.57,0,0,0,366.32,117c0-12.32-10.22-22.3-22.83-22.3s-22.84,10-22.84,22.3a22.57,22.57,0,0,0,22.84,22.31" style="fill: #5ec2c2"/>
        <path d="M167.33,156.73c21.59,0,39.1-17.84,39.1-39.86S188.92,77,167.33,77s-39.11,17.84-39.11,39.86,17.51,39.86,39.11,39.86" style="fill: #1012ea"/>
        <path d="M167.33,156.73c21.59,0,39.1-17.84,39.1-39.86S188.92,77,167.33,77s-39.11,17.84-39.11,39.86S145.73,156.73,167.33,156.73Z" style="fill: none;stroke: gray"/>
        <path d="M259.15,143.53c15.09,0,27.32-11.94,27.32-26.66s-12.23-26.66-27.32-26.66-27.32,11.94-27.32,26.66,12.24,26.66,27.32,26.66" style="fill: #761635"/>
      </g>
      <rect id="gray_box" data-name="gray box" x="8" y="5" width="381" height="38" style="fill: #e9e9e9"/>
      <text transform="translate(156.68 27.81)" style="font-size: 18px;font-family: HelveticaNeue, Helvetica Neue">Option 3</text>
    </g>
  </g>
</svg>
