<svg xmlns="http://www.w3.org/2000/svg" viewBox="0 0 1759.09 802">
  <g id="Layer_2" data-name="Layer 2">
    <g id="letterhead">
      <g>
        <rect x="771.87" y="7.79" width="987.21" height="794.21" style="fill: #fff"/>
        <rect x="1" y="1" width="616.05" height="795.25" style="fill: #fff;stroke: #2f7c8e;stroke-miterlimit: 10;stroke-width: 2px"/>
        <path d="M318,724.35c-185,0-315,50-315,50l1,19,614-1,1-23s-116-45-301-45Z" style="fill: #307d8f"/>
        <text transform="translate(72.77 59.67)" style="font-size: 5.999999523162842px;fill: #010101;font-family: EuphemiaUCAS, Euphemia UCAS"> </text>
        <text transform="translate(75.79 59.68)" style="font-size: 3.999999761581421px;fill: #010101;font-family: EuphemiaUCAS, Euphemia UCAS"> </text>
        <text transform="translate(77.81 59.68)" style="font-size: 3.999999761581421px;fill: #010101;font-family: EuphemiaUCAS, Euphemia UCAS"> </text>
        <text transform="translate(79.81 59.67)" style="font-size: 15.999999046325684px;fill: #010101;font-family: Arial-Black, Arial Black;font-weight: 800">SIGMA</text>
        <text transform="translate(81.63 50.81)" style="font-size: 11.999999046325684px;fill: #010101;font-family: MyriadPro-Regular, Myriad Pro"> </text>
        <text transform="translate(84.18 50.81)" style="font-size: 11.999999046325684px;fill: #010101;font-family: MyriadPro-Regular, Myriad Pro"> </text>
        <text transform="translate(81.63 68.81)" style="font-size: 7.999999523162842px;fill: #010101;font-family: Oswald-Light, Oswald;font-weight: 300">T</text>
        <text transform="translate(84.74 68.81)" style="font-size: 7.999999523162842px;fill: #010101;font-family: Oswald-Light, Oswald;font-weight: 300">AX &amp; ACCOUNTING</text>
        <text transform="translate(138.2 68.81)" style="font-size: 14.999999046325684px;fill: #010101;font-family: Oswald-Light, Oswald;font-weight: 300"> </text>
        <path d="M51.5,33.49l43.71.35L91.3,45.74h-1s1.55-9.8-13.85-9.8H62.75L76.14,55.19,52.87,79.34H75.62s9.28,1.4,12-9.1l1,.35-4.77,16.1H44.62l-.18-1.4,24.44-25.2L51.37,34.54l.13-1Z" style="fill: #4079a3"/>
        <text transform="translate(233.06 752.81)" style="font-size: 11.760000228881836px;fill: #fff;font-family: Roboto-Bold, Roboto;font-weight: 700"> </text>
        <path d="M241.4,752.81V752H238v0l.61-.56c1.61-1.56,2.64-2.7,2.64-4.11a2.15,2.15,0,0,0-2.34-2.22,3.39,3.39,0,0,0-2.17.77l.33.73a2.62,2.62,0,0,1,1.62-.64,1.36,1.36,0,0,1,1.52,1.49c0,1.15-.9,2.14-2.85,4l-.81.79v.63Zm5.51-7.76a4.54,4.54,0,0,0-.75.06,4.15,4.15,0,0,0-2.45,1.13,4.81,4.81,0,0,0-1.29,3.44c0,2,1.07,3.26,2.7,3.26a2.55,2.55,0,0,0,2.54-2.69,2.33,2.33,0,0,0-4.15-1.59h0a3.12,3.12,0,0,1,2.66-2.72,4.46,4.46,0,0,1,.78,0v-.85Zm-1.79,7.09c-1.08,0-1.67-.93-1.68-2.18a.87.87,0,0,1,.12-.46,1.68,1.68,0,0,1,1.48-.94,1.55,1.55,0,0,1,1.58,1.75c0,1.09-.6,1.83-1.5,1.83Zm3.6-7V746h3.74v0l-3.32,6.76h1.07l3.33-7v-.68Zm8.36,7.77a2.35,2.35,0,0,0,2.6-2.22,2.13,2.13,0,0,0-1.54-2v0a2,2,0,0,0,1.26-1.79,2,2,0,0,0-2.22-1.88,2.14,2.14,0,0,0-2.37,2,1.91,1.91,0,0,0,1.21,1.72v0a2.17,2.17,0,0,0-1.51,2c0,1.12,1,2.07,2.56,2.07Zm0-.75a1.41,1.41,0,0,1-1.53-1.46,1.65,1.65,0,0,1,1.37-1.57c1,.29,1.68.74,1.68,1.67a1.38,1.38,0,0,1-1.52,1.36Zm0-6.41a1.18,1.18,0,0,1,1.29,1.25,1.49,1.49,0,0,1-1.16,1.38c-.89-.23-1.46-.64-1.46-1.41a1.21,1.21,0,0,1,1.33-1.22Zm13.26,7h1l-.49-7.92h-1.31l-1.41,3.83c-.35,1-.63,1.87-.83,2.67h0c-.2-.82-.47-1.69-.8-2.67l-1.35-3.83h-1.31l-.55,7.92h1l.21-3.4c.07-1.18.13-2.51.15-3.5h0c.23.94.55,2,.92,3.08l1.28,3.78h.78l1.4-3.85c.4-1.08.73-2.08,1-3h0c0,1,.05,2.32.11,3.42l.2,3.48Z" style="fill: #fff"/>
        <path d="M274.1,752.81v-5.69h-1v5.69Zm-.52-7.94a.64.64,0,0,0-.65.65.65.65,0,1,0,.65-.65Zm2.23,7.94h1v-8.35h-1v8.35Zm7.36-2.65a4.88,4.88,0,0,0,0-.49,2.41,2.41,0,0,0-2.35-2.68c-1.66,0-2.67,1.35-2.67,3.07a2.65,2.65,0,0,0,2.8,2.88,4.65,4.65,0,0,0,1.89-.36l-.17-.74a3.86,3.86,0,0,1-1.58.29,1.81,1.81,0,0,1-1.95-2h4Zm-4-.75a1.72,1.72,0,0,1,1.59-1.68,1.48,1.48,0,0,1,1.43,1.68Zm4.9,3.13a3.21,3.21,0,0,0,1.6.4c1.35,0,2.13-.71,2.13-1.71s-.51-1.35-1.49-1.72c-.74-.28-1.09-.5-1.09-1s.35-.77,1-.77a2.19,2.19,0,0,1,1.16.33l.26-.76a2.93,2.93,0,0,0-1.4-.35,1.75,1.75,0,0,0-2,1.67c0,.68.48,1.25,1.5,1.61.77.29,1.06.56,1.06,1.05s-.35.85-1.11.85a2.73,2.73,0,0,1-1.36-.41l-.26.78Zm11.68-2.22.85,2.49h1.09l-2.7-7.92h-1.24l-2.69,7.92h1.05l.83-2.49Zm-2.6-.8.78-2.29c.15-.49.28-1,.4-1.44h0c.12.46.24.93.41,1.45l.78,2.28Z" style="fill: #fff"/>
        <path d="M297.87,747.12l2.17,5.69h1l2.23-5.69h-1.08l-1.11,3.2c-.18.52-.35,1-.48,1.46h0a15.09,15.09,0,0,0-.46-1.46l-1.12-3.2Zm10.88,3a2.81,2.81,0,0,0,0-.49,2.41,2.41,0,0,0-2.35-2.68c-1.66,0-2.67,1.35-2.67,3.07a2.65,2.65,0,0,0,2.8,2.88,4.65,4.65,0,0,0,1.89-.36l-.18-.74a3.77,3.77,0,0,1-1.57.29,1.82,1.82,0,0,1-2-2h4Zm-4-.75a1.72,1.72,0,0,1,1.58-1.68,1.48,1.48,0,0,1,1.44,1.68Zm5.69,3.53a.74.74,0,0,0,0-1.48.7.7,0,0,0-.71.74.69.69,0,0,0,.7.74Z" style="fill: #fff"/>
        <path d="M318,744.76c-2.11,0-3.68,1.64-3.68,4.16s1.47,4,3.57,4,3.68-1.44,3.68-4.17c0-2.36-1.4-4-3.57-4Zm0,.83c1.7,0,2.53,1.65,2.53,3.22,0,1.8-.92,3.3-2.54,3.3s-2.53-1.52-2.53-3.21.84-3.31,2.54-3.31Zm4.91,7.22h1v-3a3.32,3.32,0,0,1,0-.48,1.45,1.45,0,0,1,1.39-1.33,1.75,1.75,0,0,1,.35,0v-1a.85.85,0,0,0-.29,0,1.71,1.71,0,0,0-1.58,1.25h0l0-1.12h-.91c0,.53.05,1.11.05,1.78v3.91Zm3.86,0h1v-8.35h-1v8.35Zm6.88,0a8,8,0,0,1-.09-1.36v-2.13c0-1.14-.43-2.33-2.17-2.33a3.49,3.49,0,0,0-1.87.51l.24.68a2.81,2.81,0,0,1,1.48-.42,1.17,1.17,0,0,1,1.29,1.31v.12c-2.2,0-3.42.74-3.42,2.12a1.62,1.62,0,0,0,1.74,1.63,2.14,2.14,0,0,0,1.74-.84h0l.08.71Zm-1.09-1.91a1.36,1.36,0,0,1-.06.33,1.43,1.43,0,0,1-1.38.95.92.92,0,0,1-1-1c0-1.11,1.29-1.31,2.42-1.28v1Zm2.68,1.91h1v-3.42a1.39,1.39,0,0,1,.07-.48,1.48,1.48,0,0,1,1.39-1.06c1,0,1.32.76,1.32,1.68v3.28h1v-3.38c0-2-1.22-2.44-2-2.44a2.11,2.11,0,0,0-1.88,1.07h0l-.06-.94h-.92c0,.47.05,1,.05,1.54v4.15Zm10.42-2.38a1.65,1.65,0,0,1-1.57,1.68c-1.12,0-1.68-1-1.68-2.11s.64-2.2,1.71-2.2a1.52,1.52,0,0,1,1.49,1.2,1.65,1.65,0,0,1,.05.44v1Zm1-6h-1v3.4h0a1.89,1.89,0,0,0-1.71-.87c-1.39,0-2.57,1.17-2.56,3.06a2.59,2.59,0,0,0,2.45,2.89,2.11,2.11,0,0,0,1.93-1.11h0l.05,1h.93c0-.38-.05-1-.05-1.47Z" style="fill: #fff"/>
        <path d="M350.83,747a2.78,2.78,0,0,0-2.82,3,2.71,2.71,0,0,0,2.73,2.93,2.78,2.78,0,0,0,2.83-3,2.69,2.69,0,0,0-2.74-2.93Zm0,.78c1.22,0,1.7,1.22,1.7,2.19,0,1.28-.74,2.21-1.73,2.21s-1.73-.94-1.73-2.19c0-1.08.53-2.21,1.76-2.21Zm3.85,6.42a14.2,14.2,0,0,0,1.12-2.86l-1.15.12a17.75,17.75,0,0,1-.7,2.81l.73-.07Z" style="fill: #fff"/>
        <path d="M359.56,752.81h1v-3.58h3v-.85h-3v-2.64h3.25v-.85h-4.27v7.92Zm5.72,0h4.41V752h-3.38v-7.07h-1v7.92Zm7.65-.38a3.94,3.94,0,0,0,2,.51c1.84,0,2.79-1.07,2.79-2.29a2,2,0,0,0-1.7-2v0a1.9,1.9,0,0,0,1.41-1.8c0-.93-.68-1.82-2.19-1.82a3.6,3.6,0,0,0-2,.59l.27.75a2.78,2.78,0,0,1,1.53-.51c1,0,1.34.54,1.34,1.16,0,.9-.95,1.29-1.7,1.29h-.58v.78h.58c1,0,2,.44,2,1.53,0,.63-.4,1.48-1.73,1.48a3.55,3.55,0,0,1-1.69-.48l-.28.8Zm10.95.38V752h-3.44v0l.61-.56c1.61-1.56,2.64-2.7,2.64-4.11a2.15,2.15,0,0,0-2.34-2.22,3.39,3.39,0,0,0-2.17.77l.33.73a2.62,2.62,0,0,1,1.63-.64,1.35,1.35,0,0,1,1.51,1.49c0,1.15-.9,2.14-2.84,4l-.82.79v.63Zm1.11-.38a4,4,0,0,0,2,.51c1.84,0,2.79-1.07,2.79-2.29a2,2,0,0,0-1.71-2v0a1.9,1.9,0,0,0,1.41-1.8c0-.93-.68-1.82-2.18-1.82a3.57,3.57,0,0,0-2,.59l.27.75a2.75,2.75,0,0,1,1.53-.51c1,0,1.34.54,1.34,1.16,0,.9-1,1.29-1.71,1.29h-.58v.78h.58c1,0,2,.44,2,1.53,0,.63-.4,1.48-1.73,1.48a3.59,3.59,0,0,1-1.7-.48l-.28.8Zm10.95.38V752h-3.43v0l.61-.56c1.61-1.56,2.63-2.7,2.63-4.11a2.15,2.15,0,0,0-2.34-2.22,3.38,3.38,0,0,0-2.16.77l.33.73a2.62,2.62,0,0,1,1.62-.64,1.36,1.36,0,0,1,1.52,1.49c0,1.15-.91,2.14-2.85,4l-.81.79v.63Zm3.4,0h1v-7.64h-.88l-1.67.89.2.79,1.33-.72h0v6.68Z" style="fill: #fff"/>
        <text transform="translate(233.06 766.93)" style="font-size: 11.760000228881836px;fill: #fff;font-family: Roboto-Bold, Roboto;font-weight: 700"><tspan xml:space="preserve">  </tspan></text>
        <text transform="translate(238.91 766.93)" style="font-size: 11.760000228881836px;fill: #fff;font-family: Roboto-Bold, Roboto;font-weight: 700"> </text>
        <path d="M242.05,761.23l1.72,5.7h.94l.92-2.71a16.59,16.59,0,0,0,.52-1.88h0a19.05,19.05,0,0,0,.51,1.87l.87,2.72h.94l1.83-5.7h-1l-.81,2.86c-.19.67-.34,1.27-.45,1.85h0c-.13-.58-.3-1.18-.51-1.86l-.88-2.85h-.87l-.93,2.91c-.19.61-.38,1.22-.51,1.8h0c-.11-.59-.26-1.18-.43-1.81l-.76-2.9Zm8.8,0,1.72,5.7h.94l.91-2.71a16.59,16.59,0,0,0,.52-1.88h0a19,19,0,0,0,.5,1.87l.87,2.72h.94l1.84-5.7h-1l-.82,2.86c-.18.67-.34,1.27-.44,1.85h0c-.13-.58-.29-1.18-.5-1.86l-.89-2.85h-.87l-.92,2.91c-.19.61-.38,1.22-.51,1.8h0c-.1-.59-.25-1.18-.42-1.81l-.76-2.9Z" style="fill: #fff"/>
        <path d="M259.64,761.23l1.72,5.7h.94l.92-2.71a16.59,16.59,0,0,0,.52-1.88h0a19.05,19.05,0,0,0,.51,1.87l.87,2.72h.94l1.83-5.7h-1l-.81,2.86c-.19.67-.34,1.27-.45,1.85h0c-.13-.58-.3-1.18-.51-1.86l-.88-2.85h-.87l-.93,2.91c-.19.61-.38,1.22-.5,1.8h0c-.11-.59-.26-1.18-.42-1.81l-.77-2.9Zm9.3,5.83a.75.75,0,0,0,0-1.49.75.75,0,0,0,0,1.49Z" style="fill: #fff"/>
        <path d="M270.52,766.66a3.31,3.31,0,0,0,1.6.4c1.36,0,2.13-.72,2.13-1.72s-.5-1.34-1.49-1.72c-.74-.28-1.08-.49-1.08-1s.34-.78.95-.78a2.19,2.19,0,0,1,1.16.33l.26-.75a2.82,2.82,0,0,0-1.4-.36,1.76,1.76,0,0,0-2,1.67c0,.69.48,1.25,1.5,1.62.77.28,1.06.55,1.06,1s-.35.85-1.1.85a2.74,2.74,0,0,1-1.37-.41l-.26.79Zm6.07.27v-5.7h-1v5.7Zm-.52-7.94a.63.63,0,0,0-.64.64.64.64,0,1,0,.64-.64Zm6.05,5.51a1.81,1.81,0,0,1-.08.56,1.52,1.52,0,0,1-1.44,1.05c-1.12,0-1.68-.92-1.68-2,0-1.32.71-2.16,1.69-2.16a1.5,1.5,0,0,1,1.45,1.1,1.38,1.38,0,0,1,.06.47v1Zm1.07-3.27h-.91l0,.86h0a1.87,1.87,0,0,0-1.77-1,2.74,2.74,0,0,0-2.57,3,2.54,2.54,0,0,0,2.43,2.77,2,2,0,0,0,1.81-.95h0v.64c0,1.43-.77,2-1.83,2a3.23,3.23,0,0,1-1.67-.44l-.26.78a3.63,3.63,0,0,0,1.89.48,3,3,0,0,0,2.07-.69,3.26,3.26,0,0,0,.81-2.6v-3.3c0-.7,0-1.16.06-1.57Zm1.64,5.7h1v-3.44a1.35,1.35,0,0,1,.08-.5,1.41,1.41,0,0,1,1.28-1c.79,0,1.19.66,1.19,1.56v3.42h1v-3.52a2,2,0,0,1,.08-.52,1.36,1.36,0,0,1,1.23-.94c.83,0,1.23.66,1.23,1.75v3.23h1v-3.36c0-2-1.11-2.47-1.87-2.47a2,2,0,0,0-1.26.4,2.59,2.59,0,0,0-.63.74h0a1.69,1.69,0,0,0-1.62-1.14,2,2,0,0,0-1.78,1h0l-.05-.92h-.9c0,.47,0,1,0,1.54v4.16Zm13.88,0a8.14,8.14,0,0,1-.09-1.37v-2.13c0-1.14-.42-2.33-2.17-2.33a3.51,3.51,0,0,0-1.87.51l.24.68a2.81,2.81,0,0,1,1.48-.42,1.17,1.17,0,0,1,1.3,1.32v.11c-2.2,0-3.43.74-3.43,2.12a1.63,1.63,0,0,0,1.74,1.64,2.1,2.1,0,0,0,1.74-.85h0l.08.72ZM297.62,765a1,1,0,0,1-.06.33,1.42,1.42,0,0,1-1.38.95.91.91,0,0,1-1-1c0-1.1,1.28-1.3,2.41-1.28v1Zm2.88-5.14v1.36h-.88V762h.88v3.11a2.08,2.08,0,0,0,.4,1.48,1.45,1.45,0,0,0,1.12.45,2.28,2.28,0,0,0,.91-.16l0-.77a2.58,2.58,0,0,1-.6.07c-.58,0-.78-.4-.78-1.11V762H303v-.79h-1.48V759.6l-1,.27Zm7.73,7.06a8.07,8.07,0,0,1-.1-1.37v-2.13c0-1.14-.42-2.33-2.16-2.33a3.49,3.49,0,0,0-1.87.51l.23.68a2.85,2.85,0,0,1,1.49-.42,1.17,1.17,0,0,1,1.29,1.32v.11c-2.2,0-3.42.74-3.42,2.12a1.62,1.62,0,0,0,1.74,1.64,2.12,2.12,0,0,0,1.74-.85h0l.09.72Zm-1.1-1.92a1,1,0,0,1-.06.33,1.41,1.41,0,0,1-1.37.95.92.92,0,0,1-1-1c0-1.1,1.28-1.3,2.41-1.28v1Zm2-3.78L311,764l-2,2.91h1.14l.83-1.29c.21-.34.41-.63.6-1h0c.2.34.39.65.61,1l.84,1.29h1.17l-2-2.94,1.95-2.76h-1.12l-.8,1.21c-.19.31-.38.6-.57.95h0c-.19-.32-.37-.62-.58-.93l-.81-1.23Zm10.18,5.7a8.14,8.14,0,0,1-.09-1.37v-2.13c0-1.14-.42-2.33-2.17-2.33a3.51,3.51,0,0,0-1.87.51l.24.68a2.81,2.81,0,0,1,1.48-.42,1.17,1.17,0,0,1,1.3,1.32v.11c-2.2,0-3.43.74-3.43,2.12a1.63,1.63,0,0,0,1.74,1.64,2.1,2.1,0,0,0,1.74-.85h0l.08.72ZM318.2,765a1,1,0,0,1-.06.33,1.42,1.42,0,0,1-1.38.95.91.91,0,0,1-1-1c0-1.1,1.28-1.3,2.41-1.28v1Zm6.53.93a3,3,0,0,1-1.27.28,2.15,2.15,0,0,1,0-4.28,2.41,2.41,0,0,1,1.2.27l.24-.8a3.53,3.53,0,0,0-1.44-.3,2.9,2.9,0,0,0-3.06,3,2.72,2.72,0,0,0,2.84,2.92,4,4,0,0,0,1.63-.33l-.17-.78Zm5.24,0a2.91,2.91,0,0,1-1.27.28,2.14,2.14,0,0,1,0-4.28,2.44,2.44,0,0,1,1.2.27l.23-.8a3.44,3.44,0,0,0-1.43-.3,2.9,2.9,0,0,0-3.06,3,2.71,2.71,0,0,0,2.83,2.92,4,4,0,0,0,1.64-.33L330,766Zm3.78-4.84a2.79,2.79,0,0,0-2.83,3,2.71,2.71,0,0,0,2.73,2.93,2.79,2.79,0,0,0,2.84-3,2.7,2.7,0,0,0-2.74-2.93Zm0,.78c1.23,0,1.71,1.22,1.71,2.19,0,1.28-.74,2.21-1.73,2.21s-1.73-.94-1.73-2.19c0-1.08.53-2.21,1.75-2.21Zm8.81-.65h-1v3.5a1.56,1.56,0,0,1-.1.53,1.51,1.51,0,0,1-1.36.94c-.94,0-1.27-.73-1.27-1.81v-3.16h-1v3.33c0,2,1.07,2.5,2,2.5a2.14,2.14,0,0,0,1.88-1.06h0l.06.93h.92c0-.45-.05-1-.05-1.56v-4.14Zm1.69,5.7h1V763.5a1.43,1.43,0,0,1,.07-.48,1.46,1.46,0,0,1,1.39-1.06c1,0,1.31.77,1.31,1.68v3.29h1v-3.39c0-2-1.22-2.44-2-2.44a2.11,2.11,0,0,0-1.88,1.07h0l-.06-.94h-.91c0,.47,0,1,0,1.54v4.16Zm6.74-7.06v1.36h-.88V762H351v3.11a2.13,2.13,0,0,0,.4,1.48,1.46,1.46,0,0,0,1.12.45,2.34,2.34,0,0,0,.92-.16l0-.77a2.58,2.58,0,0,1-.6.07c-.58,0-.78-.4-.78-1.11V762h1.48v-.79H352V759.6l-1,.27Zm4.67,7.06v-5.7h-1v5.7Zm-.52-7.94a.63.63,0,0,0-.65.64.65.65,0,1,0,.65-.64Zm2.21,7.94h1V763.5a1.43,1.43,0,0,1,.07-.48,1.46,1.46,0,0,1,1.39-1.06c1,0,1.31.77,1.31,1.68v3.29h1v-3.39c0-2-1.22-2.44-2-2.44a2.11,2.11,0,0,0-1.88,1.07h0l-.06-.94h-.91c0,.47,0,1,0,1.54v4.16Zm10.34-2.43a1.81,1.81,0,0,1-.08.56,1.51,1.51,0,0,1-1.44,1.05c-1.11,0-1.68-.92-1.68-2,0-1.32.71-2.16,1.7-2.16a1.49,1.49,0,0,1,1.44,1.1,1.38,1.38,0,0,1,.06.47v1Zm1.07-3.27h-.9l-.05.86h0a1.9,1.9,0,0,0-1.78-1,2.74,2.74,0,0,0-2.57,3,2.55,2.55,0,0,0,2.43,2.77,2,2,0,0,0,1.81-.95h0v.64c0,1.43-.77,2-1.83,2a3.23,3.23,0,0,1-1.67-.44l-.26.78a3.63,3.63,0,0,0,1.89.48,3,3,0,0,0,2.07-.69,3.22,3.22,0,0,0,.81-2.6v-3.3c0-.7,0-1.16.06-1.57Z" style="fill: #fff"/>
        <path d="M370.76,767.06a.69.69,0,0,0,.71-.75.69.69,0,0,0-.69-.74.75.75,0,0,0,0,1.49Zm5.87-1.12a2.91,2.91,0,0,1-1.27.28,2.15,2.15,0,0,1,0-4.28,2.44,2.44,0,0,1,1.2.27l.23-.8a3.44,3.44,0,0,0-1.43-.3,2.9,2.9,0,0,0-3.06,3,2.72,2.72,0,0,0,2.83,2.92,4,4,0,0,0,1.64-.33l-.18-.78Zm3.8-4.84a2.78,2.78,0,0,0-2.82,3,2.71,2.71,0,0,0,2.73,2.93,2.79,2.79,0,0,0,2.83-3,2.69,2.69,0,0,0-2.74-2.93Zm0,.78c1.22,0,1.7,1.22,1.7,2.19,0,1.28-.74,2.21-1.73,2.21s-1.73-.94-1.73-2.19c0-1.08.53-2.21,1.76-2.21Zm4.07,5h1v-3.44a1.35,1.35,0,0,1,.08-.5,1.42,1.42,0,0,1,1.28-1c.79,0,1.19.66,1.19,1.56v3.42h1v-3.52a2,2,0,0,1,.08-.52,1.36,1.36,0,0,1,1.23-.94c.83,0,1.23.66,1.23,1.75v3.23h1v-3.36c0-2-1.12-2.47-1.88-2.47a1.91,1.91,0,0,0-1.25.4,2.47,2.47,0,0,0-.64.74h0a1.69,1.69,0,0,0-1.61-1.14,2,2,0,0,0-1.79,1h0l-.05-.92h-.9c0,.47.05,1,.05,1.54v4.16Z" style="fill: #fff"/>
        <path d="M947.86,400.74v-135h81s72-9,72,135-63,144-63,144h-90v-144Z" style="fill: #307d8f"/>
        <path d="M839.36,76.09v36m-54,18h36m-36,576.65h36m18,54v-36m837.5-648.65v36m54,18h-36m36,576.65h-36m-18,54v-36" style="fill: none;stroke: #000"/>
        <polygon points="839.36 527.24 947.36 545.24 947.36 266.24 839.36 284.24 839.36 527.24 839.36 527.24" style="fill: #307d8f"/>
        <polygon points="1559.86 265.74 1559.86 544.74 1676.86 526.74 1676.86 283.74 1559.86 265.74 1559.86 265.74" style="fill: #307d8f"/>
        <path d="M1379.86,130.74h-252c-189,0-180,135-180,135h612c-27-153-180-135-180-135Z" style="fill: #307d8f"/>
        <polygon points="965.86 706.74 1550.86 706.74 1559.86 544.74 947.86 544.74 965.86 706.74 965.86 706.74" style="fill: #307d8f"/>
        <text transform="translate(1469.36 302.24)" style="font-size: 11.999999046325684px;fill: #010101;font-family: AvenirNextCondensed-Regular, Avenir Next Condensed;letter-spacing: -0.03597005494197646em">Po</text>
        <text transform="translate(1479.73 302.24)" style="font-size: 11.999999046325684px;fill: #010101;font-family: AvenirNextCondensed-Regular, Avenir Next Condensed">stage will be</text>
        <text transform="translate(1422.56 316.64)" style="font-size: 11.999999046325684px;fill: #010101;font-family: AvenirNextCondensed-Regular, Avenir Next Condensed;letter-spacing: 2.815023010176262em"><tspan xml:space="preserve">  </tspan></text>
        <text transform="translate(1460.77 316.64)" style="font-size: 11.999999046325684px;fill: #010101;font-family: AvenirNextCondensed-Regular, Avenir Next Condensed"><tspan xml:space="preserve">           paid by</tspan></text>
        <text transform="translate(1413.49 331.04)" style="font-size: 11.999999046325684px;fill: #010101;font-family: AvenirNextCondensed-Regular, Avenir Next Condensed"><tspan xml:space="preserve">             </tspan></text>
        <text transform="translate(1449.48 331.04)" style="font-size: 11.999999046325684px;fill: #010101;font-family: AvenirNextCondensed-Regular, Avenir Next Condensed"> </text>
        <text transform="translate(1485.48 331.04)" style="font-size: 11.999999046325684px;fill: #010101;font-family: AvenirNextCondensed-Regular, Avenir Next Condensed">addresse.</text>
        <text transform="translate(1408.13 345.45)" style="font-size: 11.999999046325684px;fill: #010101;font-family: AvenirNextCondensed-Regular, Avenir Next Condensed;letter-spacing: 2.815023010176262em"><tspan xml:space="preserve">  </tspan></text>
        <text transform="translate(1446.36 345.45)" style="font-size: 11.999999046325684px;fill: #010101;font-family: AvenirNextCondensed-Regular, Avenir Next Condensed"><tspan xml:space="preserve">            F</tspan></text>
        <text transform="translate(1477.46 345.45)" style="font-size: 11.999999046325684px;fill: #010101;font-family: AvenirNextCondensed-Regular, Avenir Next Condensed">or posting in</text>
        <text transform="translate(1469.36 359.84)" style="font-size: 11.999999046325684px;fill: #010101;font-family: AvenirNextCondensed-Regular, Avenir Next Condensed"><tspan xml:space="preserve">        USA</tspan></text>
        <text transform="translate(1504.28 359.84)" style="font-size: 11.999999046325684px;fill: #010101;font-family: AvenirNextCondensed-Regular, Avenir Next Condensed"><tspan xml:space="preserve"> only</tspan></text>
        <polygon points="1541.36 365.24 1460.36 365.24 1460.36 284.24 1541.36 284.24 1541.36 365.24 1541.36 365.24" style="fill: none;stroke: #010101;stroke-miterlimit: 10"/>
        <text transform="matrix(1, 0, 0, -1, 1172.72, 202.9)" style="font-size: 11.760000228881836px;fill: #fff;font-family: Roboto-Bold, Roboto;font-weight: 700">A </text>
        <path d="M1189,202.9v.86h-3.43v0l.61.56c1.61,1.55,2.63,2.69,2.63,4.11a2.15,2.15,0,0,1-2.34,2.22,3.33,3.33,0,0,1-2.16-.78l.33-.73a2.57,2.57,0,0,0,1.62.65,1.37,1.37,0,0,0,1.52-1.49c0-1.16-.91-2.14-2.85-4l-.81-.79v-.64Zm5.52,7.77a4.73,4.73,0,0,1-.76-.06,4.18,4.18,0,0,1-2.44-1.13A4.78,4.78,0,0,1,1190,206c0-2,1.07-3.26,2.71-3.26a2.56,2.56,0,0,1,2.54,2.7,2.33,2.33,0,0,1-4.15,1.59h0a3.11,3.11,0,0,0,2.66,2.71,3.67,3.67,0,0,0,.78,0v.85Zm-1.79-7.1c-1.08,0-1.67.93-1.68,2.19a.89.89,0,0,0,.11.46,1.7,1.7,0,0,0,1.49.94,1.55,1.55,0,0,0,1.57-1.75c0-1.09-.6-1.84-1.49-1.84Zm3.6,7v-.86H1200v0l-3.32-6.77h1.07l3.33,7v.68Zm8.36-7.78a2.36,2.36,0,0,1,2.6,2.23,2.11,2.11,0,0,1-1.54,2v0a2,2,0,0,1,1.26,1.79,2,2,0,0,1-2.23,1.88,2.14,2.14,0,0,1-2.36-2,1.89,1.89,0,0,1,1.21-1.71v0a2.19,2.19,0,0,1-1.52-2c0-1.11,1-2.07,2.57-2.07Zm0,.76a1.41,1.41,0,0,0-1.53,1.46,1.65,1.65,0,0,0,1.38,1.57c1-.29,1.68-.74,1.68-1.67a1.38,1.38,0,0,0-1.53-1.36Zm0,6.41a1.2,1.2,0,0,0,1.3-1.25,1.52,1.52,0,0,0-1.17-1.39c-.88.24-1.46.65-1.46,1.42a1.22,1.22,0,0,0,1.33,1.22Z" style="fill: #fff"/>
        <path d="M1218,202.9h1l-.5,7.93h-1.3l-1.42-3.83c-.35-1-.63-1.87-.83-2.67h0c-.2.82-.47,1.69-.8,2.67l-1.35,3.83h-1.31l-.55-7.93h1l.21,3.4c.07,1.19.13,2.52.15,3.51h0c.22-.94.54-2,.91-3.08l1.29-3.78h.77l1.4,3.85c.4,1.08.73,2.08,1,3h0c0-1,.06-2.32.12-3.42l.2-3.49Zm3.71,0v5.7h-1v-5.7Zm-.52,7.94a.63.63,0,0,1-.65-.64.65.65,0,1,1,.65.64Z" style="fill: #fff"/>
        <path d="M1223.39,202.9h1v8.36h-1V202.9Zm7.35,2.66a4.64,4.64,0,0,1,0,.48,2.41,2.41,0,0,1-2.35,2.69c-1.66,0-2.67-1.36-2.67-3.07a2.66,2.66,0,0,1,2.8-2.89,4.42,4.42,0,0,1,1.89.37l-.17.74a3.86,3.86,0,0,0-1.58-.29,1.82,1.82,0,0,0-2,2h4Zm-4,.74a1.72,1.72,0,0,0,1.59,1.69,1.48,1.48,0,0,0,1.43-1.69Zm4.9-3.13a3.31,3.31,0,0,1,1.6-.4c1.36,0,2.13.72,2.13,1.72,0,.85-.5,1.34-1.49,1.72-.74.28-1.08.49-1.08,1s.34.78,1,.78a2.19,2.19,0,0,0,1.16-.33l.26.75a2.82,2.82,0,0,1-1.4.36,1.76,1.76,0,0,1-2-1.67c0-.69.48-1.25,1.5-1.62.77-.28,1.06-.55,1.06-1s-.35-.85-1.1-.85a2.74,2.74,0,0,0-1.37.41l-.26-.79Zm11.68,2.23.85-2.5h1.09l-2.7,7.93h-1.24l-2.69-7.93h1.06l.82,2.5Zm-2.6.8.78,2.29c.15.48.28,1,.4,1.44h0c.12-.46.24-.93.41-1.45l.78-2.28Z" style="fill: #fff"/>
        <path d="M1245.45,208.6l2.16-5.7h1l2.24,5.7h-1.09l-1.1-3.2c-.19-.52-.36-1-.49-1.46h0a15.09,15.09,0,0,1-.46,1.46l-1.12,3.2Zm10.88-3a4.64,4.64,0,0,1,0,.48,2.41,2.41,0,0,1-2.35,2.69c-1.66,0-2.67-1.36-2.67-3.07a2.66,2.66,0,0,1,2.8-2.89,4.45,4.45,0,0,1,1.89.37l-.17.74a3.86,3.86,0,0,0-1.58-.29,1.81,1.81,0,0,0-2,2h4Zm-4,.74a1.72,1.72,0,0,0,1.59,1.69,1.48,1.48,0,0,0,1.43-1.69Zm5.69-3.53a.75.75,0,1,1-.69.75.69.69,0,0,1,.69-.75Z" style="fill: #fff"/>
        <path d="M1265.62,211c-2.12,0-3.69-1.64-3.69-4.16s1.48-4,3.57-4,3.68,1.45,3.68,4.18c0,2.35-1.4,4-3.56,4Zm0-.83c1.71,0,2.53-1.65,2.53-3.23,0-1.8-.92-3.29-2.54-3.29s-2.53,1.52-2.53,3.21.85,3.31,2.54,3.31Zm4.91-7.23h1v3a3.32,3.32,0,0,0,0,.48,1.46,1.46,0,0,0,1.39,1.33,1.94,1.94,0,0,0,.36,0v1a1,1,0,0,1-.3,0,1.71,1.71,0,0,1-1.57-1.25h0l0,1.12h-.9c0-.53,0-1.11,0-1.78V202.9Zm3.86,0h1v8.36h-1V202.9Zm6.88,0a8.14,8.14,0,0,0-.09,1.37v2.13c0,1.14-.43,2.33-2.17,2.33a3.51,3.51,0,0,1-1.87-.51l.24-.68a2.81,2.81,0,0,0,1.48.42,1.17,1.17,0,0,0,1.29-1.32v-.11c-2.2,0-3.42-.74-3.42-2.12a1.63,1.63,0,0,1,1.74-1.64,2.1,2.1,0,0,1,1.74.85h0l.08-.72Zm-1.09,1.92a1.36,1.36,0,0,0-.06-.33,1.43,1.43,0,0,0-1.38-1,.91.91,0,0,0-1,1c0,1.1,1.28,1.3,2.41,1.28v-1Zm2.68-1.92h1v3.43a1.73,1.73,0,0,0,.07.48,1.48,1.48,0,0,0,1.39,1.06c1,0,1.32-.77,1.32-1.68V202.9h1v3.39c0,2-1.23,2.44-2,2.44a2.11,2.11,0,0,1-1.88-1.07h0l-.06.94h-.92c0-.47,0-1,0-1.54V202.9Zm10.42,2.39a1.68,1.68,0,0,0,0-.45,1.56,1.56,0,0,0-1.52-1.23c-1.11,0-1.68.95-1.68,2.11s.64,2.2,1.71,2.2a1.53,1.53,0,0,0,1.49-1.2,1.65,1.65,0,0,0,0-.44v-1Zm1,6h-1v-3.4h0a1.91,1.91,0,0,1-1.72.87c-1.39,0-2.57-1.17-2.55-3.06,0-1.73,1-2.9,2.44-2.9a2.11,2.11,0,0,1,1.93,1.12h0l0-1h.93c0,.39,0,1,0,1.47Z" style="fill: #fff"/>
        <path d="M1298.4,208.73a2.78,2.78,0,0,1-2.82-3,2.71,2.71,0,0,1,2.73-2.93,2.78,2.78,0,0,1,2.83,3,2.69,2.69,0,0,1-2.74,2.93Zm0-.78c1.22,0,1.71-1.22,1.71-2.19,0-1.28-.75-2.21-1.73-2.21s-1.73.94-1.73,2.19c0,1.08.53,2.21,1.75,2.21Zm3.86-6.42a14.88,14.88,0,0,1,1.11,2.86l-1.15-.12a18.94,18.94,0,0,0-.69-2.81l.73.07Z" style="fill: #fff"/>
        <path d="M1307.13,202.9h1v3.59h3v.85h-3V210h3.25v.86h-4.27V202.9Zm5.72,0h4.42v.86h-3.39v7.07h-1V202.9Zm7.65.39a3.84,3.84,0,0,1,2-.52c1.83,0,2.78,1.07,2.78,2.3a2,2,0,0,1-1.7,2v0a1.9,1.9,0,0,1,1.41,1.8c0,.93-.68,1.82-2.19,1.82a3.6,3.6,0,0,1-2-.59l.27-.75a2.86,2.86,0,0,0,1.53.5c1,0,1.34-.54,1.34-1.15,0-.9-1-1.29-1.7-1.29h-.58v-.78h.58c1,0,2-.45,2-1.53,0-.63-.4-1.48-1.73-1.48a3.44,3.44,0,0,0-1.69.48l-.28-.8Zm11-.39v.86H1328v0l.62.56c1.61,1.55,2.63,2.69,2.63,4.11a2.15,2.15,0,0,1-2.34,2.22,3.36,3.36,0,0,1-2.17-.78l.33-.73a2.59,2.59,0,0,0,1.63.65,1.37,1.37,0,0,0,1.52-1.49c0-1.16-.91-2.14-2.85-4l-.81-.79v-.64Zm1.11.39a3.87,3.87,0,0,1,2-.52c1.84,0,2.79,1.07,2.79,2.3a2,2,0,0,1-1.71,2v0a1.89,1.89,0,0,1,1.42,1.8c0,.93-.69,1.82-2.19,1.82a3.57,3.57,0,0,1-2-.59l.27-.75a2.86,2.86,0,0,0,1.53.5c.95,0,1.34-.54,1.34-1.15,0-.9-1-1.29-1.71-1.29h-.57v-.78h.57c1,0,2-.45,2-1.53,0-.63-.4-1.48-1.73-1.48a3.4,3.4,0,0,0-1.69.48l-.29-.8Zm11-.39v.86h-3.43v0l.61.56c1.61,1.55,2.64,2.69,2.64,4.11a2.16,2.16,0,0,1-2.35,2.22,3.33,3.33,0,0,1-2.16-.78l.33-.73a2.57,2.57,0,0,0,1.62.65,1.37,1.37,0,0,0,1.52-1.49c0-1.16-.91-2.14-2.85-4l-.81-.79v-.64Zm3.4,0h1v7.65H1347l-1.67-.89.2-.79,1.33.72h0V202.9Z" style="fill: #fff"/>
        <text transform="matrix(1, 0, 0, -1, 1172.72, 188.79)" style="font-size: 11.760000228881836px;fill: #fff;font-family: Roboto-Bold, Roboto;font-weight: 700;letter-spacing: -0.0009964923275443032em">W </text>
        <path d="M1186.14,194.48l1.72-5.69h.94l.92,2.71a19,19,0,0,1,.52,1.88h0a18.3,18.3,0,0,1,.5-1.87l.88-2.72h.94l1.83,5.69h-1l-.81-2.85c-.19-.67-.34-1.27-.45-1.85h0c-.13.58-.3,1.18-.51,1.86l-.88,2.84h-.87l-.93-2.9c-.19-.61-.38-1.22-.51-1.8h0c-.11.59-.26,1.18-.43,1.81l-.76,2.89Zm8.8,0,1.71-5.69h.95l.91,2.71a16.59,16.59,0,0,1,.52,1.88h0a18.3,18.3,0,0,1,.5-1.87l.87-2.72h.94l1.84,5.69h-1l-.81-2.85a18,18,0,0,1-.44-1.85h0c-.13.58-.29,1.18-.5,1.86l-.89,2.84h-.87l-.93-2.9c-.18-.61-.37-1.22-.5-1.8h0c-.1.59-.26,1.18-.42,1.81l-.77,2.89Zm8.79,0,1.72-5.69h.94l.92,2.71a16.59,16.59,0,0,1,.52,1.88h0a18.32,18.32,0,0,1,.51-1.87l.87-2.72h.94l1.83,5.69h-1l-.81-2.85c-.19-.67-.34-1.27-.45-1.85h0c-.13.58-.3,1.18-.51,1.86l-.88,2.84h-.87l-.93-2.9c-.19-.61-.38-1.22-.51-1.8h0c-.11.59-.26,1.18-.42,1.81l-.77,2.89Z" style="fill: #fff"/>
        <path d="M1213,188.66a.69.69,0,0,1,.71.74.68.68,0,0,1-.69.74.74.74,0,0,1,0-1.48Zm1.58.4a3.31,3.31,0,0,1,1.6-.4c1.35,0,2.13.72,2.13,1.72,0,.85-.51,1.34-1.5,1.72-.74.28-1.08.49-1.08,1s.34.78,1,.78a2.23,2.23,0,0,0,1.16-.33l.26.75a2.82,2.82,0,0,1-1.4.35,1.76,1.76,0,0,1-2-1.67c0-.68.49-1.24,1.51-1.61.76-.28,1.06-.55,1.06-1.05s-.35-.84-1.11-.84a2.7,2.7,0,0,0-1.36.41l-.26-.79Zm6.08-.27v5.69h-1v-5.69Zm-.52,7.94a.63.63,0,0,1-.64-.65.61.61,0,0,1,.62-.63.64.64,0,1,1,0,1.28Zm6.06-5.52a1.79,1.79,0,0,0-.08-.55,1.52,1.52,0,0,0-1.44-1.06c-1.12,0-1.68.93-1.68,2.05,0,1.32.71,2.15,1.69,2.15a1.49,1.49,0,0,0,1.45-1.09,1.41,1.41,0,0,0,.06-.47v-1Zm1.07,3.27h-.91l0-.85h0a1.87,1.87,0,0,1-1.77,1,2.73,2.73,0,0,1-2.57-3,2.55,2.55,0,0,1,2.43-2.78,2,2,0,0,1,1.81,1h0v-.64c0-1.43-.77-2-1.83-2a3.23,3.23,0,0,0-1.67.45l-.26-.79a3.73,3.73,0,0,1,1.89-.47,3,3,0,0,1,2.07.68,3.29,3.29,0,0,1,.81,2.6v3.31c0,.69,0,1.15.06,1.56Zm1.66-5.69h1v3.44a1.38,1.38,0,0,0,.08.5,1.43,1.43,0,0,0,1.28,1c.79,0,1.19-.66,1.19-1.57v-3.41h1v3.52a1.66,1.66,0,0,0,.09.52,1.33,1.33,0,0,0,1.22.94c.83,0,1.23-.66,1.23-1.76v-3.22h1v3.35c0,2-1.12,2.47-1.87,2.47a1.92,1.92,0,0,1-1.26-.4,2.24,2.24,0,0,1-.64-.74h0a1.69,1.69,0,0,1-1.61,1.14,2,2,0,0,1-1.79-1h0l0,.91h-.91c0-.47,0-.95,0-1.54v-4.15Zm13.89,0a8.07,8.07,0,0,0-.1,1.37v2.12c0,1.15-.42,2.33-2.16,2.33a3.58,3.58,0,0,1-1.87-.5l.23-.68a3,3,0,0,0,1.49.42,1.17,1.17,0,0,0,1.29-1.32v-.12c-2.2,0-3.42-.74-3.42-2.11a1.62,1.62,0,0,1,1.74-1.64,2.12,2.12,0,0,1,1.74.85h0l.09-.72Zm-1.1,1.92a.92.92,0,0,0-.06-.33,1.41,1.41,0,0,0-1.37-.95.91.91,0,0,0-1,1c0,1.11,1.28,1.31,2.41,1.29v-1Zm2.89,5.14v-1.37h-.88v-.78h.88v-3.11a2.11,2.11,0,0,1,.4-1.48,1.46,1.46,0,0,1,1.12-.45,2.57,2.57,0,0,1,.92.15l0,.78a2.58,2.58,0,0,0-.6-.07c-.57,0-.77.4-.77,1.11v3.07h1.48v.78h-1.48v1.64l-1-.27Zm7.74-7.06a8.14,8.14,0,0,0-.09,1.37v2.12c0,1.15-.42,2.33-2.16,2.33a3.64,3.64,0,0,1-1.88-.5l.24-.68a2.91,2.91,0,0,0,1.48.42,1.18,1.18,0,0,0,1.3-1.32v-.12c-2.2,0-3.43-.74-3.43-2.11a1.62,1.62,0,0,1,1.74-1.64,2.12,2.12,0,0,1,1.75.85h0l.08-.72Zm-1.09,1.92a.92.92,0,0,0-.06-.33,1.41,1.41,0,0,0-1.38-.95.91.91,0,0,0-1,1c0,1.11,1.28,1.31,2.41,1.29v-1Zm2,3.77,1.93-2.78-2-2.91h1.14l.83,1.28c.21.34.41.64.6,1h0c.2-.34.39-.66.61-1l.84-1.28h1.17l-2,2.94,1.94,2.75h-1.11l-.8-1.21c-.19-.3-.38-.6-.57-.94h0c-.19.32-.37.61-.58.93l-.81,1.22Zm10.19-5.69a8.14,8.14,0,0,0-.09,1.37v2.12c0,1.15-.42,2.33-2.17,2.33a3.6,3.6,0,0,1-1.87-.5l.24-.68a2.91,2.91,0,0,0,1.48.42,1.18,1.18,0,0,0,1.3-1.32v-.12c-2.2,0-3.43-.74-3.43-2.11a1.62,1.62,0,0,1,1.74-1.64,2.09,2.09,0,0,1,1.74.85h0l.08-.72Zm-1.09,1.92a.92.92,0,0,0-.06-.33,1.41,1.41,0,0,0-1.38-.95.9.9,0,0,0-1,1c0,1.11,1.28,1.31,2.41,1.29v-1Zm6.54-.93a3,3,0,0,0-1.27-.28,2,2,0,0,0-2,2.13,2,2,0,0,0,2,2.15,2.38,2.38,0,0,0,1.2-.27l.24.8a3.51,3.51,0,0,1-1.44.29,2.89,2.89,0,0,1-3.06-3,2.72,2.72,0,0,1,2.84-2.92,4,4,0,0,1,1.63.33l-.17.78Zm5.26,0a3,3,0,0,0-1.28-.28,2.15,2.15,0,0,0,0,4.28,2.44,2.44,0,0,0,1.2-.27l.24.8a3.55,3.55,0,0,1-1.44.29,2.89,2.89,0,0,1-3.06-3,2.72,2.72,0,0,1,2.84-2.92,4,4,0,0,1,1.63.33l-.17.78Zm3.78,4.83a2.77,2.77,0,0,1-2.82-3,2.71,2.71,0,0,1,2.73-2.93,2.78,2.78,0,0,1,2.83,3,2.69,2.69,0,0,1-2.74,2.93Zm0-.77c1.22,0,1.7-1.23,1.7-2.19,0-1.28-.74-2.21-1.73-2.21s-1.73.94-1.73,2.19c0,1.08.53,2.21,1.76,2.21Zm8.82.64h-1V191a1.47,1.47,0,0,0-.09-.53,1.5,1.5,0,0,0-1.37-.94c-.94,0-1.27.73-1.27,1.81v3.15h-1v-3.32c0-2,1.07-2.5,2-2.5a2.14,2.14,0,0,1,1.89,1.06h0l.06-.93h.92c0,.45,0,1,0,1.55v4.14Zm1.7-5.69h1v3.42a1.45,1.45,0,0,0,.07.49,1.47,1.47,0,0,0,1.39,1.06c1,0,1.31-.77,1.31-1.69v-3.28h1v3.39c0,2-1.22,2.43-2,2.43a2.14,2.14,0,0,1-1.89-1.07h0l-.06.94h-.92c0-.47,0-.95,0-1.54v-4.15Zm6.75,7.06v-1.37h-.88v-.78h.88v-3.11a2.11,2.11,0,0,1,.4-1.48,1.46,1.46,0,0,1,1.12-.45,2.57,2.57,0,0,1,.92.15l-.05.78a2.58,2.58,0,0,0-.6-.07c-.58,0-.78.4-.78,1.11v3.07h1.49v.78h-1.49v1.64l-1-.27Zm4.68-7.06v5.69h-1v-5.69Zm-.51,7.94a.63.63,0,0,1-.65-.65.64.64,0,1,1,.65.65Zm2.22-7.94h1v3.42a1.75,1.75,0,0,0,.07.49,1.49,1.49,0,0,0,1.39,1.06c1,0,1.32-.77,1.32-1.69v-3.28h1v3.39c0,2-1.22,2.43-2,2.43a2.11,2.11,0,0,1-1.88-1.07h0l-.06.94h-.92c0-.47,0-.95,0-1.54v-4.15Zm10.35,2.42a2.15,2.15,0,0,0-.08-.55,1.52,1.52,0,0,0-1.44-1.06c-1.12,0-1.68.93-1.68,2.05,0,1.32.7,2.15,1.69,2.15a1.5,1.5,0,0,0,1.45-1.09,1.41,1.41,0,0,0,.06-.47v-1Zm1.07,3.27h-.91l0-.85h0a1.89,1.89,0,0,1-1.77,1,2.73,2.73,0,0,1-2.57-3,2.54,2.54,0,0,1,2.42-2.78,2,2,0,0,1,1.82,1h0v-.64c0-1.43-.78-2-1.84-2a3.29,3.29,0,0,0-1.67.45l-.26-.79a3.77,3.77,0,0,1,1.9-.47,3,3,0,0,1,2.07.68,3.29,3.29,0,0,1,.81,2.6v3.31c0,.69,0,1.15.06,1.56Z" style="fill: #fff"/>
        <path d="M1314.85,188.66a.69.69,0,0,1,.71.74.7.7,0,1,1-1.4,0,.69.69,0,0,1,.69-.74Zm5.87,1.12a2.91,2.91,0,0,0-1.27-.28,2,2,0,0,0-2,2.13,2,2,0,0,0,2,2.15,2.44,2.44,0,0,0,1.2-.27l.23.8a3.46,3.46,0,0,1-1.43.29,2.89,2.89,0,0,1-3.06-3,2.72,2.72,0,0,1,2.83-2.92,4,4,0,0,1,1.64.33l-.18.78Zm3.8,4.83a2.77,2.77,0,0,1-2.82-3,2.71,2.71,0,0,1,2.73-2.93,2.78,2.78,0,0,1,2.83,3,2.69,2.69,0,0,1-2.74,2.93Zm0-.77c1.22,0,1.7-1.23,1.7-2.19,0-1.28-.74-2.21-1.73-2.21s-1.73.94-1.73,2.19c0,1.08.53,2.21,1.76,2.21Zm4.06-5.05h1v3.44a1.38,1.38,0,0,0,.08.5,1.41,1.41,0,0,0,1.28,1c.79,0,1.19-.66,1.19-1.57v-3.41h1v3.52a2,2,0,0,0,.08.52,1.36,1.36,0,0,0,1.23.94c.83,0,1.23-.66,1.23-1.76v-3.22h1v3.35c0,2-1.11,2.47-1.87,2.47a2,2,0,0,1-1.26-.4,2.34,2.34,0,0,1-.63-.74h0a1.69,1.69,0,0,1-1.62,1.14,1.94,1.94,0,0,1-1.78-1h0l0,.91h-.9c0-.47,0-.95,0-1.54v-4.15Z" style="fill: #fff"/>
        <text transform="translate(1011.83 403.17)" style="font-size: 5.759999752044678px;fill: #fff;font-family: EuphemiaUCAS, Euphemia UCAS"> </text>
        <text transform="translate(1014.73 403.17)" style="font-size: 3.8399994373321533px;fill: #fff;font-family: EuphemiaUCAS, Euphemia UCAS"> </text>
        <text transform="translate(1016.66 403.17)" style="font-size: 3.8399994373321533px;fill: #fff;font-family: EuphemiaUCAS, Euphemia UCAS"> </text>
        <text transform="translate(1018.59 403.17)" style="font-size: 15.359997749328613px;fill: #fff;font-family: Arial-Black, Arial Black;font-weight: 800">SIGM</text>
        <text transform="translate(1062.95 403.17)" style="font-size: 15.359997749328613px;fill: #fff;font-family: Arial-Black, Arial Black;font-weight: 800">A</text>
        <text transform="translate(1020.34 394.66)" style="font-size: 11.519999504089355px;fill: #fff;font-family: MyriadPro-Regular, Myriad Pro"> </text>
        <text transform="translate(1022.78 394.66)" style="font-size: 11.519999504089355px;fill: #fff;font-family: MyriadPro-Regular, Myriad Pro"> </text>
        <text transform="translate(1020.34 411.95)" style="font-size: 7.679998874664307px;fill: #fff;font-family: Oswald-Light, Oswald;font-weight: 300">T</text>
        <text transform="translate(1023.33 411.95)" style="font-size: 7.679998874664307px;fill: #fff;font-family: Oswald-Light, Oswald;font-weight: 300">AX &amp; ACCOUNTING</text>
        <text transform="translate(1074.63 411.95)" style="font-size: 14.399999618530273px;fill: #fff;font-family: Oswald-Light, Oswald;font-weight: 300"> </text>
        <path d="M991.41,378l42,.34-3.76,11.42h-1s1.49-9.41-13.3-9.41h-13.1l12.85,18.48-22.33,23.19h21.84s8.9,1.34,11.49-8.74l1,.34-4.58,15.45H984.8l-.17-1.34,23.47-24.19-16.81-24.53.12-1Z" style="fill: #fff"/>
      </g>
    </g>
  </g>
</svg>
