<?xml version="1.0" encoding="utf-8"?>
<!-- Generator: Adobe Illustrator 23.0.3, SVG Export Plug-In . SVG Version: 6.00 Build 0)  -->
<svg version="1.1" id="Layer_1" xmlns="http://www.w3.org/2000/svg" xmlns:xlink="http://www.w3.org/1999/xlink" x="0px" y="0px"
	 viewBox="0 0 30 31" style="enable-background:new 0 0 30 31;" xml:space="preserve">
<style type="text/css">
	.st0{fill:#575757;}
</style>
<g>
	<path class="st0" d="M6.09,13.88c0.39,0,0.72,0.14,1,0.41s0.41,0.61,0.41,1v14.06c0,0.39-0.14,0.72-0.41,1s-0.61,0.41-1,0.41H1.41
		c-0.39,0-0.72-0.14-1-0.41S0,29.73,0,29.34V15.28c0-0.39,0.14-0.72,0.41-1s0.61-0.41,1-0.41H6.09z M3.75,28.41
		c0.39,0,0.72-0.14,1-0.41s0.41-0.61,0.41-1s-0.14-0.72-0.41-1s-0.61-0.41-1-0.41s-0.72,0.14-1,0.41s-0.41,0.61-0.41,1
		s0.14,0.72,0.41,1S3.36,28.41,3.75,28.41z M22.5,5.5c0-1.88-0.53-3.2-1.58-3.98c-0.7-0.51-1.58-0.76-2.64-0.76
		c-0.51,0-0.96,0.43-1.35,1.29c-0.2,0.47-0.41,1.15-0.64,2.05v0.06c-0.2,0.86-0.37,1.48-0.53,1.88c-0.23,0.66-0.55,1.19-0.94,1.58
		c-0.62,0.59-1.41,1.56-2.34,2.93c-1.13,1.64-2.09,2.87-2.87,3.69c-0.16,0.12-0.23,0.27-0.23,0.47v12.54c0,0.2,0.07,0.36,0.21,0.5
		s0.3,0.21,0.5,0.21c0.66,0,1.67,0.3,3.02,0.91s2.41,1.03,3.19,1.26c1.33,0.43,2.62,0.64,3.87,0.64h0.18c1.72,0,2.99-0.08,3.81-0.23
		c1.37-0.23,2.3-0.72,2.81-1.46s0.64-1.62,0.41-2.64c0.47-0.55,0.8-1.23,1-2.05s0.18-1.6-0.06-2.34c0.51-0.66,0.8-1.43,0.88-2.29
		s-0.04-1.66-0.35-2.4h0.06c0.31-0.35,0.58-0.78,0.79-1.29S30,15.01,30,14.46c0-0.9-0.34-1.69-1.03-2.37s-1.51-1.03-2.49-1.03h-5.92
		c0.08-0.39,0.33-1,0.76-1.82c0.39-0.7,0.66-1.25,0.82-1.64C22.38,6.9,22.5,6.2,22.5,5.5z"/>
</g>
</svg>
