<svg xmlns="http://www.w3.org/2000/svg" viewBox="0 0 1121.56 465.01">
  <g id="Layer_2" data-name="Layer 2">
    <g id="Layer_8" data-name="Layer 8">
      <rect width="1121.56" height="465.01"/>
    </g>
    <g id="red_cap_boy" data-name="red cap boy">
      <path d="M248.57,413.91S301,392,320.06,394.84s40-17.15,40-17.15,7.62,59.09,4.76,65.76-119.46-.59-119.46-.59,5.29-26.14,3.18-28.95" style="fill: #8cbcd1"/>
      <path d="M305.84,124.65c-3.53,1.17-2,13.32-2,13.32-14.89,14.5-32.53-2.35-32.53-2.35,0-3.13,2-10.58,2-13.72l-11.65-17.06,14.4-34.63L315,65.15l8.95,9.34-3.5,39.3Z" style="fill: #edbebc"/>
      <path d="M262.82,71.07l2.33-12s.26-.45.73-1.22c3.1-5.09,15.39-24.55,23.5-26.42,9.33-2.15,30.69-7.9,38.76,5.2a40,40,0,0,1,5.38,26.56l1.26,1.44s1.8,11.3-1.08,13.64-9.15,1.43-9.15,1.43a22.57,22.57,0,0,0-19-10.05c-12.92.18-35.17,4.67-38.58,4.13S262.46,73.58,262.82,71.07Z" style="fill: #dd6d19;stroke: #000;stroke-miterlimit: 10"/>
      <path d="M265.41,58.6s49.81-15.49,68.11,4.57" style="fill: #dd6d19;stroke: #000;stroke-miterlimit: 10"/>
      <path d="M262.79,74s-6.66,10.2-6.66,18.62-8,12.86-6.2,16.85,5.32,14.19,12.41,11.09,9.32-2.66,9.32-2.66S265,99.27,266.33,95.73s3.55-8,3.55-8,4-13.74,8.87-14.19S262.79,74,262.79,74Z"/>
      <path d="M320.88,75.33s-2.22,2.66-1.33,11.08a143.48,143.48,0,0,1,.44,18.18l-2.66,6.21-8,11.09s1.77,5.76,6.21,5.76,7.54,5.77,11.53,3.11,6.65-11.09,6.65-17.74-5.32-12.42-3.55-20,3.51-14.81,3.51-14.81-3.22,3.67-9.15,1.43"/>
      <path d="M276.4,77.62s4.67-2.92,6-2.73,9,5.26,9,5.26l-1,1.37S277.37,75.28,276.4,77.62Z"/>
      <path d="M317.49,83.46a2.16,2.16,0,0,0,.2-2.53c-.78-1.56-12.27-1-12.27-1l-3.9,3.31"/>
      <ellipse cx="309.13" cy="91.31" rx="2.5" ry="3.89"/>
      <path d="M282.32,106.23c.75-.83,23.52,3.13,23.52,3.13s1.17,6.27-8.23,5.88S278.8,110.15,282.32,106.23Z" style="fill: #f9f7f8;stroke: #000;stroke-miterlimit: 10"/>
      <ellipse cx="281.91" cy="87.93" rx="2.5" ry="3.89"/>
      <path d="M271.66,117.9s22.39,20.82,37.69,4" style="fill: none;stroke: #000;stroke-miterlimit: 10"/>
      <path d="M408.88,165.39l-36.4,198S366.1,380,347.58,378s-79.18,3.19-79.18,3.19l-24.91,1.92-20.43-46,10.21-125.8-90.68,17.88L108.11,242,78.71,232l-1.16-8.17c0-6.38,6.29-37.31,34.39-43.7s53-20.44,53-20.44S262,136,266.48,136s25,12.15,37.4,2.24c0,0,80.1,7.34,96.7,20.75Z" style="fill: #e2e1e0"/>
      <path d="M344.39,167c1.91,0,11.49,12.13,16,16.6" style="fill: none;stroke: #000;stroke-miterlimit: 10"/>
      <path d="M313.1,356.68s30.65,9.58,39.59-7" style="fill: none;stroke: #000;stroke-miterlimit: 10"/>
      <line x1="90.87" y1="216.19" x2="110.03" y2="200.23" style="fill: none;stroke: #000;stroke-miterlimit: 10"/>
      <line x1="95.34" y1="221.94" x2="115.77" y2="219.38" style="fill: none;stroke: #706c69;stroke-miterlimit: 10"/>
      <path d="M321.69,378.09c4,6.25,3.4,67,3.4,67h12.5l-5.68-68.73Z" style="fill: none;stroke: #706c69;stroke-miterlimit: 10"/>
      <path d="M352.93,408.2s2.84,29,.57,34.65" style="fill: none;stroke: #706c69;stroke-miterlimit: 10"/>
      <path d="M271.13,407.06s-3.41,21.59,1.13,22.16,11.93,1.7,11.93,1.7,6.82-20.45,4.55-27.83" style="fill: none;stroke: #706c69;stroke-miterlimit: 10"/>
      <path d="M60,218.31H47.31c-.86,0-11.2,2.3-12.92,4.6S22.32,230.09,20,229.52s-2.58,2.29-2.58,2.29,2.29,1.44,3.44,1.44,9.2-.86,9.2-.86l2.29.86s-19.24,12.64-19.24,14.94v4.88l22.12-14.65-18.1,18.39.57,2,3.16-.58,19.54-15.8,2,.86S24.9,258.53,24.9,259.68a8.38,8.38,0,0,0,.87,2.87l18.38-13.79,2,.29L33.81,263.42l2.87.57s17.53-16.66,19.54-19.25S66,235.26,66,235.26l-.11-7.42L60,218.31h0" style="fill: #edbebc"/>
      <path d="M856.8,163.41c3.69-2.11,20-5.27,22.66-9l2.64-3.69,3.88,4.8-2.05,11.2-23.44,7.72Z" style="fill: #edbebc"/>
    </g>
    <g id="center_boy" data-name="center boy">
      <path d="M414.49,160l5.17,14.44,20.09,1.26s10.42-.45,14.65-13L449.53,146l-34,11.56Z" style="fill: #edbebc"/>
      <path d="M395,131.22a4.62,4.62,0,0,0-1,.67c-1.61,1.36-3.82,4.81,4.1,10.7,10.55,7.87,4.34,3.52,4.34,3.52s16.14,25.87,33.73,18.83a32.61,32.61,0,0,0,14.07-28.14l.83-3.93s6.41-1.24,5.79-5.38-.13-9.65-6.38-9.58l-3.2-10.2-19.39-4.43L416.67,106l-16.73-1.49-8.69,3,.62,11,5.36,11.78-4.86,2.88Z" style="fill: #edbebc;stroke: #000;stroke-miterlimit: 10"/>
      <path d="M405.46,416l3.62,28.21,115-1.45s10.13-50.62,8.68-57.13S404,409.46,404,409.46Z" style="fill: #706c69"/>
      <path d="M394.4,129s-7-8.3-7-11.7-1.32-8.31-.19-9.44-2.45-6.79,0-9.06,6.23-9.44,9.07-9.44,17.58-20.94,31.16-10.6c.25.19.49.39.74.6,0,0,18.12-11,19.07.19,0,0,7.36-.19,7.36,4.71,0,0,3.4,9.25,0,10.76,0,0,2.83,3.59,2.26,7.37s-3.21,13.4-3.21,13.4l-3.21,2.08s-3.58-9.06-3.2-10.2-11.71-.37-16.43-3-13.4.38-14.16,1.32-17.74-3-20,1.14-5.28,12.64-2.83,13.78,4,8.68,3.4,9.44S394.4,129,394.4,129Z" style="fill: #ea9957;stroke: #5e4025;stroke-miterlimit: 10"/>
      <path d="M399.73,121.49s9.52-4.55,12-4.34a17.64,17.64,0,0,1,5.38,1.65s-11.79,3.31-12.62,3.73S399.73,121.49,399.73,121.49Z"/>
      <path d="M428.08,115.28s10.14-5.58,13.65-4.55,3.94,2.07,3.94,2.07l-11,1.45-6,2.48Z"/>
      <ellipse cx="410.77" cy="127.97" rx="2.69" ry="3.72" transform="translate(-19.22 113.23) rotate(-15.34)"/>
      <ellipse cx="410.99" cy="127.44" rx="1.45" ry="1.46" transform="translate(-17.75 90.87) rotate(-12.35)" style="fill: #fff"/>
      <ellipse cx="437.78" cy="122.94" rx="2.69" ry="3.72" transform="matrix(0.96, -0.26, 0.26, 0.96, -16.93, 120.2)"/>
      <ellipse cx="438" cy="122.41" rx="1.45" ry="1.46" transform="translate(-16.05 96.54) rotate(-12.35)" style="fill: #fff"/>
      <path d="M417.8,145.6s9.12-3.48,11.8-3.48,9.66-.54,9.66-.54-.54,3.49-1.34,3.75-5.9,5.1-9.66,5.1-10.19-1.07-10.46-2.15l-.27-1.07Z" style="fill: #fff;stroke: #000;stroke-miterlimit: 10"/>
      <ellipse cx="282.18" cy="88.35" rx="0.92" ry="1.42" style="fill: #fff"/>
      <ellipse cx="309.11" cy="91.25" rx="0.92" ry="1.42" style="fill: #fff"/>
      <path d="M251.1,287.23l20.41-8,11.94,18.42,32.86-28.87,25.39-17.92-18.42,35.34S295.4,322.57,282,320.08,251.1,287.23,251.1,287.23Z" style="fill: #edbebc"/>
      <path d="M409.61,159.35s-1.68,8-5,8.79-11.3,5-11.3,9.63a30.14,30.14,0,0,1-.42,6.28s-41,13-43.12,18.42-35.58,1.68-35.58,1.68-31,6.69-46.05,10.46l-16.75,4.19-8,6.28,23.86,43.12.84,2.93s13.81-10.05,22.6-8.79S328,271.13,328,271.13s31.4-13,41-9.63c0,0-6.7,92.94-1.67,100.47s24.28,29.73,24.28,29.73.42,27.63,7.53,26.79,116.8-15.07,126.43-21.77,24.28-26.37,24.28-26.37-9.63-84.57-11.72-95,.42-39.77.42-39.77L547.34,179s-55.26-7.54-59.45-5.86l-4.18,1.67s3.77-25.12-9.63-25.54-23.44-.41-23.44-.41h0s.83,12.55,3.76,13.81c0,0-6.28,13-14.65,13s-20.09-1.26-20.09-1.26-3.77-10-3.77-11.3-5.44-6.7-5.44-6.7h0Z" style="fill: #2b456b"/>
      <path d="M394.81,189s3,13.77,9.58,14.37,11.37,2.39,16.16,1.79" style="fill: none;stroke: #fff;stroke-miterlimit: 10"/>
      <path d="M484,179.43s-16.76,18-31.12,20.95" style="fill: none;stroke: #fff;stroke-miterlimit: 10"/>
      <path d="M1057.42,73.68h0l2.57-3.53s-2.57-17.31,2.24-22.11,7-17,7-17l.64-3.85,3.85.64v4.49l-1.6,11.54s13.78-18.59,16-19.23A17.34,17.34,0,0,0,1092,23v3.53l-14.1,19.87v2.25l19.55-22.12h2.88l-4.8,8.65L1084,50l.64,2.56,17.63-18.91,1.28,2.57-15.07,18.59h3.21l12.82-13.15,1.28,2.89L1086,67.59s-7.69,9.61-11.54,10.9-5.12,8.33-5.12,8.33l-11.87-13.14h0" style="fill: #edbebc"/>
    </g>
    <g id="right_gray_boy" data-name="right gray boy">
      <path d="M840.46,377.93s-13.7,57.46-10.54,64.31l134.4,2.63s-.52-71.15-4.21-74.84S840.46,377.93,840.46,377.93Z" style="fill: #d9a463"/>
      <path d="M860.49,174.48l23.44-7.72s12.24,13.33,27.08,2.62l17.47,88.91,1.58,116.48V379s-76.42,3.69-85.38,2.63-12.13-20.55-12.13-20.55,11-42.87,10.55-45.33c-.53-3.16-25.83-85.39-25.83-85.39l-.53-33.73Z" style="fill: #2b456b"/>
      <path d="M874.08,211.92s-2.79,33.56-1.39,39.86S913.25,256,913.25,256l14-41.26L914,211.22S874.08,209.12,874.08,211.92Z" style="fill: #ddd"/>
      <path d="M823.59,208.21s17.92,74.32,25.83,88,7.91,43.74,4.74,49-18.44,24.25-18.44,24.25,4.21,12.12,1,14.76-23.72,8.43-27.41,12.65-10.54,1-10.54,1-14.74-9.77-14.49-19.12-12.39-152.18-12.39-152.18l51.13-17.39,1,2.63" style="fill: #8cbcd1"/>
      <path d="M911.09,167.63l2.72-6s3.68,4.75,10.54-5.8,16.86-13.17,20.55-13.17,16.34-3.17,21.61-13.18S995,116.33,995,116.33s5.27-1,17.39-19.5A31.34,31.34,0,0,1,1044,82.6c0-3.69,6.86-10.54,10-10.54s15.28,14.76,15.28,14.76-6.32,13.17-4.74,19-10,20.56-14.76,23.72-4.74,17.39-6.85,24.25-16.34,11.59-16.34,11.59l-6.32,1.06c-6.33,1.05-24.25,17.39-29.52,21.08s-23.19,58-17.39,84.86-3.69,108.58-3.69,108.58l-40.06,6.85-9-1s.52,4.21-6.85-11.6-1.06-78.54,1.05-94.88-2.11-42.69-2.11-42.69c-4.22-12.12-1.66-69.93-1.66-69.93" style="fill: #8cbcd1"/>
      <g>
        <path d="M923.8,165.79s-.85,22.84-4.5,26.49" style="fill: none;stroke: #706c69;stroke-miterlimit: 10"/>
        <path d="M934.74,186.94s10.09,4.61,10.09,9.72" style="fill: none;stroke: #706c69;stroke-miterlimit: 10"/>
        <line x1="931.09" y1="168.71" x2="950.66" y2="187.9" style="fill: none;stroke: #706c69;stroke-miterlimit: 10"/>
        <path d="M1047.05,87c4.38,0,15.92,11.9,15.92,11.9" style="fill: none;stroke: #706c69;stroke-miterlimit: 10"/>
        <line x1="1055.8" y1="79.73" x2="1052.76" y2="86.53" style="fill: none;stroke: #706c69;stroke-miterlimit: 10"/>
        <line x1="1069.29" y1="86.82" x2="1063.7" y2="93.1" style="fill: none;stroke: #706c69;stroke-miterlimit: 10"/>
        <line x1="1062.25" y1="83.61" x2="1059.33" y2="90.18" style="fill: none;stroke: #706c69;stroke-miterlimit: 10"/>
        <line x1="819.51" y1="359.78" x2="830.33" y2="371.69" style="fill: none;stroke: #706c69;stroke-miterlimit: 10"/>
        <path d="M804.93,365.62c-13.13,17.5-12.52,16.28-12.52,16.28" style="fill: none;stroke: #706c69;stroke-miterlimit: 10"/>
        <path d="M796.9,384.58s5.84,9.48,9.48,9.48H810" style="fill: none;stroke: #706c69;stroke-miterlimit: 10"/>
        <path d="M799.81,378.53s10.83,9.93,20.31,9.2" style="fill: none;stroke: #706c69;stroke-miterlimit: 10"/>
        <line x1="825.35" y1="380.93" x2="833.98" y2="382.63" style="fill: none;stroke: #706c69;stroke-miterlimit: 10"/>
        <path d="M820.24,348.84s13-17.26,16.65-18.72" style="fill: none;stroke: #706c69;stroke-miterlimit: 10"/>
        <path d="M796.5,396l6.82,2.07s10.66-4.15,21-8.59,16.6-7.74,16.6-8.92" style="fill: none;stroke: #706c69;stroke-miterlimit: 10"/>
      </g>
      <path d="M886,155.56l-2.05,11.2s15.12,12.33,27.08,2.62l4.29-28.2" style="fill: #edbebc;stroke: #000;stroke-miterlimit: 10"/>
      <path d="M873.84,138.37s.22.47.63,1.27c2.14,4.15,9.49,17.15,18.42,18.72,0,0,16.62-.75,23.16-20.36,0,0,6.91-3.73,6.72-8a13.66,13.66,0,0,0-2-6.91L919,111.85l-6.54-10.64s-2.8-3.74-5.79-3.55l-3,.18s-7.09,9.34-10.08,9-13.45-2.8-16.25,3.55-4.48,23.53-5.23,22.78Z" style="fill: #edbebc;stroke: #000;stroke-miterlimit: 10"/>
      <path d="M906,74.31s-9.85.37-10.83-3.55C895,70,884.67,61.42,874.59,67s-16.07,17.93-15,23.9c0,0,.94,7.1-1.49,8s-7.28,9-6.54,15-3.73,12.7-2.24,15.87,10.27,8.59,10.27,8.59,9.17-1.88,12.52-5.23c.37-.37,4.11-15.31,4.85-19.23s5.42-8.6,15.32-6.73c0,0,6.91-.93,11-8.59,0,0,6.91-1.31,9.15,2.62s6.91,9.9,7.29,15.12,2.24,7.48,2.24,7.48,2.43-7.48,2.43-13.64-.75-5.79,0-7.1,7.28-19.42,1.49-24.46-13.82-7.66-18.68-5S906,74.31,906,74.31Z" style="fill: #e2e1e0;stroke: #9b9a9a;stroke-miterlimit: 10"/>
      <path d="M877.83,112.09s10.5-1,12.76,0a17.92,17.92,0,0,1,4.48,3.4s-12.21-1-13.13-.84S877.83,112.09,877.83,112.09Z" style="fill: #e2e1e0;stroke: #9b9a9a;stroke-miterlimit: 10"/>
      <path d="M901.33,112.7s12.87-4,15.42-1.09,2.26,4.61,2.26,4.61l-11-2.34L901,115.06Z" style="fill: #e2e1e0;stroke: #9b9a9a;stroke-miterlimit: 10"/>
      <ellipse cx="883.97" cy="122.66" rx="3.72" ry="2.69" transform="translate(734.41 1002.47) rotate(-88.25)"/>
      <ellipse cx="884.33" cy="122.21" rx="1.46" ry="1.45" transform="translate(689.54 993.44) rotate(-85.26)" style="fill: #fff"/>
      <ellipse cx="908.61" cy="121.8" rx="3.72" ry="2.69" transform="translate(759.15 1026.27) rotate(-88.25)"/>
      <ellipse cx="908.75" cy="122.02" rx="1.46" ry="1.45" transform="translate(712.13 1017.6) rotate(-85.26)" style="fill: #fff"/>
      <path d="M885.71,140.85s2.43,6.43,8.2,6.21,10.85-5.76,10.85-5.76S886.15,142.85,885.71,140.85Z" style="fill: #fff;stroke: #000;stroke-miterlimit: 10"/>
      <path d="M854.5,386.75s-2.1,12.59-18.18,18.88" style="fill: none;stroke: #706c69;stroke-miterlimit: 10"/>
      <path d="M890.17,384l2.8,36.37s.7,9.79,4.89,10.49" style="fill: none;stroke: #706c69;stroke-miterlimit: 10"/>
      <line x1="902.06" y1="406.33" x2="901.36" y2="439.2" style="fill: none;stroke: #706c69;stroke-miterlimit: 10"/>
      <path d="M939.12,388.85s8.39,16.78,18.18,16.78" style="fill: none;stroke: #706c69;stroke-miterlimit: 10"/>
      <polyline points="954.43 307.27 942.76 291.23 951.51 281.75 974.12 305.81" style="fill: none;stroke: #706c69;stroke-miterlimit: 10"/>
      <line x1="961.72" y1="316.02" x2="974.12" y2="325.51" style="fill: #8cbcd1;stroke: #706c69;stroke-miterlimit: 10"/>
      <polyline points="931.09 367.81 955.16 366.35 968.89 361.48" style="fill: none;stroke: #706c69;stroke-miterlimit: 10"/>
    </g>
    <g id="black_hair_boy" data-name="black hair boy">
      <path d="M680.12,344.43s-17.21,87-7.65,101.34l42.07,1,16.25-41.11,7.65,38.25,47.8.95-1.91-66-16.25-63.1-79.35,3.83Z" style="fill: #c4c4c6"/>
      <path d="M744.46,179.76,730,187.13l-17.42-5.83s10.21-11.25,8.9-15.34c-.44-1.36-3-6.52-5.18-6.67-6.63-.44-10.76-6.53-12.29-13-1-4.25,10.51-8.1,10.55-8.94-16-21.54,8.26-29.26,9-29.59,0,0,14.44,13.13,21.26,7l12.46,7.23,2.46,26s-7.6,21.05-13.34,24.14l-2.17.59Z" style="fill: #edbebc;stroke: #000;stroke-miterlimit: 10"/>
      <path d="M723.83,108.8s-16.61-1-9.34,27c0,0,.34,5.6-5.54,5.6s-5.88,11.86,5.19,15.16c0,0,5.54,3.62,6.23,8.57s-1,3-1,3l-20.76-6.92s-15.92-16.81-10.38-30.32-1-21.09,18-26.36c0,0,13.15-23.73,38.41-6.59,0,0,22.15,6.92,19.73,24.71s-1.73,7.91-1.73,7.91,2.42,16.81-4.5,24.39c-3,3.25-4.09,4.07-4.41,4s.6-2,.6-2,5.62-16.69,2.85-24.93-2-11.48-7.69-13.3C746.32,117.7,731.79,119.35,723.83,108.8Z" style="fill: #512e12;stroke: #000;stroke-miterlimit: 10"/>
      <path d="M627.38,218.38s57-32,63.67-32,12,1.34,13.67.34,7.84-5.42,7.84-5.42L730,187.13l14.48-7.37s18.26,2,22.93.62,21.33-7.66,37.67-8,34-4.33,36.66-6.33,17-4,18-4h1l3.34,21-.67,4s-72.48,41.55-76.67,45.67c-4.77,4.7,3.7,12.37,5.55,53.82.22,4.76.55,17.4.76,22.62,1.61,40.22,8,69.4,6.78,69.37l-61.61,3.72s-7.94-2.06-7.94-10.06c0,0-9.77,10.86-16.77,10.86S674.18,386.92,671,386c-6.18-1.77,9.25-142.1,6-145s-33.58-4.92-45.25-18.25S627.38,218.38,627.38,218.38Z" style="fill: #7f4846"/>
      <path d="M716.9,162.55s21,11.28,26.78,10.67" style="fill: #512e12"/>
      <path d="M713,132.35s10.41-1.73,12.73-.84a17.85,17.85,0,0,1,4.71,3.09s-12.25-.1-13.16.06S713,132.35,713,132.35Z"/>
      <path d="M738.56,129.89s8.78-10.24,12.5-9.11,4.35,2.7,4.35,2.7l-10.53,3.84-5.38,4.76Z"/>
      <ellipse cx="724.15" cy="141.31" rx="2.69" ry="3.72" transform="translate(-11.58 196.61) rotate(-15.34)"/>
      <ellipse cx="724.37" cy="140.78" rx="1.45" ry="1.46" transform="translate(-13.35 158.23) rotate(-12.35)" style="fill: #fff"/>
      <ellipse cx="751.16" cy="136.28" rx="2.69" ry="3.72" transform="translate(-9.29 203.58) rotate(-15.34)"/>
      <ellipse cx="751.38" cy="135.75" rx="1.45" ry="1.46" transform="translate(-11.65 163.89) rotate(-12.35)" style="fill: #fff"/>
      <path d="M729.43,157.16s8.82-4.19,11.49-4.4,9.58-1.29,9.58-1.29-.26,3.52-1,3.85-5.48,5.54-9.23,5.84-10.24-.27-10.59-1.32l-.35-1.05Z" style="fill: #fff;stroke: #000;stroke-miterlimit: 10"/>
      <g>
        <path d="M744.46,179.76h0s7.92,6,7.92,8.67-15.14,15.8-15.14,15.8L727.37,195s-4,9.87-9.22,9.87S703,185.8,703,185.8l9.54-4.5" style="fill: none;stroke: #bcbcbc;stroke-miterlimit: 10"/>
        <path d="M772.12,199s8.55,23,12.5,23" style="fill: none;stroke: #bcbcbc;stroke-miterlimit: 10"/>
        <path d="M773.44,222s7.89,10.53,9.87,10.53" style="fill: none;stroke: #bcbcbc;stroke-miterlimit: 10"/>
        <ellipse cx="729.72" cy="217.38" rx="1.5" ry="2.33" style="fill: none;stroke: #bcbcbc;stroke-miterlimit: 10"/>
        <ellipse cx="729.78" cy="245.25" rx="1.5" ry="2.33" style="fill: none;stroke: #bcbcbc;stroke-miterlimit: 10"/>
        <ellipse cx="731.05" cy="273.72" rx="1.5" ry="2.33" style="fill: none;stroke: #bcbcbc;stroke-miterlimit: 10"/>
        <ellipse cx="731.59" cy="303.04" rx="1.5" ry="2.33" style="fill: none;stroke: #bcbcbc;stroke-miterlimit: 10"/>
      </g>
    </g>
    <g id="blond_girl" data-name="blond girl">
      <path d="M558,342.89s60,6.17,70.57,0c0,0,7.94,39.69,12.36,50.28s7.05,45,6.17,48.52-102.33,1.76-102.33,1.76,0-65.28,9.7-78.51S558,342.89,558,342.89Z" style="fill: #e2bd6a"/>
      <path d="M606.18,189.91C599.51,205.09,611,221.1,611,221.1c-15.84,11.67-37.69,1.83-37.69,1.83l-.18-2.8s7.4-12.22,7.52-16.92-.36-2.94-.36-2.94" style="fill: #edbebc;stroke: #000;stroke-miterlimit: 10"/>
      <path d="M611.91,220.83c-1.29,0,.69,128.86.89,138.4s-1.66,5.8-1.66,5.8l36.47-2.9s12.43-74.59,9.11-78.74,5-5.8,5-5.8l15.33,2.9.83-39.78-21.55-5-26.52-13.68Z" style="fill: #8cbcd1"/>
      <path d="M572.32,147.88c-3.43-.26-5.37,29.45-1.84,37.19,3.21,7,11,18.58,15.51,17.85,3.66-.6,19.85-11.18,22.86-16.52s6.66-16.59,6.66-16.59l-9-16.26-6.84-6.68s-6.34,2.51-7.5,2.51S572.32,147.88,572.32,147.88Z" style="fill: #edbebc;stroke: #000;stroke-miterlimit: 10"/>
      <ellipse cx="579.41" cy="164.43" rx="4.18" ry="3.32" transform="translate(340.83 717.45) rotate(-82.51)"/>
      <ellipse cx="579.26" cy="163.49" rx="1.46" ry="1.45" transform="translate(313.12 703.35) rotate(-79.52)" style="fill: #fff"/>
      <ellipse cx="599.91" cy="166.07" rx="4.44" ry="3.43" transform="translate(357.02 739.19) rotate(-82.51)"/>
      <ellipse cx="599.67" cy="164.85" rx="1.46" ry="1.45" transform="translate(328.49 724.53) rotate(-79.52)" style="fill: #fff"/>
      <path d="M580.56,181.42c-.74-.44.21,4.17.21,4.17s3.4,3.94,10.41,2.84,6-3.72,6-3.72v-2.85S587.14,185.37,580.56,181.42Z" style="fill: #fff;stroke: #000;stroke-miterlimit: 10"/>
      <path d="M594.79,157.63s2.55-4.89,6.16-4,3.82,2.76,3.82,2.76l-5.52.64Z" style="fill: #d8a57c;stroke: #7a5c41;stroke-miterlimit: 10"/>
      <path d="M583.32,156.57s-2.76-5.74-6.16-3.83l-3.4,1.92S584.8,157.2,583.32,156.57Z" style="fill: #d8a57c;stroke: #7a5c41;stroke-miterlimit: 10"/>
      <path d="M611.67,133.36S602,115.51,585,122.09s-15.35,13.78-15.35,13.78-21.92,11.59-18.16,23.8.62,6.27.62,6.27-26.93,16.29-11.27,34.45c0,0-9.09,25.37-3.14,28.51l35.4-8.77s7.52-12.85,7.52-16.92-11-19.82-11-19.82-4.53-28.16,3.62-35.68c0,0,6.48,3.82,10.55.69,0,0,9.08,5.95,14.09.62,0,0,9.4,25.37,18.17,20l-9.56,18.5c-1.68,6.51-5.2,12.27-2.06,20.77,0,0,1.6,14.57,16.32,14.57s9.08-3.41,9.08-3.41l4.7-3.76,9.71,1.57s16.92-6.89,8.46-22.87-19.11-24.12-19.11-24.12S631.71,133.36,611.67,133.36Z" style="fill: #d8a57c;stroke: #7a5c41;stroke-miterlimit: 10"/>
      <path d="M573.14,220.13c2.55-7.55-41.12,9.26-41.12,9.26l-15.91,15.19-1.45,39.77,11.57,19.53S519,351.61,527,357.4l9.4,21,36.16-18.08s-2.17-31.82-6.51-49.9-1.45-5.06-1.45-5.06S564.49,245.65,573.14,220.13Z" style="fill: #8cbcd1"/>
      <g>
        <path d="M563.84,282.18S557.33,264.11,553,259s6.51-11.57,6.51-11.57-9.4-7.23-9.4-15.91,23-11.43,23-11.43-13.64,64.95-7.85,84.47,8.67,44.84,8,49.9l-.72,5.06s-36.88,5.07-36.88,10.13L529.13,356s31.82-9.4,34.71-8" style="fill: none;stroke: #706c69;stroke-miterlimit: 10"/>
        <line x1="566.73" y1="358.12" x2="560.95" y2="346.55" style="fill: none;stroke: #706c69;stroke-miterlimit: 10"/>
        <line x1="552.99" y1="352.33" x2="555.16" y2="361.73" style="fill: none;stroke: #706c69;stroke-miterlimit: 10"/>
        <line x1="541.42" y1="355.95" x2="545.76" y2="363.9" style="fill: none;stroke: #706c69;stroke-miterlimit: 10"/>
        <path d="M611,221.1c-.31.28,1.52,124.45.56,135.57-1,11.62-.72,8-.72,8L647,361l2.9-19.52s8-57.86,5.06-60,10.12-5.06,10.12-5.06l10.85,2.89" style="fill: none;stroke: #706c69;stroke-miterlimit: 10"/>
        <path d="M622.63,221.07s11.36,10.49,7.74,17.72a56.78,56.78,0,0,1-9.4,13s9.4,5.06,8,11.57-16.64,31.82-16.64,31.82" style="fill: none;stroke: #706c69;stroke-miterlimit: 10"/>
        <line x1="640.5" y1="264.11" x2="652.79" y2="273.51" style="fill: none;stroke: #706c69;stroke-miterlimit: 10"/>
        <line x1="649.17" y1="261.94" x2="640.5" y2="243.86" style="fill: none;stroke: #706c69;stroke-miterlimit: 10"/>
        <path d="M524.06,282.18s12.3-15.91,10.85-19.52" style="fill: none;stroke: #706c69;stroke-miterlimit: 10"/>
        <polyline points="619.52 346.55 625.54 347.15 648.45 349.44" style="fill: none;stroke: #706c69;stroke-miterlimit: 10"/>
        <line x1="626.03" y1="351.61" x2="624.59" y2="362.46" style="fill: none;stroke: #706c69;stroke-miterlimit: 10"/>
        <line x1="636.88" y1="350.89" x2="633.99" y2="361.73" style="fill: none;stroke: #706c69;stroke-miterlimit: 10"/>
        <line x1="642.67" y1="353.06" x2="641.22" y2="359.56" style="fill: none;stroke: #706c69;stroke-miterlimit: 10"/>
      </g>
    </g>
    <g id="brown_hair_girl" data-name="brown hair girl">
      <path d="M136.47,444c0-2.3,4-86.94,18-95.45,24.66-14.91,47.47,11.89,79.85-3.45,0,0,25,58.27,11,97.75Z" style="fill: #2a394f"/>
      <path d="M116.62,253.83c5.85-6.5,35.71-25.33,42.2-24s23.38-3.89,23.38-3.89l6.49-.29s20.78,18.47,38.95,2.24,17.53,3.24,17.53,3.24,30.52,40.9,30.52,46.75-27.27,14.28-27.27,14.28L240,271.36s10.39,64.92,3.9,72.06-71.16,14.74-89.6,4.55c-9.56-5.29-7.82-6-7.82-6s-1.92-58.25,2-62.14.65-3.9.65-3.9l-24.68,6.49-.87-3.21Z" style="fill: #fce142"/>
      <path d="M189.77,206.13c1,2.55-1.08,19.49-1.08,19.49s20.46,13.62,27.59,2.41,3.56-2,3.56-2l1-20.88Z" style="fill: #edbebc"/>
      <path d="M217.39,144.93c-2.1-1.6-34.27,14.33-41.7,19-3-.14-9.14,13.46,0,16.24,0,0,11.92,32.49,28.7,31.41S232,187.71,232,185s7.58-4.34,7-9.21-5.41-6.5-5.41-6.5C235.62,168,222.4,144.47,217.39,144.93Z" style="fill: #edbebc;stroke: #000;stroke-miterlimit: 10"/>
      <path d="M210.85,161.39s2.42-1.94,3.07-1.94,9.05-1.13,9.53-.81a15,15,0,0,1,1.78,2.59l-12.6,1Z"/>
      <path d="M200.51,162s.32-2.75-.32-2.75-7.92-1.62-7.92-1.62l-4.69,1s12.77,5.82,12.77,5"/>
      <path d="M221.76,202.64s-4.87,52.53,4.88,55.78,29.78,2.16,29.78,2.16-2.71-45.49-10.29-72.56c0,0-6.94-46.91-11.91-48.2,0,0-23.29-32.49-55.24-3.79,0,0-15.7,14.62-14.08,44.41s-8.12,48.73-8.12,56.31-.54,28.71-.54,28.71,34.11,4.33,37.91-1.63-5.42-30.32-5.42-37.36,1.08-19.5,1.08-19.5c-.23-1.92-1.21-15.79-8.33-23.26-5.55-5.83-8.68-16.4-4.51-19.53.41-.31,40.86-13.6,40.46-18.4s9.73,22.47,16.25,24.37,5.95,12.07,2,12.07S221.76,202.64,221.76,202.64Z" style="fill: #512e12"/>
      <path d="M194.85,192.58s3.88,6.3,8.73,6c0,0,8.08-.64,12-5.17a8.08,8.08,0,0,0-2.1-.48c-.81,0-5,1-8.08,1a14.91,14.91,0,0,1-7-1.62C197.44,191.61,194.85,192.58,194.85,192.58Z" style="fill: #fff;stroke: #000;stroke-miterlimit: 10"/>
      <ellipse cx="190.73" cy="169.55" rx="10.91" ry="9.61" style="fill: none;stroke: #fff;stroke-miterlimit: 10;stroke-width: 2px"/>
      <ellipse cx="219.9" cy="171.33" rx="10.91" ry="9.61" style="fill: none;stroke: #fff;stroke-miterlimit: 10;stroke-width: 2px"/>
      <path d="M202.77,168.18l5.66.32" style="fill: none;stroke: #fff;stroke-miterlimit: 10;stroke-width: 2px"/>
      <line x1="180.47" y1="165.11" x2="175.69" y2="163.89" style="fill: none;stroke: #fff;stroke-miterlimit: 10;stroke-width: 2px"/>
      <ellipse cx="192.04" cy="170.15" rx="3.17" ry="3.65"/>
      <ellipse cx="219.81" cy="171.55" rx="2.79" ry="3.96"/>
      <ellipse cx="192.6" cy="169.78" rx="1.63" ry="1.9" style="fill: #fff"/>
      <ellipse cx="219.68" cy="171.45" rx="1.63" ry="1.9" style="fill: #fff"/>
      <path d="M125.75,278.17l-9.13-24.34S95.16,265,91.54,268.3s-4,2-4,2-9.21-42.1-11.51-44.08c0,0,5.92-7.56,6.25-11.51S84,201.52,84,201.52s-3.62-1.31-3.62,2.64-3,8.22-3,8.22l-2-6.91V184.42l-2.63-.66-.33,15.13-3,3,.33-19.73-4.6-2.63,1.31,24.67H63.91l-.66-18.75h-3s1,16.44,1,18.09-2,2.3-2,2.3l-2-12.83-2-3.29s-2,12.83,1.31,17.11,3.95,13.15,6.25,15.79a13.94,13.94,0,0,1,3,5.26s2,46.71,3,50.66S73.12,295.27,80,294.94,125.75,278.17,125.75,278.17Z" style="fill: #edbebc"/>
    </g>
  </g>
</svg>
