<svg xmlns="http://www.w3.org/2000/svg" xmlns:xlink="http://www.w3.org/1999/xlink" viewBox="0 0 391.51 167.05">
  <defs>
    <clipPath id="clip-path">
      <rect x="13.87" y="13.97" width="365.15" height="150.16" style="fill: none"/>
    </clipPath>
  </defs>
  <g id="Layer_2" data-name="Layer 2">
    <g id="color3">
      <rect width="391.51" height="167.05" style="fill: #fff"/>
      <g style="clip-path: url(#clip-path)">
        <path d="M69.61,145.3A46.24,46.24,0,1,0,23.37,99.06,46.24,46.24,0,0,0,69.61,145.3" style="fill: #1d1d1b"/>
        <circle cx="69.61" cy="99.06" r="46.24" style="fill: none;stroke: #606060"/>
        <path d="M175.45,145.8c23.16,0,41.92-18.06,41.92-40.34s-18.76-40.34-41.92-40.34-41.92,18.06-41.92,40.34,18.77,40.34,41.92,40.34" style="fill: #2b5da9"/>
        <path d="M263.14,145.8a35.9,35.9,0,1,0-35.9-35.9,35.9,35.9,0,0,0,35.9,35.9" style="fill: #5ec2c2"/>
      </g>
      <text transform="translate(185.44 27.17)" style="font-size: 11.199999809265137px;fill: #1d1d1b;font-family: AvenirNext-Medium, Avenir Next;font-weight: 500">3<tspan x="6.66" y="0" style="letter-spacing: -0.01800537140037965em">r</tspan><tspan x="10.52" y="0">d O</tspan><tspan x="29.94" y="0" style="letter-spacing: -0.005057198746837867em">P</tspan><tspan x="36.54" y="0" style="letter-spacing: 0.000043596540921016096em">TION</tspan></text>
      <line x1="73.77" y1="38.17" x2="359.37" y2="38.17" style="fill: none;stroke: #3a4149;stroke-width: 2.4000000953674316px"/>
      <g style="clip-path: url(#clip-path)">
        <path d="M344.14,145.8c13.68,0,24.76-12.42,24.76-27.74s-11.08-27.75-24.76-27.75-24.77,12.42-24.77,27.75,11.09,27.74,24.77,27.74" style="fill: #a0c639"/>
      </g>
      <text transform="translate(45.04 158.12)" style="font-size: 12px;fill: #1d1d1b;font-family: HelveticaNeue, Helvetica Neue">#000</text>
      <text transform="translate(151.81 158.12)" style="font-size: 12px;fill: #1d1d1b;font-family: HelveticaNeue, Helvetica Neue">#365<tspan x="26.69" y="0" style="letter-spacing: 0.0059814453125em">e</tspan><tspan x="33.2" y="0">a3</tspan></text>
      <text transform="translate(242.46 158.5)" style="font-size: 12px;fill: #1d1d1b;font-family: HelveticaNeue, Helvetica Neue">#77<tspan x="20.02" y="0" style="letter-spacing: -0.010986328125em">b</tspan><tspan x="27" y="0" style="letter-spacing: -0.008015950520833334em">f</tspan><tspan x="30.46" y="0">c1</tspan></text>
      <text transform="translate(318.67 156.65)" style="font-size: 12px;fill: #1d1d1b;font-family: HelveticaNeue, Helvetica Neue">#a9c452</text>
    </g>
  </g>
</svg>
