<svg id="Layer_3" data-name="Layer 3" xmlns="http://www.w3.org/2000/svg" viewBox="0 0 528.45 246.99">
  <title>Artboard 1</title>
  <g>
    <path d="M435.28,150.69s.26,6.44-7.86,10.64c0,0-.52,2.59,1.57,7.59l1,.93a10.58,10.58,0,0,0-.57,3.14c0,1.57,2.48,5.06,3.16,5.06s-.79,2.18,0,3,2.39,2.53,2.39,4.34-.72,6.23,0,7a7,7,0,0,0,4.72,2.05c2.15,0,13.16-1.14,14.23-2.29,0,0,7.9,3.5,7.34,19.79l32-.61s-8-21.23-5-24.47,26.94-2.56,27.06-41.11c.12-39.27-33.3-45.71-35.48-45.71-4.37-.72-17.19-2.43-28.18,1.49-3.7,2.64-9.32,5.56-13.92,12.51C434,119.67,431.19,123.12,435.28,150.69Z" style="fill: #221670;opacity: 0.7000000000000001"/>
    <path d="M115.92,111.84s-.8,1.91-3.75,1.82a4.61,4.61,0,0,0-.58,2.45l.16.44a3.07,3.07,0,0,0-.59.81c-.22.46,3.53.87,3.75.89,5.37.5,2.42,2.75.69,2.43-.73.87-4.64-.65-4.63-.46,0,.39.35,1.12.1,1.64s-1.07,1.69-1,2a2.56,2.56,0,0,0,1.09,1.36c.63.35,4,1.79,4.46,1.63,0,0,1.83,2.29-.58,6.92l9.65,2.65s.34-5.11,1.67-5.56,8.21,3.61,13.54-7.55a15.16,15.16,0,0,0-4.06-19c-1.18-.92-4.68-3.48-8.42-4.12a13.44,13.44,0,0,0-5.78,1.38C119.83,102.65,118.52,103.19,115.92,111.84Z" style="fill: #666"/>
    <path d="M167.07,133.37s3.12,5.79,6.25,5.79,3.63-.88,3.12-1.43-.54-.85-1.56-1.94-3.83-1.35-3.83-1.35l-2-1.07-.62-1.21s8,1.43,9.92-.68,0-3.54,0-3.54-1.25-1.1-3.52,0a26.5,26.5,0,0,1-6.32,2.27c-.86,0-2.11-2.61-1.41-5.15a11.17,11.17,0,0,0,.39-4.39s.39-1.18-2-1.18-2.34,2-2.34,2.79,1.64,4.9,1.64,6.5.7,3.55-.55,3.55-5.7-3.21-21.56,10.72a18,18,0,0,1-11,0c-5.93-1.94-6.32-4.73-15.38-5.15h-2.35c-.86,0-6.56-7.18-13.67-8.36s-8.9,0-8.9-2v-2s2.58-14.78-7.58-22.88c0,0,.43-4.94-.62-6.08,0,0,4.14-2.87,4.14-4.48s-.16-2.62-.63-3.12-1.21-.55-2.19.5a13.39,13.39,0,0,0-2.11,5.32c0,.85-1.32.68-1.79.17s-1.25-4.64-2.74-4.64-2.26-.17-2.26,1.6,1.91,2.24,2.42,2.79,1.53,3.47,1.25,3.78S74,96.32,73,98.45s.08,2.13.78,2.13,4.37-.42,5.47.76,1.79,2.36,2.26,2.36,8.6,11.4,5.71,21.2,20.38,14.77,21.71,14.77-7,8.11-8.12,13.17S97.62,167.7,98,175c0,0,.11,12.63.7,13.26,0,0-14.22,1.69-16.25,6.92s8.44,17.23,9.06,19.25,3.83,10.81,2.5,13.09-5.78,5.4-7.42,5.4a5.22,5.22,0,0,0-1.8,2.37c-.78,1.77,0,6.37.79,7.17s.66,2.75,2.26,1,2.42-1.27,2.42-3.63-.66-3.09.94-4.82,7.42-4.47,8.44-4.47,1.4-3.88.54-4.81-4.14-2.71-4.14-4.82-1.64-16.63-5.15-20.43-.78-1.35-.78-1.35-1.72-3.55.15-3.55,14.88-2.15,16-.92c0,0,1.48-.17,1.48,1s1.87,18.49,3.91,22.29,6.48,7.43,9.13,4.56,11.13-20.21,13.36-22.63c.71-.76,1.21-.89,1.56-.51s1.61,6,.63,7-2.89,2.53-2.5,4,.94,2,3,1.52,4.45-.76,4.45-2.87-1.48-11.82-.62-13.59.7-2.45-.63-3.89-1.72-1.52-2.81-1.1S120,214.9,118.79,214.48s-.86.25-.86.25-3.2,1-2.73-11.9,2.81-13.77,2.81-15.2c0,0,.94-.59.32-3s-1.72-5.41-1.72-6.76-1.72-7.17-1.33-10,7-11.7,8.44-13.26.78-8.1.78-8.1S137.15,149,139.81,149s6.95-.85,7.42-2,8.82-11.9,12.18-11.9a26.78,26.78,0,0,1,4.77-.68A4.35,4.35,0,0,0,167.07,133.37Z" style="fill: #666"/>
    <path d="M209.34,192.31s-2.22,3.59-13,0-59.8-28.13-75.86-28.13-41.25,3.89-54.26,11.07-25.19.3-31.83-1.49-18.83-6-26-1.5l-7.2,4.49,7.48.3a33.41,33.41,0,0,1,14.39,0c7.2,1.8,32.12,10.47,44.58,9.28s28.23-13.77,50.38-12,45.4,11.07,50.94,17,15.5,6.29,22.7,6.29S209.34,192.31,209.34,192.31Z" style="fill: #e37668"/>
    <path d="M188.87,139.33s16.84-3.92,20.47,0-3.58,2.72-3.58,2.72Z" style="fill: #666;stroke: #666;stroke-miterlimit: 10"/>
    <path d="M183.08,164.18s17.14-.06,19.66,5.11-3.12,3.27-3.12,3.27Z" style="fill: #666;stroke: #666;stroke-miterlimit: 10"/>
    <path d="M63.11,125.71s-12.35-9.44-16.63-8S44,121.64,44,121.64s5.54,2.16,8.31,2.16S63.11,125.71,63.11,125.71Z" style="fill: #4d4d4d;stroke: #4d4d4d;stroke-miterlimit: 10"/>
    <path d="M63.11,149.68c-1.26,0-18.15,3.54-21.17,6.81s-1.26,3,3.28,3S63.11,149.68,63.11,149.68Z" style="fill: #666;stroke: #666;stroke-miterlimit: 10"/>
    <polygon points="390.1 153.59 372.71 135.01 372.71 153.59 337.94 190.75 324.03 179.6 313.6 198.19 317.07 216.77 337.94 216.77 351.85 205.62 341.42 194.47 376.19 157.31 393.57 157.31 390.1 153.59" style="fill: #22156e;opacity: 0.7000000000000001"/>
    <g>
      <line x1="335.2" y1="160.02" x2="240.77" y2="160.02" style="fill: none;stroke: gray;stroke-miterlimit: 10;stroke-width: 4px"/>
      <polygon points="248.74 153.24 241.95 160.02 248.74 166.8 242.98 166.8 236.2 160.02 242.98 153.24 248.74 153.24" style="fill: gray"/>
    </g>
    <g>
      <path d="M242.71,40.15S349.28-68.46,466.37,80.82" style="fill: none;stroke: gray;stroke-miterlimit: 10;stroke-width: 4px;stroke-dasharray: 5"/>
      <polygon points="228.15 30.38 214.93 62.57 241.55 60.06 228.15 30.38" style="fill: gray"/>
    </g>
    <text transform="translate(110.4 80.16) scale(0.94 1)" style="font-size: 34.62495040893555px;fill: #ff931e;font-family: NunitoSans-Black, Nunito Sans;font-weight: 800">Goal</text>
    <text transform="translate(418.94 240.66) scale(0.94 1)" style="font-size: 23.08329963684082px;fill: #27187e;font-family: NunitoSans-Black, Nunito Sans;font-weight: 800"><tspan style="letter-spacing: -0.011980994369121867em">S</tspan><tspan x="15.05" y="0">ta</tspan><tspan x="37.14" y="0" style="letter-spacing: 0.052987643021172925em">r</tspan><tspan x="48.03" y="0">t with</tspan></text>
    <text transform="translate(299.43 243.65) scale(0.94 1)" style="font-size: 23.08329963684082px;fill: #27187e;font-family: NunitoSans-Black, Nunito Sans;font-weight: 800">Then do</text>
    <text transform="translate(440.83 145.01) scale(0.94 1)" style="font-size: 23.08329963684082px;fill: #fff;font-family: NunitoSans-ExtraBold, Nunito Sans;font-weight: 800">Think</text>
  </g>
</svg>
