<svg xmlns="http://www.w3.org/2000/svg" xmlns:xlink="http://www.w3.org/1999/xlink" viewBox="0 0 854.71 713.66">
  <defs>
    <radialGradient id="radial-gradient" cx="375.94" cy="289.8" r="122" gradientUnits="userSpaceOnUse">
      <stop offset="0" stop-color="#fff"/>
      <stop offset="0" stop-color="#ff931e"/>
      <stop offset="0.28" stop-color="#ff9420"/>
      <stop offset="0.38" stop-color="#fe9727"/>
      <stop offset="0.45" stop-color="#fd9b32"/>
      <stop offset="0.5" stop-color="#fba243"/>
      <stop offset="0.55" stop-color="#f9ab59"/>
      <stop offset="0.6" stop-color="#f6b675"/>
      <stop offset="0.64" stop-color="#f2c395"/>
      <stop offset="0.67" stop-color="#eed3bb"/>
      <stop offset="0.7" stop-color="#eae3e4"/>
      <stop offset="0.71" stop-color="#e9e8ef"/>
      <stop offset="0.81" stop-color="#f7f7f7"/>
      <stop offset="0.83" stop-color="#f4f4f5"/>
      <stop offset="0.84" stop-color="#ecebf0"/>
      <stop offset="0.85" stop-color="#dddbe8"/>
      <stop offset="0.86" stop-color="#c9c6dc"/>
      <stop offset="0.87" stop-color="#afa9cd"/>
      <stop offset="0.88" stop-color="#8e86b9"/>
      <stop offset="0.89" stop-color="#685ea3"/>
      <stop offset="0.89" stop-color="#554998"/>
    </radialGradient>
  </defs>
  <title>Artboard 1</title>
  <g id="Layer_1" data-name="Layer 1">
    <g>
      <path d="M371.94,579.6A286.8,286.8,0,0,1,169.14,90,286.8,286.8,0,1,1,574.73,495.6,284.9,284.9,0,0,1,371.94,579.6Z" style="fill: #f1f2f6"/>
      <path d="M371.94,12A280.88,280.88,0,0,1,481.23,551.54,280.88,280.88,0,0,1,262.64,34.06,279,279,0,0,1,371.94,12m0-12C210.23,0,79.14,131.09,79.14,292.8s131.09,292.8,292.8,292.8,292.8-131.09,292.8-292.8S533.65,0,371.94,0Z" style="fill: #666"/>
    </g>
    <circle cx="375.94" cy="289.8" r="122" style="fill: url(#radial-gradient)"/>
  </g>
  <g id="Layer_2" data-name="Layer 2">
    <text transform="translate(290.28 283.59)" style="font-size: 36px;font-family: NunitoSans-Black, Nunito Sans;font-weight: 800">CI<tspan x="35.64" y="0" style="letter-spacing: -0.004991319444444444em">R</tspan><tspan x="60.91" y="0">CLE </tspan><tspan x="137.7" y="0" style="font-family: NunitoSans-Regular, Nunito Sans;font-weight: 400;letter-spacing: -0.001003689236111111em">o</tspan><tspan x="157.64" y="0" style="font-family: NunitoSans-Regular, Nunito Sans;font-weight: 400">f</tspan><tspan x="169.45" y="0"> </tspan><tspan x="0" y="43.2" style="letter-spacing: -0.0159912109375em">C</tspan><tspan x="23.83" y="43.2">ONT</tspan><tspan x="102.49" y="43.2" style="letter-spacing: -0.004991319444444444em">R</tspan><tspan x="127.76" y="43.2" style="letter-spacing: 0.000013563368055555555em">OL</tspan></text>
    <text transform="matrix(0.06, 1.02, -1, 0.06, 226.7, 312.9)" style="font-size: 24px;fill: #4d4d4d;font-family: NunitoSans-Bold, Nunito Sans;font-weight: 700">C</text>
    <text transform="translate(227.88 330.44) rotate(80) scale(1.02 1)" style="font-size: 24px;fill: #4d4d4d;font-family: NunitoSans-Bold, Nunito Sans;font-weight: 700">o</text>
    <text transform="matrix(0.26, 0.99, -0.97, 0.25, 230.64, 345.09)" style="font-size: 24px;fill: #4d4d4d;font-family: NunitoSans-Bold, Nunito Sans;font-weight: 700">l</text>
    <text transform="translate(232.28 351.94) rotate(71.14) scale(1.02 1)" style="font-size: 24px;fill: #4d4d4d;font-family: NunitoSans-Bold, Nunito Sans;font-weight: 700">o</text>
    <text transform="translate(237.28 366.12) rotate(66.03) scale(1.02 1)" style="font-size: 24px;fill: #4d4d4d;font-family: NunitoSans-Bold, Nunito Sans;font-weight: 700">r</text>
    <text transform="translate(241.41 375.26) rotate(62.58) scale(1.02 1)" style="font-size: 24px;fill: #4d4d4d;font-family: NunitoSans-Bold, Nunito Sans;font-weight: 700"> </text>
    <text transform="matrix(0.54, 0.87, -0.85, 0.53, 244.75, 381.94)" style="font-size: 24px;fill: #4d4d4d;font-family: NunitoSans-Bold, Nunito Sans;font-weight: 700">o</text>
    <text transform="translate(252.75 394.53) rotate(53.31) scale(1.02 1)" style="font-size: 24px;fill: #4d4d4d;font-family: NunitoSans-Bold, Nunito Sans;font-weight: 700">f</text>
    <text transform="translate(258.38 402.01) rotate(50.07) scale(1.02 1)" style="font-size: 24px;fill: #4d4d4d;font-family: NunitoSans-Bold, Nunito Sans;font-weight: 700"> </text>
    <text transform="translate(263.08 407.86) rotate(45.41) scale(1.02 1)" style="font-size: 24px;fill: #4d4d4d;font-family: NunitoSans-Bold, Nunito Sans;font-weight: 700">S</text>
    <text transform="translate(274.91 419.69) rotate(39.44) scale(1.02 1)" style="font-size: 24px;fill: #4d4d4d;font-family: NunitoSans-Bold, Nunito Sans;font-weight: 700">k</text>
    <text transform="matrix(0.83, 0.59, -0.58, 0.81, 285.73, 428.4)" style="font-size: 24px;fill: #4d4d4d;font-family: NunitoSans-Bold, Nunito Sans;font-weight: 700">i</text>
    <text transform="matrix(0.88, 0.53, -0.52, 0.86, 291.35, 432.55)" style="font-size: 24px;fill: #4d4d4d;font-family: NunitoSans-Bold, Nunito Sans;font-weight: 700">n</text>
    <text transform="matrix(0.91, 0.46, -0.45, 0.89, 304.41, 440.25)" style="font-size: 24px;fill: #4d4d4d;font-family: NunitoSans-Bold, Nunito Sans;font-weight: 700"> </text>
    <text transform="translate(310.78 443.47) rotate(24.15) scale(1.02 1)" style="font-size: 24px;fill: #4d4d4d;font-family: NunitoSans-Bold, Nunito Sans;font-weight: 700"> </text>
    <text transform="matrix(0.98, 0.3, -0.3, 0.96, 317.81, 447.22)" style="font-size: 24px;fill: #4d4d4d;font-family: NunitoSans-Bold, Nunito Sans;font-weight: 700">W</text>
    <text transform="translate(343.93 454.82) rotate(9.59) scale(1.02 1)" style="font-size: 24px;fill: #4d4d4d;font-family: NunitoSans-Bold, Nunito Sans;font-weight: 700">e</text>
    <text transform="matrix(1.02, 0.08, -0.07, 1, 357.74, 457.11)" style="font-size: 24px;fill: #4d4d4d;font-family: NunitoSans-Bold, Nunito Sans;font-weight: 700">a</text>
    <text transform="translate(371.73 458.11) rotate(-0.91) scale(1.02 1)" style="font-size: 24px;fill: #4d4d4d;font-family: NunitoSans-Bold, Nunito Sans;font-weight: 700">t</text>
    <text transform="matrix(1.02, -0.08, 0.08, 1, 381.54, 458.11)" style="font-size: 24px;fill: #4d4d4d;font-family: NunitoSans-Bold, Nunito Sans;font-weight: 700">h</text>
    <text transform="translate(396.84 456.76) rotate(-10.26) scale(1.02 1)" style="font-size: 24px;fill: #4d4d4d;font-family: NunitoSans-Bold, Nunito Sans;font-weight: 700">e</text>
    <text transform="translate(410.46 454.19) rotate(-14.82) scale(1.02 1)" style="font-size: 24px;fill: #4d4d4d;font-family: NunitoSans-Bold, Nunito Sans;font-weight: 700">r</text>
    <text transform="translate(420.13 451.57) rotate(-18.11) scale(1.02 1)" style="font-size: 24px;fill: #4d4d4d;font-family: NunitoSans-Bold, Nunito Sans;font-weight: 700"> </text>
    <text transform="translate(426.9 449.34) rotate(-20.83) scale(1.02 1)" style="font-size: 24px;fill: #4d4d4d;font-family: NunitoSans-Bold, Nunito Sans;font-weight: 700"> </text>
    <text transform="translate(433.98 446.83) rotate(-25.52) scale(1.02 1)" style="font-size: 24px;fill: #4d4d4d;font-family: NunitoSans-Bold, Nunito Sans;font-weight: 700">P</text>
    <text transform="translate(449.21 439.43) rotate(-31.43) scale(1.02 1)" style="font-size: 24px;fill: #4d4d4d;font-family: NunitoSans-Bold, Nunito Sans;font-weight: 700">a</text>
    <text transform="translate(461.28 431.96) rotate(-36.61) scale(1.02 1)" style="font-size: 24px;fill: #4d4d4d;font-family: NunitoSans-Bold, Nunito Sans;font-weight: 700">s</text>
    <text transform="translate(471.32 424.41) rotate(-40.89) scale(1.02 1)" style="font-size: 24px;fill: #4d4d4d;font-family: NunitoSans-Bold, Nunito Sans;font-weight: 700">t</text>
    <text transform="translate(478.59 418.05) rotate(-44.15) scale(1.02 1)" style="font-size: 24px;fill: #4d4d4d;font-family: NunitoSans-Bold, Nunito Sans;font-weight: 700"> </text>
    <text transform="matrix(0.66, -0.78, 0.76, 0.64, 484.32, 412.91)" style="font-size: 24px;fill: #4d4d4d;font-family: NunitoSans-Bold, Nunito Sans;font-weight: 700">M</text>
    <text transform="matrix(0.58, -0.84, 0.82, 0.57, 497.97, 396.1)" style="font-size: 24px;fill: #4d4d4d;font-family: NunitoSans-Bold, Nunito Sans;font-weight: 700">i</text>
    <text transform="matrix(0.52, -0.88, 0.86, 0.51, 501.96, 390.42)" style="font-size: 24px;fill: #4d4d4d;font-family: NunitoSans-Bold, Nunito Sans;font-weight: 700">s</text>
    <text transform="translate(508.3 379.56) rotate(-63.79) scale(1.02 1)" style="font-size: 24px;fill: #4d4d4d;font-family: NunitoSans-Bold, Nunito Sans;font-weight: 700">t</text>
    <text transform="translate(512.74 370.67) rotate(-68.62) scale(1.02 1)" style="font-size: 24px;fill: #4d4d4d;font-family: NunitoSans-Bold, Nunito Sans;font-weight: 700">a</text>
    <text transform="translate(517.9 357.34) rotate(-74.36) scale(1.02 1)" style="font-size: 24px;fill: #4d4d4d;font-family: NunitoSans-Bold, Nunito Sans;font-weight: 700">k</text>
    <text transform="translate(521.63 343.85) rotate(-79.99) scale(1.02 1)" style="font-size: 24px;fill: #4d4d4d;font-family: NunitoSans-Bold, Nunito Sans;font-weight: 700">e</text>
    <text transform="translate(524 330.02) rotate(-85.41) scale(1.02 1)" style="font-size: 24px;fill: #4d4d4d;font-family: NunitoSans-Bold, Nunito Sans;font-weight: 700">s</text>
    <text transform="translate(192.68 363.4) rotate(75.97) scale(1.08 1)" style="font-size: 24px;fill: #4d4d4d;font-family: NunitoSans-Bold, Nunito Sans;font-weight: 700">C</text>
    <text transform="translate(197.23 381.15) rotate(70.03) scale(1.08 1)" style="font-size: 24px;fill: #4d4d4d;font-family: NunitoSans-Bold, Nunito Sans;font-weight: 700">o</text>
    <text transform="translate(202.69 395.93) rotate(65) scale(1.08 1)" style="font-size: 24px;fill: #4d4d4d;font-family: NunitoSans-Bold, Nunito Sans;font-weight: 700">s</text>
    <text transform="translate(208.29 407.76) rotate(61.06) scale(1.08 1)" style="font-size: 24px;fill: #4d4d4d;font-family: NunitoSans-Bold, Nunito Sans;font-weight: 700">t</text>
    <text transform="translate(213.21 416.55) rotate(58.1) scale(1.08 1)" style="font-size: 24px;fill: #4d4d4d;font-family: NunitoSans-Bold, Nunito Sans;font-weight: 700"> </text>
    <text transform="translate(217.17 423.13) rotate(54.26) scale(1.08 1)" style="font-size: 24px;fill: #4d4d4d;font-family: NunitoSans-Bold, Nunito Sans;font-weight: 700">o</text>
    <text transform="translate(226.33 435.64) rotate(50.13) scale(1.08 1)" style="font-size: 24px;fill: #4d4d4d;font-family: NunitoSans-Bold, Nunito Sans;font-weight: 700">f</text>
    <text transform="translate(232.6 443.09) rotate(47.37) scale(1.08 1)" style="font-size: 24px;fill: #4d4d4d;font-family: NunitoSans-Bold, Nunito Sans;font-weight: 700"> </text>
    <text transform="translate(237.72 448.83) rotate(43.54) scale(1.08 1)" style="font-size: 24px;fill: #4d4d4d;font-family: NunitoSans-Bold, Nunito Sans;font-weight: 700">T</text>
    <text transform="translate(248.32 458.94) rotate(39.13) scale(1.08 1)" style="font-size: 24px;fill: #4d4d4d;font-family: NunitoSans-Bold, Nunito Sans;font-weight: 700">u</text>
    <text transform="matrix(0.88, 0.63, -0.58, 0.81, 260.48, 468.65)" style="font-size: 24px;fill: #4d4d4d;font-family: NunitoSans-Bold, Nunito Sans;font-weight: 700">i</text>
    <text transform="matrix(0.9, 0.59, -0.55, 0.84, 266.18, 472.76)" style="font-size: 24px;fill: #4d4d4d;font-family: NunitoSans-Bold, Nunito Sans;font-weight: 700">t</text>
    <text transform="matrix(0.93, 0.55, -0.51, 0.86, 274.58, 478.18)" style="font-size: 24px;fill: #4d4d4d;font-family: NunitoSans-Bold, Nunito Sans;font-weight: 700">i</text>
    <text transform="matrix(0.96, 0.49, -0.46, 0.89, 280.71, 481.91)" style="font-size: 24px;fill: #4d4d4d;font-family: NunitoSans-Bold, Nunito Sans;font-weight: 700">o</text>
    <text transform="matrix(1, 0.41, -0.38, 0.92, 294.69, 489.03)" style="font-size: 24px;fill: #4d4d4d;font-family: NunitoSans-Bold, Nunito Sans;font-weight: 700">n</text>
    <text transform="matrix(1.02, 0.35, -0.33, 0.95, 309.28, 494.89)" style="font-size: 24px;fill: #4d4d4d;font-family: NunitoSans-Bold, Nunito Sans;font-weight: 700"> </text>
    <text transform="translate(316.27 497.3) rotate(16.84) scale(1.08 1)" style="font-size: 24px;fill: #4d4d4d;font-family: NunitoSans-Bold, Nunito Sans;font-weight: 700"> </text>
    <text transform="matrix(1.05, 0.25, -0.23, 0.97, 323.55, 499.64)" style="font-size: 24px;fill: #4d4d4d;font-family: NunitoSans-Bold, Nunito Sans;font-weight: 700">P</text>
    <text transform="translate(340.64 503.56) rotate(8.59) scale(1.08 1)" style="font-size: 24px;fill: #4d4d4d;font-family: NunitoSans-Bold, Nunito Sans;font-weight: 700">a</text>
    <text transform="matrix(1.07, 0.09, -0.09, 1, 355.08, 505.66)" style="font-size: 24px;fill: #4d4d4d;font-family: NunitoSans-Bold, Nunito Sans;font-weight: 700">r</text>
    <text transform="translate(365.28 506.6) rotate(1.61) scale(1.08 1)" style="font-size: 24px;fill: #4d4d4d;font-family: NunitoSans-Bold, Nunito Sans;font-weight: 700">e</text>
    <text transform="translate(379.68 507) rotate(-2.59) scale(1.08 1)" style="font-size: 24px;fill: #4d4d4d;font-family: NunitoSans-Bold, Nunito Sans;font-weight: 700">n</text>
    <text transform="matrix(1.07, -0.12, 0.11, 0.99, 395.45, 506.18)" style="font-size: 24px;fill: #4d4d4d;font-family: NunitoSans-Bold, Nunito Sans;font-weight: 700">t</text>
    <text transform="translate(405.51 505.11) rotate(-9.55) scale(1.08 1)" style="font-size: 24px;fill: #4d4d4d;font-family: NunitoSans-Bold, Nunito Sans;font-weight: 700">s</text>
    <text transform="translate(418.36 502.86) rotate(-12.51) scale(1.08 1)" style="font-size: 24px;fill: #4d4d4d;font-family: NunitoSans-Bold, Nunito Sans;font-weight: 700"> </text>
    <text transform="matrix(1.04, -0.27, 0.25, 0.97, 425.56, 501.25)" style="font-size: 24px;fill: #4d4d4d;font-family: NunitoSans-Bold, Nunito Sans;font-weight: 700"> </text>
    <text transform="translate(433.05 499.46) rotate(-18.47) scale(1.08 1)" style="font-size: 24px;fill: #4d4d4d;font-family: NunitoSans-Bold, Nunito Sans;font-weight: 700">R</text>
    <text transform="matrix(0.99, -0.43, 0.4, 0.92, 450.91, 493.39)" style="font-size: 24px;fill: #4d4d4d;font-family: NunitoSans-Bold, Nunito Sans;font-weight: 700">u</text>
    <text transform="translate(465.39 487.05) rotate(-28.34) scale(1.08 1)" style="font-size: 24px;fill: #4d4d4d;font-family: NunitoSans-Bold, Nunito Sans;font-weight: 700">d</text>
    <text transform="matrix(0.9, -0.59, 0.54, 0.84, 479.76, 479.22)" style="font-size: 24px;fill: #4d4d4d;font-family: NunitoSans-Bold, Nunito Sans;font-weight: 700">e</text>
    <text transform="matrix(0.87, -0.64, 0.59, 0.81, 491.68, 471.34)" style="font-size: 24px;fill: #4d4d4d;font-family: NunitoSans-Bold, Nunito Sans;font-weight: 700"> </text>
    <text transform="translate(498 466.89) rotate(-40.3) scale(1.08 1)" style="font-size: 24px;fill: #4d4d4d;font-family: NunitoSans-Bold, Nunito Sans;font-weight: 700">C</text>
    <text transform="translate(511.83 455.05) rotate(-45.59) scale(1.08 1)" style="font-size: 24px;fill: #4d4d4d;font-family: NunitoSans-Bold, Nunito Sans;font-weight: 700">o</text>
    <text transform="translate(523.14 443.72) rotate(-51.94) scale(1.08 1)" style="font-size: 24px;fill: #4d4d4d;font-family: NunitoSans-Bold, Nunito Sans;font-weight: 700">m</text>
    <text transform="matrix(0.54, -0.93, 0.86, 0.5, 537.85, 424.79)" style="font-size: 24px;fill: #4d4d4d;font-family: NunitoSans-Bold, Nunito Sans;font-weight: 700">m</text>
    <text transform="translate(549.5 404.1) rotate(-66.43) scale(1.08 1)" style="font-size: 24px;fill: #4d4d4d;font-family: NunitoSans-Bold, Nunito Sans;font-weight: 700">e</text>
    <text transform="translate(555.35 390.67) rotate(-71.74) scale(1.08 1)" style="font-size: 24px;fill: #4d4d4d;font-family: NunitoSans-Bold, Nunito Sans;font-weight: 700">n</text>
    <text transform="matrix(0.25, -1.05, 0.97, 0.24, 560.21, 375.48)" style="font-size: 24px;fill: #4d4d4d;font-family: NunitoSans-Bold, Nunito Sans;font-weight: 700">t</text>
    <text transform="translate(562.66 365.5) rotate(-80.49) scale(1.08 1)" style="font-size: 24px;fill: #4d4d4d;font-family: NunitoSans-Bold, Nunito Sans;font-weight: 700">s</text>
    <text transform="matrix(0.41, 1.15, -0.94, 0.34, 165.48, 423.06)" style="font-size: 21px;font-family: NunitoSans-Regular, Nunito Sans"> </text>
    <text transform="translate(167.88 429.67) rotate(67.53) scale(1.22 1)" style="font-size: 21px;font-family: NunitoSans-Regular, Nunito Sans"> </text>
    <text transform="translate(170.56 436.45) rotate(63.43) scale(1.22 1)" style="font-size: 21px;fill: #4d4d4d;font-family: NunitoSans-Bold, Nunito Sans;font-weight: 700">L</text>
    <text transform="matrix(0.65, 1.04, -0.85, 0.53, 177.32, 449.9)" style="font-size: 21px;fill: #4d4d4d;font-family: NunitoSans-Bold, Nunito Sans;font-weight: 700">o</text>
    <text transform="matrix(0.74, 0.98, -0.8, 0.6, 185.51, 462.88)" style="font-size: 21px;fill: #4d4d4d;font-family: NunitoSans-Bold, Nunito Sans;font-weight: 700">v</text>
    <text transform="translate(194 474.07) rotate(48.61) scale(1.22 1)" style="font-size: 21px;fill: #4d4d4d;font-family: NunitoSans-Bold, Nunito Sans;font-weight: 700">s</text>
    <text transform="matrix(0.87, 0.86, -0.7, 0.71, 202.56, 483.77)" style="font-size: 21px;fill: #4d4d4d;font-family: NunitoSans-Bold, Nunito Sans;font-weight: 700">y</text>
    <text transform="matrix(0.92, 0.81, -0.66, 0.75, 212.63, 493.5)" style="font-size: 21px;fill: #4d4d4d;font-family: NunitoSans-Bold, Nunito Sans;font-weight: 700">i</text>
    <text transform="matrix(0.96, 0.75, -0.62, 0.79, 217.86, 498.23)" style="font-size: 21px;fill: #4d4d4d;font-family: NunitoSans-Bold, Nunito Sans;font-weight: 700">o</text>
    <text transform="translate(230.02 507.74) rotate(33.81) scale(1.22 1)" style="font-size: 21px;fill: #4d4d4d;font-family: NunitoSans-Bold, Nunito Sans;font-weight: 700">n</text>
    <text transform="translate(242.96 516.26) rotate(30.75) scale(1.22 1)" style="font-size: 21px;fill: #4d4d4d;font-family: NunitoSans-Bold, Nunito Sans;font-weight: 700"> </text>
    <text transform="matrix(1.08, 0.57, -0.47, 0.88, 249.32, 520.14)" style="font-size: 21px;fill: #4d4d4d;font-family: NunitoSans-Bold, Nunito Sans;font-weight: 700">o</text>
    <text transform="translate(262.96 527.32) rotate(23.85) scale(1.22 1)" style="font-size: 21px;fill: #4d4d4d;font-family: NunitoSans-Bold, Nunito Sans;font-weight: 700">g</text>
    <text transform="translate(277.6 533.66) rotate(20.99) scale(1.22 1)" style="font-size: 21px;fill: #4d4d4d;font-family: NunitoSans-Bold, Nunito Sans;font-weight: 700"> </text>
    <text transform="matrix(1.16, 0.38, -0.31, 0.95, 284.52, 536.45)" style="font-size: 21px;fill: #4d4d4d;font-family: NunitoSans-Bold, Nunito Sans;font-weight: 700">B</text>
    <text transform="matrix(1.18, 0.32, -0.26, 0.97, 301.69, 541.85)" style="font-size: 21px;fill: #4d4d4d;font-family: NunitoSans-Bold, Nunito Sans;font-weight: 700">i</text>
    <text transform="translate(308.28 543.64) rotate(13.06) scale(1.22 1)" style="font-size: 21px;fill: #4d4d4d;font-family: NunitoSans-Bold, Nunito Sans;font-weight: 700">r</text>
    <text transform="translate(319.41 546.18) rotate(10.49) scale(1.22 1)" style="font-size: 21px;fill: #4d4d4d;font-family: NunitoSans-Bold, Nunito Sans;font-weight: 700">t</text>
    <text transform="translate(329.16 548.05) rotate(7.64) scale(1.22 1)" style="font-size: 21px;fill: #4d4d4d;font-family: NunitoSans-Bold, Nunito Sans;font-weight: 700">h</text>
    <text transform="translate(344.46 550) rotate(5.12) scale(1.22 1)" style="font-size: 21px;fill: #4d4d4d;font-family: NunitoSans-Bold, Nunito Sans;font-weight: 700"> </text>
    <text transform="translate(351.62 550.64) rotate(3.54) scale(1.22 1)" style="font-size: 21px;fill: #4d4d4d;font-family: NunitoSans-Bold, Nunito Sans;font-weight: 700"> </text>
    <text transform="matrix(1.22, -0.02, 0.01, 1, 359.26, 551.54)" style="font-size: 21px;fill: #4d4d4d;font-family: NunitoSans-Bold, Nunito Sans;font-weight: 700">W</text>
    <text transform="translate(388.45 550.92) rotate(-5.34) scale(1.22 1)" style="font-size: 21px;fill: #4d4d4d;font-family: NunitoSans-Bold, Nunito Sans;font-weight: 700">h</text>
    <text transform="matrix(1.21, -0.19, 0.15, 0.99, 403.96, 549.45)" style="font-size: 21px;fill: #4d4d4d;font-family: NunitoSans-Bold, Nunito Sans;font-weight: 700">o</text>
    <text transform="translate(418.94 547.05) rotate(-11.31) scale(1.22 1)" style="font-size: 21px;fill: #4d4d4d;font-family: NunitoSans-Bold, Nunito Sans;font-weight: 700"> </text>
    <text transform="translate(426.35 545.78) rotate(-14.76) scale(1.22 1)" style="font-size: 21px;fill: #4d4d4d;font-family: NunitoSans-Bold, Nunito Sans;font-weight: 700">w</text>
    <text transform="translate(448.06 539.8) rotate(-18.23) scale(1.22 1)" style="font-size: 21px;fill: #4d4d4d;font-family: NunitoSans-Bold, Nunito Sans;font-weight: 700">i</text>
    <text transform="matrix(1.15, -0.42, 0.34, 0.94, 454.51, 537.67)" style="font-size: 21px;fill: #4d4d4d;font-family: NunitoSans-Bold, Nunito Sans;font-weight: 700">l</text>
    <text transform="matrix(1.14, -0.45, 0.37, 0.93, 460.89, 535.36)" style="font-size: 21px;fill: #4d4d4d;font-family: NunitoSans-Bold, Nunito Sans;font-weight: 700">l</text>
    <text transform="translate(467.21 532.88) rotate(-23.2) scale(1.22 1)" style="font-size: 21px;fill: #4d4d4d;font-family: NunitoSans-Bold, Nunito Sans;font-weight: 700"> </text>
    <text transform="translate(474.25 530.11) rotate(-26.96) scale(1.22 1)" style="font-size: 21px;fill: #4d4d4d;font-family: NunitoSans-Bold, Nunito Sans;font-weight: 700">w</text>
    <text transform="translate(494.26 519.62) rotate(-30.8) scale(1.22 1)" style="font-size: 21px;fill: #4d4d4d;font-family: NunitoSans-Bold, Nunito Sans;font-weight: 700">i</text>
    <text transform="matrix(1.02, -0.68, 0.56, 0.83, 500.32, 516.12)" style="font-size: 21px;fill: #4d4d4d;font-family: NunitoSans-Bold, Nunito Sans;font-weight: 700">n</text>
    <text transform="translate(513.15 507.39) rotate(-36.95) scale(1.22 1)" style="font-size: 21px;fill: #4d4d4d;font-family: NunitoSans-Bold, Nunito Sans;font-weight: 700"> </text>
    <text transform="translate(519.33 502.97) rotate(-40.85) scale(1.22 1)" style="font-size: 21px;fill: #4d4d4d;font-family: NunitoSans-Bold, Nunito Sans;font-weight: 700">N</text>
    <text transform="matrix(0.84, -0.89, 0.73, 0.69, 534.51, 489.74)" style="font-size: 21px;fill: #4d4d4d;font-family: NunitoSans-Bold, Nunito Sans;font-weight: 700">B</text>
    <text transform="matrix(0.74, -0.97, 0.8, 0.6, 547.17, 476.34)" style="font-size: 21px;fill: #4d4d4d;font-family: NunitoSans-Bold, Nunito Sans;font-weight: 700">A</text>
    <text transform="translate(558.93 460.41) rotate(-57.43) scale(1.22 1)" style="font-size: 21px;fill: #4d4d4d;font-family: NunitoSans-Bold, Nunito Sans;font-weight: 700"> </text>
    <text transform="matrix(0.58, -1.08, 0.88, 0.47, 563.16, 454.05)" style="font-size: 21px;fill: #4d4d4d;font-family: NunitoSans-Bold, Nunito Sans;font-weight: 700">fi</text>
    <text transform="translate(571.02 439.33) rotate(-67.68) scale(1.22 1)" style="font-size: 21px;fill: #4d4d4d;font-family: NunitoSans-Bold, Nunito Sans;font-weight: 700">n</text>
    <text transform="translate(577.01 424.55) rotate(-73.54) scale(1.22 1)" style="font-size: 21px;fill: #4d4d4d;font-family: NunitoSans-Bold, Nunito Sans;font-weight: 700">a</text>
    <text transform="translate(580.98 410.55) rotate(-77.8) scale(1.22 1)" style="font-size: 21px;fill: #4d4d4d;font-family: NunitoSans-Bold, Nunito Sans;font-weight: 700">l</text>
    <text transform="matrix(0.35, -0.92, 0.94, 0.35, 198.95, 248.5)" style="font-size: 58px;fill: #666;font-family: NunitoSans-Bold, Nunito Sans;font-weight: 700">C</text>
    <text transform="translate(212.91 213.64) rotate(-61.54) scale(0.99 1)" style="font-size: 58px;fill: #666;font-family: NunitoSans-Bold, Nunito Sans;font-weight: 700">i</text>
    <text transform="translate(219.24 201.51) rotate(-56.25) scale(0.99 1)" style="font-size: 58px;fill: #666;font-family: NunitoSans-Bold, Nunito Sans;font-weight: 700">r</text>
    <text transform="translate(230.24 184.54) rotate(-49.19) scale(0.99 1)" style="font-size: 58px;fill: #666;font-family: NunitoSans-Bold, Nunito Sans;font-weight: 700">c</text>
    <text transform="matrix(0.72, -0.67, 0.68, 0.73, 248.05, 164.37)" style="font-size: 58px;fill: #666;font-family: NunitoSans-Bold, Nunito Sans;font-weight: 700">l</text>
    <text transform="translate(257.56 154.79) rotate(-36.46) scale(0.99 1)" style="font-size: 58px;fill: #666;font-family: NunitoSans-Bold, Nunito Sans;font-weight: 700">e</text>
    <text transform="matrix(0.86, -0.49, 0.5, 0.87, 281.32, 137.69)" style="font-size: 58px;fill: #666;font-family: NunitoSans-Bold, Nunito Sans;font-weight: 700"> </text>
    <text transform="translate(293.5 130.02) rotate(-22.53) scale(0.99 1)" style="font-size: 58px;fill: #666;font-family: NunitoSans-Bold, Nunito Sans;font-weight: 700">o</text>
    <text transform="translate(322.67 118.27) rotate(-14.61) scale(0.99 1)" style="font-size: 58px;fill: #666;font-family: NunitoSans-Bold, Nunito Sans;font-weight: 700">f</text>
    <text transform="matrix(0.98, -0.16, 0.16, 0.99, 341.68, 113.39)" style="font-size: 58px;fill: #666;font-family: NunitoSans-Bold, Nunito Sans;font-weight: 700"> </text>
    <text transform="matrix(0.99, -0.02, 0.02, 1, 355.49, 110.15)" style="font-size: 58px;fill: #666;font-family: NunitoSans-Bold, Nunito Sans;font-weight: 700">N</text>
    <text transform="matrix(0.97, 0.18, -0.18, 0.98, 396.49, 109.84)" style="font-size: 58px;fill: #666;font-family: NunitoSans-Bold, Nunito Sans;font-weight: 700">o</text>
    <text transform="matrix(0.94, 0.3, -0.31, 0.95, 427.6, 116.1)" style="font-size: 58px;fill: #666;font-family: NunitoSans-Bold, Nunito Sans;font-weight: 700"> </text>
    <text transform="translate(441.47 119.58) rotate(25.85) scale(0.99 1)" style="font-size: 58px;fill: #666;font-family: NunitoSans-Bold, Nunito Sans;font-weight: 700">C</text>
    <text transform="translate(474.38 135.61) rotate(36.26) scale(0.99 1)" style="font-size: 58px;fill: #666;font-family: NunitoSans-Bold, Nunito Sans;font-weight: 700">o</text>
    <text transform="matrix(0.69, 0.71, -0.72, 0.7, 499.76, 154.03)" style="font-size: 58px;fill: #666;font-family: NunitoSans-Bold, Nunito Sans;font-weight: 700">n</text>
    <text transform="matrix(0.58, 0.8, -0.81, 0.59, 521.91, 177.4)" style="font-size: 58px;fill: #666;font-family: NunitoSans-Bold, Nunito Sans;font-weight: 700">t</text>
    <text transform="translate(533.85 193.6) rotate(60.1) scale(0.99 1)" style="font-size: 58px;fill: #666;font-family: NunitoSans-Bold, Nunito Sans;font-weight: 700">r</text>
    <text transform="translate(544.31 210.79) rotate(67.89) scale(0.99 1)" style="font-size: 58px;fill: #666;font-family: NunitoSans-Bold, Nunito Sans;font-weight: 700">o</text>
    <text transform="translate(555.82 240.4) rotate(74.78) scale(0.99 1)" style="font-size: 58px;fill: #666;font-family: NunitoSans-Bold, Nunito Sans;font-weight: 700">l</text>
    <text/>  </g>
  <g id="Layer_3" data-name="Layer 3">
    <g>
      <polyline points="175.94 378.8 68.94 379.97 68.94 591.32" style="fill: none;stroke: #666;stroke-miterlimit: 10;stroke-width: 8px"/>
      <path d="M68.94,588.1c8.36-8.36,24.89-12.35,36.36-12.67-15.4,11.46-28.83,26.35-36.36,44.37-7.21-18-21.46-32.26-36.36-44.37C44.86,576.41,59.76,579.41,68.94,588.1Z" style="fill: #666"/>
    </g>
    <g>
      <polyline points="467.94 291.8 697.63 292.8 697.63 492.8 697.87 586.32" style="fill: none;stroke: #ff931e;stroke-miterlimit: 10;stroke-width: 8px"/>
      <path d="M697.86,583.1c8.34-8.38,24.86-12.41,36.32-12.77-15.37,11.5-28.76,26.43-36.24,44.47-7.26-18-21.54-32.2-36.47-44.28C673.75,571.47,688.66,574.43,697.86,583.1Z" style="fill: #ff931e"/>
    </g>
    <text transform="translate(0.97 654.03)" style="font-size: 36px;fill: #27187e;font-family: NunitoSans-SemiBold, Nunito Sans;font-weight: 600"><tspan style="letter-spacing: -0.0769992404513889em">Y</tspan><tspan x="19.22" y="0">ou cann</tspan><tspan x="147.63" y="0" style="letter-spacing: -0.0019938151041666665em">o</tspan><tspan x="167.87" y="0">t change..</tspan></text>
    <text transform="translate(542.38 655.52)" style="font-size: 36px;fill: #27187e;font-family: NunitoSans-SemiBold, Nunito Sans;font-weight: 600"><tspan style="letter-spacing: -0.07698567708333333em">Y</tspan><tspan x="19.22" y="0">ou can change</tspan><tspan style="font-family: NunitoSans-Black, Nunito Sans;font-weight: 800"><tspan x="0" y="48" style="letter-spacing: -0.009982638888888888em">F</tspan><tspan x="20.45" y="48">ocus on this !</tspan></tspan></text>
  </g>
</svg>
