<svg xmlns="http://www.w3.org/2000/svg" viewBox="0 0 686 650">
  <title>Artboard 1</title>
  <g id="Layer_2" data-name="Layer 2">
    <rect x="-1" y="-5" width="688" height="656" style="fill: #fff"/>
  </g>
  <g id="Layer_5" data-name="Layer 5">
    <path d="M535,579H447a40,40,0,0,1-40-40V427a40,40,0,0,1,40-40h12.92c8.32,0,16.85-6.65,19.07-15l8.48-32c2.48-9.31-2.81-17-11.85-17H447a40,40,0,0,1-40-40V267a40,40,0,0,1,40-40h24a16,16,0,0,0,16-16V179a16,16,0,0,0-16-16H423a80,80,0,0,0-80,80v40a40,40,0,0,1-40,40h-7.63c-9,0-16.38,7.71-16.38,17v32a15,15,0,0,0,15.07,15H303a40,40,0,0,1,40,40V539a40,40,0,0,1-40,40h-8a16,16,0,1,1,0-32,16,16,0,0,0,16-16V435a16,16,0,0,0-16-16h-10.5A37.39,37.39,0,0,1,247,381.42V333.5c0-23.15,18.37-42.51,41-42.51h7a16,16,0,0,0,16-16V235A104,104,0,0,1,415,131h64a40,40,0,0,1,40,40v48a40,40,0,0,1-40,40H439v16a16,16,0,0,0,16,16h30c22.67,0,37.4,19.36,33.06,42.51l-9,47.92c-3.93,21-23.82,37.58-44.54,37.58H455a16,16,0,0,0-16,16v96a16,16,0,0,0,16,16h80a32,32,0,0,0,32-32V131a32,32,0,0,0-32-32H151a32,32,0,0,0-32,32V515a32,32,0,0,0,32,32h16a16,16,0,0,1,0,32H151a64,64,0,0,1-64-64V131a64,64,0,0,1,64-64H535a64,64,0,0,1,64,64V515a64,64,0,0,1-64,64ZM231,547a16,16,0,1,1-16,16,16,16,0,0,1,16-16Z" style="fill: #3b5998;fill-rule: evenodd"/>
  </g>
</svg>
