<svg id="Layer_2" data-name="Layer 2" xmlns="http://www.w3.org/2000/svg" viewBox="0 0 349 431.75">
  <title>Artboard 1</title>
  <path d="M171.2,25.75s-18.9-14-25.2,2.1,11.9,16.8,11.9,16.8l4.9,3.5,3.5-1.4,2.8-.7s-5.6,8.4-6.3,12.6-6.3,9.8-10.5,13.3-10.5,8.4-14.7,14.7a7.27,7.27,0,0,1-4.9,3.5c-3.5.7-14.7,1.4-14.7,1.4s-2.1.7-.7,1.4,7,.7,7,.7,1.4,0,.7,1.4-5.6,4.9-7,4.9-2.8.7-1.4,1.4,5.6,6.3,11.2,2.1,4.9-6.3,6.3-7,18.2-9.1,23.1-15.4a90.89,90.89,0,0,1,10.5-11.2c.7-.7,7.7-13.3,16.8-16.1,0,0,15.4-2.8,16.1-4.2s9.1-1.4,11.2,0,4.9,4.2,4.2,6.3S205.5,72,203.4,79.65s-2.1,11.2-2.1,18.2c0,0,2.1,15.4-.7,20.3s-5.6,9.8-7.7,11.2-6.3,1.4-6.3,2.8v1.4l-2.1,1.4-5.6-.7-3.5-1.4-2.1,1.4s-6.3,15.4-9.1,18.2-14.7,16.1-19.6,17.5-9.1-2.1-9.8,3.5a40.3,40.3,0,0,1-2.1,9.1s-20.3,21.7-21,25.2-4.2,9.8-4.2,9.8a61.24,61.24,0,0,0-30.1-10.5c-18.2-1.4-24.5-6.3-24.5-6.3s0-21.7,1.4-24.5,3.5-6.3,3.5-6.3,11.9-10.5,14-11.9,12.6-9.1,14.7-11.9,11.2-18.2,13.3-21,2.8-5.6,4.2-5.6,2.8-2.8,3.5-6.3,1.4-4.2,2.8-4.9,3.5-4.2,1.4-3.5a31.49,31.49,0,0,1-5.6,1.4c-.7,0-6.3,4.9-6.3,7.7a9.68,9.68,0,0,1-1.4,4.9S73.9,139.15,73.2,142s-7.7,7-7.7,7-22.4,9.1-23.8,11.2l-1.4,2.1-2.8-1.4s-8.4-5.6-13.3,0c0,0-4.9,4.9-2.8,9.1l2.1,4.2S12.3,185.35,12.3,191s-4.2,23.8-4.2,23.8l1.4,10.5s0,11.2,2.8,14c0,0,4.2,33.6,4.9,38.5s-5.6,17.5-6.3,21-6.3,32.9-6.3,42v5.6l2.1.7v2.8l-3.5,1.4s-3.5,12.6-3.5,15.4-.7,2.8-.7,2.8,4.9,4.2,7,2.8l2.1-1.4v6.3s8.4,3.5,11.2.7a8.67,8.67,0,0,1,5.6-2.8l-7,8.4S2.5,433.85,2.5,436s346.5,2.8,346.5,2.8V117.45s-11.2-3.5-14.7-.7-8.4,2.1-8.4,2.1l-1.4-5.6-7-.7-10.5-7.7v-7.7l-7-4.9-14-4.9-4.2,2.8-1.4,9.8-6.3-8.4-6.3-7.7h-7.7l-11.2.7h-3.5s-1.4-27.3,0-30.8,6.3-7,4.9-16.1-12.6-14-12.6-14l-14-1.4-8.4-4.2h-5.6l-2.1-1.4,12.6-4.2s21-2.8,23.8-2.8h2.8s.7,2.1,2.1,2.1,7.7,0,8.4-1.4S255.9,9,255.9,9h-3.5s-.7-1.4,0-1.4c0,0,6.3,1.4,6.3,0s-4.9-6.3-6.3-6.3-6.3-.7-7.7,1.4-25.9-.7-28.7,0-26.6,7.7-29.4,9.8S171.2,25.05,171.2,25.75Z" style="fill: #453f77"/>
</svg>
