<svg id="Layer_2" data-name="Layer 2" xmlns="http://www.w3.org/2000/svg" viewBox="0 0 500 647.02">
  <title>help</title>
  <path d="M350,41s-27-20-36,3,17,24,17,24l7,5,5-2,4-1s-8,12-9,18-9,14-15,19-15,12-21,21a10.39,10.39,0,0,1-7,5c-5,1-21,2-21,2s-3,1-1,2,10,1,10,1,2,0,1,2-8,7-10,7-4,1-2,2,8,9,16,3,7-9,9-10,26-13,33-22a129.85,129.85,0,0,1,15-16c1-1,11-19,24-23,0,0,22-4,23-6s13-2,16,0,7,6,6,9-15,23-18,34-3,16-3,26c0,0,3,22-1,29s-8,14-11,16-9,2-9,4v2l-3,2-8-1-5-2-3,2s-9,22-13,26-21,23-28,25-13-3-14,5a57.57,57.57,0,0,1-3,13s-29,31-30,36-6,14-6,14-17-13-43-15-35-9-35-9,0-31,2-35,5-9,5-9,17-15,20-17,18-13,21-17,16-26,19-30,4-8,6-8,4-4,5-9,2-6,4-7,5-6,2-5a45,45,0,0,1-8,2c-1,0-9,7-9,11a13.83,13.83,0,0,1-2,7s-35,29-36,33-11,10-11,10-32,13-34,16l-2,3-4-2s-12-8-19,0c0,0-7,7-4,13l3,6s-16,16-16,24-6,34-6,34l2,15s0,16,4,20c0,0,6,48,7,55s-8,25-9,30-9,47-9,60v8l3,1v4l-5,2s-5,18-5,22-1,4-1,4,7,6,10,4l3-2v9s12,5,16,1,8-4,8-4l-10,12s-22,72-22,75,495,4,495,4V172s-16-5-21-1-12,3-12,3l-2-8-10-1-15-11V143l-10-7-20-7-6,4-2,14-9-12-9-11H477l-16,1h-5s-2-39,0-44,9-10,7-23-18-20-18-20l-20-2-12-6h-8l-3-2,18-6s30-4,34-4h4s1,3,3,3,11,0,12-2-2-2-2-2h-5s-1-2,0-2c0,0,9,2,9,0s-7-9-9-9-9-1-11,2-37-1-41,0-38,11-42,14S350,40,350,41Z" transform="translate(-104 16.02)" style="fill: #27187e"/>
  <text x="-104" y="16.02"/></svg>
