<svg xmlns="http://www.w3.org/2000/svg" viewBox="0 0 687 656">
  <title>Artboard 1</title>
  <g id="Layer_2" data-name="Layer 2">
    <rect width="688" height="656" style="fill: #fff"/>
  </g>
  <g id="Layer_5" data-name="Layer 5">
    <path d="M472,152v32a16,16,0,0,0,16,16h32a16,16,0,0,1,0,32H480a39.89,39.89,0,0,1-39.68-36.77c-.09-1.08-.32-2.12-.32-3.23V152a16,16,0,0,1,32,0ZM216,344a16,16,0,1,1,16,16,16,16,0,0,1-16-16ZM344,456a127.45,127.45,0,0,1-89.32-36.41A16,16,0,1,1,276.06,396l.06-.06a95.91,95.91,0,0,0,162.8-54.33H439a16,16,0,0,1,31.65,4.75,15.16,15.16,0,0,1-.61,2.43C460.14,409.56,407.61,456,344,456Zm240-96a16,16,0,1,1,16-16,16,16,0,0,1-16,16ZM504,584H184a96,96,0,0,1-96-96V328a64,64,0,0,1,64-64h64a32,32,0,0,0,25.64-12.84,3.22,3.22,0,0,1,.48-.43,127.65,127.65,0,0,1,203.76,0,3.22,3.22,0,0,1,.48.43A32,32,0,0,0,472,264h64a32,32,0,0,0,32-32V168a64,64,0,0,0-64-64H184a64,64,0,0,0-64,64v48a16,16,0,0,1-32,0V168a96,96,0,0,1,96-96H504a96,96,0,0,1,96,96v64a64,64,0,0,1-64,64H472a63.89,63.89,0,0,1-51.16-25.57c-.1-.12-.22-.14-.31-.25a95.78,95.78,0,0,0-153.06,0c-.1.11-.22.13-.31.25A63.86,63.86,0,0,1,216,296H152a32,32,0,0,0-32,32V488a64,64,0,0,0,64,64H504a64,64,0,0,0,64-64V408a16,16,0,1,1,32,0v80a96,96,0,0,1-96,96Z" style="fill: #444;fill-rule: evenodd"/>
  </g>
</svg>
