<?xml version="1.0" encoding="utf-8"?>
<!-- Generator: Adobe Illustrator 23.1.1, SVG Export Plug-In . SVG Version: 6.00 Build 0)  -->
<svg version="1.1" xmlns="http://www.w3.org/2000/svg" xmlns:xlink="http://www.w3.org/1999/xlink" x="0px" y="0px"
	 viewBox="0 0 512 512" style="enable-background:new 0 0 512 512;" xml:space="preserve">
<style type="text/css">
	.st0{fill:#FFFFFF;}
	.st1{fill-rule:evenodd;clip-rule:evenodd;fill:#444444;}
</style>
<g id="Layer_2">
	<rect x="-85" y="-78" class="st0" width="688" height="656"/>
</g>
<g id="Layer_5">
	<path class="st1" d="M384,80v0.8V112c0,8.8,7.2,16,16,16h31.2h0.8c8.8,0,16,7.2,16,16c0,8.8-7.2,16-16,16h-40
		c-21,0-38-16.2-39.7-36.8c-0.1-1.1-0.3-2.1-0.3-3.2V80c0-8.8,7.2-16,16-16C376.8,64,384,71.2,384,80L384,80z M128,272
		c0-8.8,7.2-16,16-16c8.8,0,16,7.2,16,16c0,8.8-7.2,16-16,16C135.2,288,128,280.8,128,272L128,272z M256,384
		c-34.8,0-66.3-13.9-89.3-36.4c-3.6-2.9-5.9-7.3-5.9-12.3c0-8.8,7.2-16,16-16c4.4,0,8.4,1.8,11.3,4.7l0.1-0.1
		c17.4,17.4,41.4,28.1,67.9,28.1c48.4,0,88.3-35.9,94.9-82.4l0.1,0c1.4-8.6,9.4-14.7,18.1-13.4c8.7,1.3,14.8,9.4,13.5,18.1
		c-0.1,0.8-0.4,1.6-0.6,2.4C372.1,337.6,319.6,384,256,384L256,384z M496,288c-8.8,0-16-7.2-16-16c0-8.8,7.2-16,16-16
		c8.8,0,16,7.2,16,16C512,280.8,504.8,288,496,288L496,288z M416,512H96c-53,0-96-43-96-96V256c0-35.3,28.6-64,64-64h8h56
		c10.5,0,19.8-5,25.6-12.8c0.1-0.2,0.3-0.3,0.5-0.4C177.5,147.9,214.4,128,256,128c41.6,0,78.5,19.9,101.9,50.7
		c0.2,0.1,0.3,0.2,0.5,0.4c5.9,7.8,15.2,12.8,25.6,12.8h64c17.7,0,32-14.3,32-32v-5.9V128V96c0-35.4-28.7-64-64-64H96
		c-35.3,0-64,28.6-64,64v32v16c0,8.8-7.2,16-16,16c-8.8,0-16-7.2-16-16V96C0,43,43,0,96,0h320c53,0,96,43,96,96v48v16
		c0,35.3-28.6,64-64,64h-64c-20.9,0-39.5-10-51.2-25.6c-0.1-0.1-0.2-0.1-0.3-0.2C315,175,287.3,160,256,160
		c-31.3,0-59.1,15-76.5,38.2c-0.1,0.1-0.2,0.1-0.3,0.2C167.5,214,148.9,224,128,224H64c-17.7,0-32,14.3-32,32v160
		c0,35.4,28.6,64,64,64h320c35.3,0,64-28.6,64-64v-80c0-8.8,7.2-16,16-16c8.8,0,16,7.2,16,16v80C512,469,469,512,416,512L416,512z"
		/>
</g>
</svg>
