<?xml version="1.0" encoding="utf-8"?>
<!-- Generator: Adobe Illustrator 23.1.1, SVG Export Plug-In . SVG Version: 6.00 Build 0)  -->
<svg version="1.1" xmlns="http://www.w3.org/2000/svg" xmlns:xlink="http://www.w3.org/1999/xlink" x="0px" y="0px"
	 viewBox="0 0 687 655" style="enable-background:new 0 0 687 655;" xml:space="preserve">
<style type="text/css">
	.st0{fill:#FFFFFF;}
	.st1{fill-rule:evenodd;clip-rule:evenodd;fill:#CA2026;}
</style>
<g id="Layer_2">
	<rect x="-1" y="-1" class="st0" width="688" height="656"/>
</g>
<g id="Layer_5">
	<path class="st1" d="M430.9,567.4c-2.3,1.3-5,2.1-7.9,2.1c-8.8,0-16-7.2-16-16c0-7,4.4-12.8,10.7-15l-0.2-0.4
		c87-30.8,149.5-113.5,149.5-211c0-123.7-100.3-224-224-224S119,203.3,119,327c0,78.5,40.5,147.5,101.7,187.5
		c4.7,2.7,10,4.3,15.8,4.3c13.6,0,25.1-8.5,29.8-20.5C272,481.4,276.6,465,279,455c3.2-13.5,10.5-46.9,14-63c0.4-2,0.7-4.1,0.7-6.3
		c0-3.8-0.8-7.5-2-10.9c-4.8-12.5-13.1-36.5-13.1-51.6C278.7,290,295,263,319,263c20.4,0,32,21.7,32,40c0,20.5-12,47-18.7,75.4
		c-5.6,23.8,11.3,44.7,34.7,44.7c42.4,0,80-50.4,80-120c0-49.1-43.8-88-104-88c-68,0-112,49.4-112,112c0,19.5,7,37.3,16,48
		c4.1,4.9,7.7,7.6,6.2,13.3c-1.1,4.1-1.5,5.1-4.6,10c-3.1,5-6.1,7.7-11.2,5.6C206.1,391.1,199,357.5,199,319
		c0-61.6,45.6-136,152-136c76,0,128,57.1,128,120c0,83.9-48.3,152-104,152c-14.9,0-30.2-3-41.6-8.8c-2-0.9-4.1-1.4-6.4-1.4
		c-7,0-12.9,4.5-15.1,10.8c-3.8,15.1-8.4,32.9-9.9,38.3c-2,7.3-5.1,14.9-8.4,22.2c-10.6,20.7-32,35-56.9,35c-11.7,0-22.6-3.3-32-8.8
		C134,496.7,87,417.4,87,327C87,185.6,201.6,71,343,71s256,114.6,256,256C599,437.5,528.9,531.5,430.9,567.4L430.9,567.4z M359,551
		c8.8,0,16,7.2,16,16c0,8.8-7.2,16-16,16c-8.8,0-16-7.2-16-16C343,558.2,350.2,551,359,551L359,551z"/>
</g>
</svg>
