<svg xmlns="http://www.w3.org/2000/svg" viewBox="0 0 484.58 448.16">
  <title>Artboard 1</title>
  <g id="Layer_3" data-name="Layer 3" style="opacity: 0.5">
    <path d="M66.28,196.5a46.08,46.08,0,0,0-11.78,5.68A5.12,5.12,0,0,0,52.71,209c1.29,2.21,4.59,3.33,6.84,1.8a36,36,0,0,1,9.39-4.67A5.11,5.11,0,0,0,72.43,200a5.05,5.05,0,0,0-6.15-3.49Z" style="fill: #758bfd"/>
    <path d="M56.27,201.71c-8.74-.6-17.84.59-25.31,5.47-7.73,5-14.07,12.53-20.63,18.93l7.07,7.07c8.43-8.36,16.9-16.63,27.31-22.51,5.61-3.16.57-11.81-5.05-8.63-11.13,6.28-20.32,15.13-29.33,24.07-4.58,4.54,2.46,11.57,7.07,7.07,5.59-5.46,11-11.77,17.28-16.43s13.89-5.57,21.59-5c6.42.44,6.39-9.56,0-10Z" style="fill: #758bfd"/>
    <path d="M41.25,205.34a77.91,77.91,0,0,0-28,25.61c-6.68,10.15-11,24.73-1.88,34.93,3.74,4.2,9,6.18,14.35,7.46,2.78.68,5.6,1.17,8.32,2.05a17.64,17.64,0,0,1,2.73,1l-.69-1.71A11.92,11.92,0,0,0,34,278.26c-1.92,4.89,0,10.15,3.81,13.56,5.33,4.78,12.79,3.9,19.29,2.88l-6.33-4.83q-.39,15.67-1.07,31.34c-.25,5.74,8.26,6.65,9.83,1.33l.19-.66-2.3,3-1.08.43-3.54-1.46c1.07,1.13,2,6.51,2.68,8.83,1.05,3.65,2,7.33,3,11q2.77,11.07,4.82,22.3a339.49,339.49,0,0,1,5.07,45.86L72,407a45.43,45.43,0,0,0-25.84,13.76c-5.69,6.15-9.41,15-.54,20.44s21.9,3.49,31.44,2c4.9-.78,10.12-1.74,14.61-3.93,4.81-2.33,7.57-6.65,10.21-11.1,6.07-10.21,8.77-19.65,7.94-31.59-.43-6.08-.85-12.14-.86-18.23q0-4.38.18-8.74c.06-1.48.52-3.4.26-4.84.64-2.07.38-2.48-.76-1.23a1.48,1.48,0,0,0-.85,2.24c-1,5.38,0,11.69-.27,17.19q-.48,10-1.69,20c-1.33,10.91-4.45,22.57-.4,33.27,4.38,11.58,18.74,11.29,29.25,10.26a71.27,71.27,0,0,0,33.45-12.05c5.28-3.61.28-12.28-5-8.64a62.06,62.06,0,0,1-26.42,10.46,59.67,59.67,0,0,1-13.62.32c-2.07-.18-5.56-.13-7.16-1.66-1.81-1.72-2.21-5.92-2.38-8.24-.71-9.73,2-19.75,3-29.42a214.46,214.46,0,0,0,1.3-32.25c-.19-3.74-.93-7.47-4-10-2.73-2.28-6.84-3-10-1.06-3.48,2.16-4.06,6.1-4.37,9.83-.45,5.47-.57,11-.5,16.49.13,10.37,3,22-.32,32.05-1.43,4.33-3.9,8.34-6.26,12.22-3.18,5.21-6.71,6.64-12.51,7.95a78.78,78.78,0,0,1-17.11,1.91c-2.43,0-12,.58-12.57-2.65-.21-1.21,3.75-4.68,4.62-5.52a33.57,33.57,0,0,1,5.53-4.34,38.22,38.22,0,0,1,14.3-5.24c2.06-.33,3.76-2.8,3.67-4.82a358.28,358.28,0,0,0-7.65-59.71,295.75,295.75,0,0,0-7.73-29.41c-1.14-3.47-2.44-7-6.61-7.42a6,6,0,0,0-6.46,4.58l9.82,1.33q.69-15.66,1.07-31.34c.08-3.54-3.25-5.3-6.33-4.82s-13.22,1.52-10.56-4.11c1.87-3.94,4-7.33.44-11.24-5.93-6.44-16.91-4.07-23.75-8.92-9.3-6.6-2.28-19.83,2.65-26.76A67.91,67.91,0,0,1,46.3,214c5.66-3.07.62-11.7-5-8.63Z" style="fill: #758bfd"/>
    <path d="M162.09,272.31c-6.91-5.52-22.7-20.2-28.75-6.15-2.39,5.53-1.8,12.63-1.87,18.53-.09,7.63.19,15.27.67,22.88,1.92,30.22,7,60.26,5.46,90.62-.12,2.41,1.68,4,3.67,4.82a31.49,31.49,0,0,1,9.9,6.75c4.6,4.5,11.68-2.56,7.07-7.07a44.5,44.5,0,0,0-14.31-9.32l3.67,4.82c1.23-24.91-1.91-49.65-4.17-74.41-1.1-12-2-24.13-2-36.23,0-5.53-.69-12.3,1.06-17.61-.32,1-1.5-1-.06.62.82.93,2.8,1.76,3.9,2.49q4.47,3,8.67,6.34c5,4,12.1-3.05,7.07-7.08Z" style="fill: #758bfd"/>
    <path d="M109.17,392.22c-.76,10.33-.59,21.28,1.89,31.39,2.25,9.13,8.42,14.34,17.53,16.12,6.28,1.23,9-8.41,2.65-9.64-3.21-.63-6.54-1.37-8.59-4.18s-2.38-6.67-2.84-9.84a110,110,0,0,1-.64-23.85c.48-6.42-9.52-6.38-10,0Z" style="fill: #758bfd"/>
    <path d="M137.87,220.59c6.43,0,6.44-10,0-10s-6.45,10,0,10Z" style="fill: #758bfd"/>
    <path d="M135.64,219.7c3.71,3,7.35,6.29,11.36,8.84a22.55,22.55,0,0,0,5.23,2.47c1.09.35,4,.43,4.62,1.53,3.17,5.6,11.82.57,8.63-5-2.15-3.79-5.58-4.66-9.49-5.83-5.09-1.51-9.2-5.78-13.28-9-5-4-12.1,3.06-7.07,7.07Z" style="fill: #758bfd"/>
    <path d="M66.84,194.06c-11.79-6.2-15.65-21.18-13.16-33.57,1.75-8.68,7-13.86,14.12-18.61,6.53-4.37,13.45-8.66,21.28-10.15,13.18-2.52,27.19,4,35.27,14.4,9.38,12,11.05,28.38,7.43,42.83h9.64q-3.36-18.44-7.47-36.72-2-8.9-4.2-17.76c-1.09-4.38-2.62-10-8.26-9.46-6.35.59-6.41,10.6,0,10l1-.09L119,133.47c1.33,1.29,1.6,5.64,2,7.4.6,2.49,1.2,5,1.78,7.48q1.64,7,3.16,14.06c2.11,9.7,4,19.44,5.82,29.21.91,4.94,8.5,4.58,9.64,0,7-27.8-4.63-59.57-33.74-68.45C93,118.7,79,122.94,66.4,130.87c-6.3,4-12.77,8.21-17.1,14.4s-6,13.8-6.27,21.19c-.44,14.24,5.72,29.38,18.77,36.24,5.69,3,10.75-5.64,5-8.64Z" style="fill: #758bfd"/>
    <path d="M99.66,134.91q8.57,5.25,17.48,9.84c5.7,2.92,10.69-5.46,5-8.64a44,44,0,0,0-25-5.83c-9.29.73-17.21,6-26.32,7l2.52,9.32L79.47,142c4.93-3.79.6-12.12-5-8.63a54.47,54.47,0,0,0-25.44,38h9.65a19.54,19.54,0,0,1,2.18-13l-9.32-2.52-.16,23c0,6.44,10,6.44,10,0l.16-23c0-4.87-6.94-6.94-9.32-2.53A30.77,30.77,0,0,0,49,174c.85,4.71,8.91,4.84,9.65,0a45,45,0,0,1,20.84-32l-5-8.63L68.34,138c-3.37,2.59-3.06,9.94,2.53,9.31,8-.9,14.89-4.83,22.69-6.48a33.72,33.72,0,0,1,23.58,3.91l5-8.64q-8.94-4.59-17.48-9.84c-5.5-3.38-10.53,5.27-5,8.64Z" style="fill: #758bfd"/>
    <path d="M369.72,197.3c-5.09-23,7.6-50.93,33.92-51.36,12.28-.2,22.47,7.54,30.06,16.53,8.05,9.52,14.95,23.47,5,34.21-4.36,4.72,2.69,11.81,7.07,7.08,23.8-25.74-11.13-65.84-39.24-67.74-14.7-1-29.36,6.63-38.05,18.29-9.71,13-11.87,30.05-8.41,45.65,1.39,6.28,11,3.62,9.64-2.66Z" style="fill: #ff8600"/>
    <path d="M442.54,203.89c5.17.92,9.87-.12,15,0,4.87.1,7,1.72,6.72,6.64-.28,4.64-1.65,8-6.19,9.72-4.3,1.63-8.2,2.74-11.84,5.7-5,4.07,2.12,11.1,7.07,7.07s11.69-3.46,16.17-8.41c4-4.39,5.13-11.17,4.84-16.91a13.52,13.52,0,0,0-9.18-12.51c-6.65-2.49-13.23.26-19.95-.94-6.29-1.12-9,8.52-2.66,9.65Z" style="fill: #ff8600"/>
    <path d="M437.85,173.3v12.44c0,6.44,10,6.45,10,0V173.3c0-6.43-10-6.44-10,0Z" style="fill: #ff8600"/>
    <path d="M450.85,235.21c4.49-.19,6.39,4.3,7.4,8,1.07,4,2.07,8.19,2.94,12.2.55,2.56-.18,2.85-2.24,4.23a58.11,58.11,0,0,1-6.23,3.55c-4.64,2.33-9.12,3.63-14.33,3-6.38-.75-6.32,9.26,0,10,8.11,1,15.62-2.16,22.54-6.1,5.54-3.16,11.88-7.19,10.66-14.54-.56-3.38-2-6.66-2.65-10-.74-3.63-1.42-7.31-3.12-10.63-2.93-5.71-8.38-10-15-9.68-6.41.26-6.45,10.27,0,10Z" style="fill: #ff8600"/>
    <path d="M434.55,269.81c-5.38,19-7.28,38.65-7.85,58.29-.55,18.64-1.17,37.92,2.76,56.25,1.76,8.21,4.28,18.25,10.83,24,5.94,5.22,14,7.08,20.51,11.52,1.95,1.34,9.43,6.07,9.1,9.07-.25,2.33-9.67,2.58-11.63,2.85-10.5,1.45-21.11,2.57-31.72,2.24-2.74-.08-5.95.06-8.62-.61-1.68-.43,0,1.36-.19-.4-.14-1.43-.13-2.91-.16-4.34-.14-5.23-.07-10.47-.22-15.71-.28-10.17-1.59-19.94-5.58-29.36-.91-2.15-3.65-2.64-5.64-2.29-10.36,1.77-17.11,11.3-19.43,21-2.36,9.89.94,25.24-11,29.46-6.15,2.18-13.3,2.41-19.75,2.84-5.44.37-13.25,1.77-18.36-.86-5.82-3-.36-9.32,3.09-11.72,4.91-3.42,10.31-5.67,14.6-10,4.55-4.57-2.52-11.64-7.07-7.07-4.93,4.94-11.95,7-17,11.86-4.43,4.32-7.54,10.89-5.75,17.12,4.14,14.45,25.14,11.26,36.13,10.17,7.41-.73,15.74-1.19,22.26-5.15,5.68-3.45,8.94-9.27,10.22-15.65,2.18-10.9-.07-29.86,14.72-32.39l-5.64-2.3c4.17,9.86,4.23,20.77,4.32,31.29.06,6.79-2.26,19.63,5.9,22.67,4.23,1.57,9.7,1.34,14.15,1.43a156.24,156.24,0,0,0,18.48-.8c5-.48,10-1.13,14.93-1.82,4.49-.62,9.85-.67,13.89-3,8.35-4.8,5-14.58-.36-20.18C468,411.6,460,408.11,451.94,404.05c-9.83-4.92-12-16.67-13.67-26.7s-1.82-20.46-1.82-30.69c0-25,.89-50.05,7.74-74.2,1.76-6.2-7.88-8.84-9.64-2.65Z" style="fill: #ff8600"/>
    <path d="M365.66,275.55,354.3,411.19c-.54,6.41,9.47,6.37,10,0l11.36-135.64c.54-6.42-9.46-6.38-10,0Z" style="fill: #ff8600"/>
    <path d="M351.74,274.69c-1.53-.14-1.35-.47-.27.61l2.2,2.21,4.41,4.42c4.55,4.57,11.62-2.5,7.07-7.07l-6.06-6.08c-2.2-2.2-4.12-3.81-7.35-4.09-2.69-.24-5,2.46-5,5,0,2.9,2.3,4.76,5,5Z" style="fill: #ff8600"/>
    <path d="M171.65,195.2c-.36-5.16-.75-10.33-1.09-15.5-.31-4.78-.8-9.79,1.85-14,4.57-7.33,13.66-13,21.62-15.88,16.55-6,35-1.61,46,12.42,4,5.06,11-2.06,7.07-7.07C233.74,138,209.79,133,189.91,140.69c-9.62,3.73-19.09,10.08-25.18,18.53-7.27,10.1-3.89,24.46-3.08,36,.44,6.39,10.45,6.44,10,0Z" style="fill: #ff8600"/>
    <path d="M171.54,207.72a7.42,7.42,0,0,0,9.85,9.94c3.25-1.49,4.75-5,5-8.37.32-4.67-1.18-6.07-4.78-8.46-13-8.6-10.21-27.46-.8-37.4a46.87,46.87,0,0,1,20-12.15c9.86-3.11,18.16-1.73,27.07,3.3,3.63,2,8.15,4.23,11.1,7.22,3.19,3.23,3.59,8.58,4.13,12.88a84.86,84.86,0,0,1-1.63,29.63c-1.44,6.26,8.2,8.94,9.64,2.66,3.22-14,4.4-30.58-.28-44.41-2.12-6.28-6.77-9.72-12.18-13.14-5.93-3.75-12.21-7.46-19.09-9.1-23.84-5.68-54.41,14-56.71,38.91-1.16,12.46,4.56,25.59,15.91,31.5l-2.48-4.32a8.92,8.92,0,0,1,.05,2.19q-.54,2.72,4,1.1l-.5,3.85.36-.79c2.66-5.81-6-10.89-8.64-5Z" style="fill: #ff8600"/>
    <path d="M231.68,162.39a13.72,13.72,0,0,1,7.79,9.77c1.45,6.26,11.09,3.61,9.64-2.66-1.82-7.86-7.42-13.74-14.77-16.75-2.5-1-5.49,1.11-6.15,3.49-.79,2.87,1,5.12,3.49,6.15Z" style="fill: #ff8600"/>
    <path d="M250.31,205.64a7,7,0,0,1,.91.06l-1.33-.18a7,7,0,0,1,1.55.44l-1.2-.51a7.59,7.59,0,0,1,1,.57,5,5,0,0,0,5.05-8.64,11,11,0,0,0-6-1.74,5,5,0,0,0,0,10Z" style="fill: #ff8600"/>
    <path d="M152.8,274.12a343.59,343.59,0,0,0-5.62,62.31c0,20.36-.45,41.53,4.41,61.43,1.52,6.24,11.17,3.6,9.64-2.66-4.63-19-4-39.35-4-58.77a328.61,328.61,0,0,1,5.26-59.65c1.16-6.29-8.48-9-9.64-2.66Z" style="fill: #ff8600"/>
    <path d="M239.39,258.53c-16.14,5.58-13.58,24.78-12.48,38.34a397.07,397.07,0,0,0,7.43,50.43l9.64-2.66c-4.17-10.95-1.27-22.91-11.8-30.76-4.46-3.32-8.68,2.86-6.85,6.84,5.27,11.43,4.32,24.35,3.74,36.58-.46,9.83-2.45,22.66,5.37,30.24a5,5,0,0,0,8.35-4.87q-3.64-15-7-30c-1.08-4.87-2.31-9.83-1.91-14.86.41-5.19,2.52-10.19,4.53-14.93,2.48-5.86-6.13-11-8.63-5-4.55,10.73-7,20.15-4.84,31.81,2.25,12,5.35,23.84,8.24,35.67l8.36-4.86c-3.63-3.52-2.87-9.73-2.78-14.35.12-5.89.55-11.76.71-17.64.31-11.35-.67-22.39-5.47-32.81l-6.84,6.85c3.28,2.44,4.05,7.24,4.55,11,.63,4.69,1,9.31,2.66,13.77,2.26,6,11,3.73,9.64-2.66a373.17,373.17,0,0,1-6.37-40.16c-.65-6.33-1.15-12.69-1.45-19-.26-5.69-.89-14.93,5.89-17.27,6-2.09,3.44-11.75-2.66-9.64Z" style="fill: #ff8600"/>
    <path d="M144.74,271a81.2,81.2,0,0,1,4.61,26.47l9.32-2.52c-2.1-3.67.35-8.18,1.12-11.94s.94-7.33-.52-10.91c-2.4-5.88-12.07-3.31-9.64,2.66,1.82,4.46-.59,8.81-1.36,13.28A17.05,17.05,0,0,0,150,300c2.46,4.31,9.35,2.43,9.32-2.52a90,90,0,0,0-5-29.13c-2.1-6-11.77-3.44-9.65,2.66Z" style="fill: #ff8600"/>
    <path d="M165,194.67a32.87,32.87,0,0,1,4.78-22.54c3.43-5.46-5.22-10.49-8.64-5A41.45,41.45,0,0,0,155,194.67c.84,6.28,10.85,6.37,10,0Z" style="fill: #ff8600"/>
    <path d="M332.83,264.54a13.6,13.6,0,0,1,13.22,3.56c4.6,4.51,11.68-2.56,7.08-7.07a24,24,0,0,0-23-6.14c-6.22,1.61-3.58,11.26,2.66,9.65Z" style="fill: #758bfd"/>
    <path d="M42.66,248l-.16.44,2.3-3-.43.2L46.9,245l-.54,0,2.52.68-.49-.25,1.79,1.8-.28-.46.68,2.53.05-.9L50,250.88c.41-.77,1.55-2.38,2.53-2.4L50,239.16,39,246.9,45,254.75a49.35,49.35,0,0,1,8.59-8.62l-7.35-3L49.07,256l6.15-6.15L48.28,248c-6.27-1.61-8.76,7.66-2.66,9.65,4.2,1.36,8.42-1.32,9.73-5.39,1.12-3.47.58-6.57,3.29-9.42,4.43-4.67-2.63-11.75-7.07-7.07a20.47,20.47,0,0,0-4.34,6.74,16.7,16.7,0,0,0-.93,3.53c-.12.79-.22,1.58-.29,2.37s-.16,1-.06.26l2.52-.68h-.19l-2.66,9.65,7,1.78a5.06,5.06,0,0,0,6.15-6.15L55.9,240.48c-.64-2.88-4.82-4.91-7.35-3a58.46,58.46,0,0,0-10.61,10.18c-1.55,1.95-2.06,4.47-.39,6.56C39,256.05,41.93,257,44,255.53l11-7.73c3.82-2.69,2.78-9.45-2.52-9.32-5.1.12-11.8,4.78-11.88,10.33-.1,7,9.43,8.21,11.7,1.88,2.18-6.07-7.48-8.68-9.64-2.66Z" style="fill: #758bfd"/>
    <path d="M63.26,322.56V308.13c0-6.43-10-6.44-10,0v14.43c0,6.43,10,6.45,10,0Z" style="fill: #758bfd"/>
    <path d="M3.13,247.28c-5.3,17.63,14.39,26,26.82,32.31,5.73,2.89,10.8-5.74,5.05-8.64-7.5-3.78-25.63-9.68-22.22-21,1.85-6.18-7.8-8.82-9.65-2.66Z" style="fill: #758bfd"/>
    <path d="M252.46,250l2,41.48c.67,14.05,1.87,28.2.67,42.24a196.31,196.31,0,0,1-7,38.78c-3.51,11.79-11,22.18-8.51,35,1.22,6.32,10.86,3.64,9.64-2.66-1.24-6.45,1.83-12.71,4.31-18.49a103.58,103.58,0,0,0,5.8-17.23,240.81,240.81,0,0,0,5.93-37.27c1-13.42-.18-26.94-.82-40.35l-2-41.48c-.31-6.41-10.31-6.44-10,0Z" style="fill: #758bfd"/>
    <path d="M329.22,143.09a24.75,24.75,0,0,1,12.62,25.17c-.78,6.37,9.23,6.31,10,0a34.37,34.37,0,0,0-17.57-33.8c-5.64-3.1-10.69,5.53-5,8.63Z" style="fill: #758bfd"/>
    <path d="M271.4,424.53c-1.64-20.42,18.25-34,28.29-49.52l-9.14-1.2q4,24.09,9.51,47.89c1.27,5.48,2,12.4,7.73,15.17,5.93,2.89,11.91-.81,16.53-4.38,5.07-3.94-2.05-11-7.08-7.08-1.28,1-3.82,3.14-5.43,1.94-1.2-.9-1.54-5.87-1.89-7.36q-1.89-8.08-3.59-16.21-3.42-16.25-6.14-32.63c-.76-4.54-7-4.47-9.14-1.19-11.28,17.39-31.5,31.47-29.65,54.57.51,6.37,10.52,6.43,10,0Z" style="fill: #758bfd"/>
    <path d="M328.28,255.79a183,183,0,0,0-17.66,83.11c.79,26.81,8.25,54.56,31.07,70.87,5.24,3.75,10.24-4.92,5.05-8.63-20.74-14.83-26-41.88-26.18-65.81a171.79,171.79,0,0,1,16.35-74.49c2.73-5.79-5.89-10.88-8.63-5Z" style="fill: #758bfd"/>
    <path d="M284.6,383.49c-2.41,6.21-7.75,11.57-11.09,17.34a132,132,0,0,0-8.76,18.55c-2.33,6,7.34,8.6,9.65,2.65a117.18,117.18,0,0,1,9.54-19.16c3.47-5.6,7.9-10.53,10.3-16.72,2.33-6-7.34-8.6-9.64-2.66Z" style="fill: #758bfd"/>
    <path d="M255.24,247.5c-1.75,3.22-5.1,5.47-7.84,7.81l-10.26,8.77c-4.9,4.19,2.21,11.24,7.07,7.08l11.41-9.76c3.11-2.66,6.27-5.19,8.25-8.86,3.07-5.66-5.56-10.71-8.63-5Z" style="fill: #758bfd"/>
    <path d="M262.06,163.36c-.09-16,13.31-26.69,27.95-29.7,7.32-1.5,15.85-1.64,22.64,1.88,6.38,3.31,10.22,9.9,16.78,13.08,5.77,2.8,10.84-5.82,5.05-8.63-4.28-2.08-7.12-5.6-10.64-8.67a33.5,33.5,0,0,0-11.09-6.53c-9-3.14-19.48-2.49-28.56,0-17.68,4.82-32.23,19.53-32.13,38.59,0,6.43,10,6.44,10,0Z" style="fill: #758bfd"/>
    <path d="M86.13,126,81.25,126l2.52,9.32,2.39-1.44a5,5,0,0,0-5-8.63l-2.38,1.43a5.09,5.09,0,0,0-2.3,5.65A5.16,5.16,0,0,0,81.25,136l4.88.07a5,5,0,0,0,0-10Z" style="fill: #758bfd"/>
    <path d="M329.9,149.59a62.09,62.09,0,0,1,10.58,21.88c1.26,5,4.74,20.16-.93,23.44s-.69,11.42,5,8.63a24.45,24.45,0,0,1,11.69-2.4c6.44.17,6.44-9.83,0-10a35.3,35.3,0,0,0-16.73,3.77l5,8.63c9.44-5.45,8.21-19,6.83-28.21a69,69,0,0,0-12.89-30.79c-3.79-5.11-12.47-.13-8.63,5.05Z" style="fill: #758bfd"/>
  </g>
  <g id="Layer_2" data-name="Layer 2">
    <path d="M58.28,210.51c-7.79-.63-14.94,3.11-20.93,7.73a95.33,95.33,0,0,0-16.52,16.28c-4.56,5.79-8.76,12.72-9.72,20.16-.45,3.47,0,7.15,2.25,9.95s5.57,3.88,8.89,4.4c4.58.72,9.27.89,13.88,1.26l15.67,1.28c1.93.16,1.92-2.84,0-3l-25.22-2.06c-3-.25-6.34-.5-9-2.13-2.82-1.71-3.76-4.83-3.63-8,.29-6.78,4.27-13.46,8.23-18.75a93.55,93.55,0,0,1,14.7-15.2c6-5.06,13.24-9.6,21.4-8.94,1.92.16,1.91-2.84,0-3Z"/>
    <path d="M46.48,271.09a8.29,8.29,0,0,0-5.85,7.5c-.25,3.61,2.1,7,5.13,8.79,3.58,2.07,8.12,1.94,11.87.44a13.85,13.85,0,0,0,8.14-8.05A25.61,25.61,0,0,0,67.1,274a29.93,29.93,0,0,0,.49-6.33,9.94,9.94,0,0,0-5.6-8.11c-3.48-1.86-7.49-2.6-11.28-3.58l-6.81-1.75c-1.94-.49-4.25-.76-6-1.84-.53-.33-1.18-.76-.85-1.42a11.31,11.31,0,0,1,2.48-2.45q2.69-2.46,5.56-4.7a88.3,88.3,0,0,1,12.39-8c1.7-.91.19-3.5-1.52-2.59A91.58,91.58,0,0,0,36.78,247c-1.19,1.12-2.73,2.32-2.83,4.09a4.19,4.19,0,0,0,2,3.61,13.79,13.79,0,0,0,4.76,1.82l6.34,1.63c3.73,1,7.58,1.72,11.2,3,2.83,1,5.75,2.78,6.25,6a21.4,21.4,0,0,1-.31,5.81,27.67,27.67,0,0,1-1.09,5.25,11,11,0,0,1-7.72,7.18c-3.8,1.11-8.43.49-10.75-3.06-1.9-2.92-1-7.36,2.61-8.38a1.5,1.5,0,0,0-.8-2.89Z"/>
    <path d="M55.37,235A54.5,54.5,0,0,0,59,259.89c.7,1.77,3.6,1,2.89-.8A52.54,52.54,0,0,1,58.37,235c.17-1.93-2.83-1.92-3,0Z"/>
    <path d="M62.68,284.39c-2.43,16.62-.82,33.36,2.16,49.8,3,16.73,7.36,33.18,10.18,49.95a177.7,177.7,0,0,1,2.71,28.56,1.5,1.5,0,0,0,3,0c-.09-16.87-3.32-33.52-6.87-49.95S66.37,330,65,313.29a122.85,122.85,0,0,1,.6-28.1c.28-1.89-2.61-2.71-2.89-.8Z"/>
    <path d="M78.32,410.84a93.77,93.77,0,0,0-18.27,9.83,49.1,49.1,0,0,0-7.79,6.2c-2.12,2.24-3.66,5.08-2.87,8.23a1.53,1.53,0,0,0,1.45,1.11c7.29-.07,14.58-.49,21.83-1.28q5.52-.6,11-1.49a46.59,46.59,0,0,0,8.42-1.88,15.52,15.52,0,0,0,6.78-4.33,14.67,14.67,0,0,0,3.16-8,66.79,66.79,0,0,0,.07-9.49l-.29-11.37-.57-22.26c-.08-3.47-.23-7-.25-10.42,0-2.44.05-5.09,1.13-7.32a5.59,5.59,0,0,1,6.2-3.18,9.26,9.26,0,0,1,6.3,4.82,26.57,26.57,0,0,1,2.67,9.2,89.54,89.54,0,0,1,.87,10.71c.24,8.23,0,16.48-.14,24.7q-.28,12.72-.9,25.41c-.09,1.93,2.91,1.93,3,0,.74-15.22,1.21-30.49,1.11-45.73,0-7.05-.17-14.5-2.17-21.32-1.63-5.55-5.74-11-12.1-10.89a8.38,8.38,0,0,0-6.77,3.65,14.6,14.6,0,0,0-2.14,7.49c-.21,3.29,0,6.62.12,9.91l.29,11.38L99,407.26c.08,3.44.32,6.92.13,10.36-.17,3-.86,6-3,8.14s-5.42,3.24-8.44,3.91c-3.84.86-7.77,1.37-11.66,1.86a219,219,0,0,1-25.21,1.68l1.45,1.1c-.69-2.72,1.67-5.08,3.54-6.7A73.39,73.39,0,0,1,63,422.27a91,91,0,0,1,16.11-8.54c1.76-.71,1-3.62-.8-2.89Z"/>
    <path d="M118,431.21a57.58,57.58,0,0,0,38,3c2.76-.74,5.68-1.63,7.82-3.62a9.22,9.22,0,0,0,2.73-7.47c-.47-6.07-5.47-10.53-10-14a54.61,54.61,0,0,0-18.73-9.4,1.5,1.5,0,0,0-.8,2.89,52,52,0,0,1,15,6.89,48,48,0,0,1,6.6,5.29,16,16,0,0,1,4.52,6.37,7.13,7.13,0,0,1-.89,6.79c-1.65,2-4.45,2.68-6.82,3.33a54.32,54.32,0,0,1-35.87-2.64c-1.75-.77-3.28,1.81-1.52,2.59Z"/>
    <path d="M139.06,400.65c.43-11.43.85-22.87.46-34.31a209.29,209.29,0,0,0-4.11-33.73,213.52,213.52,0,0,1-3.9-33.82c-.19-5.69-.23-11.38-.2-17.07q0-4.28.07-8.53a33.71,33.71,0,0,1,.46-6.43c.45-2.12,1.35-4.31,3.42-5.32,2.22-1.08,5.12-.72,7.47-.25A24.08,24.08,0,0,1,156.12,269c1.28,1.46,3.39-.67,2.12-2.12A27,27,0,0,0,146.19,259c-4.3-1.38-10.17-2.28-13.93.86-3.31,2.77-3.78,7.58-3.85,11.6-.12,5.86-.14,11.73-.09,17.59a230.86,230.86,0,0,0,2.61,35.82c1,5.8,2.26,11.54,3.26,17.34a163.31,163.31,0,0,1,2,17.79c.85,13.54.35,27.11-.16,40.66-.07,1.93,2.93,1.93,3,0Z"/>
    <path d="M75.68,203.13c-5.87-.59-12,2.38-14.43,7.87a12.88,12.88,0,0,0-.84,8.49,17.36,17.36,0,0,0,4.7,7.65c4.16,4.23,9.6,8.35,15.62,9.17a5.41,5.41,0,0,0,4.08-.57,6.61,6.61,0,0,0,2-3.37A38.53,38.53,0,0,0,89.12,223a15.17,15.17,0,0,0-2.07-9.72C84.9,209.92,81.9,207,79.31,204c-1.26-1.46-3.38.67-2.12,2.12,2,2.32,4,4.6,6,6.95a12.1,12.1,0,0,1,3,6.67,21.71,21.71,0,0,1-1,7.8c-.33,1.16-.7,2.31-1.11,3.44s-.52,2.41-1.75,2.48c-2.5.13-5.23-1.14-7.33-2.35a36.67,36.67,0,0,1-6-4.43c-3.61-3.19-6.95-7.4-5.68-12.52,1.38-5.6,6.86-8.58,12.37-8,1.92.19,1.91-2.81,0-3Z"/>
    <path d="M77.67,206.65a1.5,1.5,0,0,0,0-3,1.5,1.5,0,0,0,0,3Z"/>
    <path d="M78.84,203.45c-8.81-6.94-19.36-15.6-19-27.94.18-6.73,3.25-13.27,6.6-19,2.91-5,6.62-9.69,11.65-12.63,5.84-3.4,13-3.47,19.53-3.25s13.38,1.4,19.16,4.84c9.89,5.87,16,17,16.9,28.32a41.53,41.53,0,0,1-12.84,33.52,1.51,1.51,0,0,0,.31,2.35q22,13.19,43.39,27.3c1.61,1.07,3.12-1.53,1.51-2.59q-21.39-14.12-43.39-27.3l.3,2.36a44.29,44.29,0,0,0,13.84-32.2c0-12.3-5.34-24.53-15.18-32.09-5.55-4.26-12.17-6.38-19.06-7.16a73.48,73.48,0,0,0-10.8-.34,36,36,0,0,0-11.24,1.81c-5.92,2.18-10.55,6.58-14.15,11.64a53.94,53.94,0,0,0-8.77,18.65,26.07,26.07,0,0,0,4,21c4,5.87,9.57,10.46,15.11,14.83,1.5,1.18,3.63-.93,2.12-2.12Z"/>
    <path d="M134.42,216.28c5.53-3.4,12.31-1.4,17.61,1.48s10.91,7,13.42,12.76a19.77,19.77,0,0,1-.78,17.21c-.3.54-.75,1.06-1,1.62a8.9,8.9,0,0,0-.41,2.73l-.6,5.95-1.16,11.39L156.8,315.5c-.77,7.57-1.67,15.15-2.07,22.76a154.64,154.64,0,0,0,.72,22.67C157,377.42,160,394,157.91,410.56c-.24,1.91,2.76,1.89,3,0,1.94-15.45-.5-30.92-2.12-46.28a170.73,170.73,0,0,1-1.18-23c.24-7.94,1.18-15.85,2-23.75l4.84-47.56L165.65,258l.55-5.45a6.27,6.27,0,0,1,.47-2.35c.41-.79.9-1.53,1.28-2.34a22.94,22.94,0,0,0,.53-17.83c-2.7-6.8-9-11.75-15.29-15.08s-13.93-5.2-20.29-1.29c-1.64,1-.14,3.61,1.52,2.59Z"/>
    <path d="M132.82,195.33a52.37,52.37,0,0,1,35.45,7.92c1.62,1.05,3.13-1.55,1.51-2.59A55.54,55.54,0,0,0,132,192.44c-1.9.27-1.09,3.16.8,2.89Z"/>
    <path d="M168.24,201.16c.67,5.6,0,11.65,3.69,16.35a9.34,9.34,0,0,0,6.17,3.64,8.14,8.14,0,0,0,6.8-2.76c2.22-2.4,3-5.59,3.34-8.76a1.51,1.51,0,0,0-1.5-1.5,1.53,1.53,0,0,0-1.5,1.5c-.28,2.7-1,5.66-3.27,7.42a5,5,0,0,1-6.3,0c-4.8-3.65-3.8-10.6-4.43-15.87a1.55,1.55,0,0,0-1.5-1.5,1.5,1.5,0,0,0-1.5,1.5Z"/>
    <path d="M189.91,207.41c-3.28-4.58-8.33-7.13-12.21-11.09-4.22-4.3-5.11-10.25-3.91-16,2.26-10.75,10.26-20.05,20-24.87A34.18,34.18,0,0,1,225,156c10.09,5.41,16.06,15.56,17,26.87a51.55,51.55,0,0,1-2.14,18.79,59.73,59.73,0,0,1-3.51,9.13c-1,2-3,6.88-6,5.67-1.79-.72-2.57,2.18-.8,2.9,3.13,1.26,5.94-1.25,7.6-3.67a42,42,0,0,0,4-8.4A59.56,59.56,0,0,0,245,189c.61-12.15-3.53-24.47-13.31-32.15a37.32,37.32,0,0,0-34-6.25,41.2,41.2,0,0,0-25.2,23.54c-2.61,6.44-3.46,14.35.18,20.59,3.53,6,10.6,8.56,14.6,14.15,1.11,1.56,3.72.06,2.59-1.51Z"/>
    <path d="M233.32,219.08A30.39,30.39,0,0,1,246.63,208c5-2.16,12.48-3.93,17.34-.52,1.58,1.11,3.08-1.49,1.51-2.59-5.55-3.9-13.84-2.2-19.65.22a33.41,33.41,0,0,0-15.1,12.47c-1.07,1.62,1.53,3.13,2.59,1.52Z"/>
    <path d="M227.47,260.44c-1.16-8.46,5.78-15.68,11-21.37,6.07-6.58,12.36-13.22,20.29-17.57a34,34,0,0,1,13.92-4.32c1.92-.13,1.93-3.13,0-3-9.55.66-18,5.48-25.17,11.62a134.53,134.53,0,0,0-10.71,10.65,74.43,74.43,0,0,0-8.72,10.69c-2.68,4.28-4.24,9-3.54,14.1a1.51,1.51,0,0,0,1.84,1.05,1.54,1.54,0,0,0,1.05-1.85Z"/>
    <path d="M224.06,257.89c-.73,24.82-.86,49.68-.25,74.51.57,23.21,2.16,46.81,9.57,69a34,34,0,0,0,3.11,7.53,13.84,13.84,0,0,0,5.59,4.8c2.27,1.14,4.66,2,6.93,3.12a54.18,54.18,0,0,1,7,4.22c1.21.86,4.68,3.24,1.82,4.24a8.06,8.06,0,0,1-2.68.33c-1.65,0-3.3-.07-4.95-.1l-18.58-.38-9.17-.19c-1,0-2.89.28-3.77-.32s-1.11-2.59-1.4-3.57c-1.63-5.38-3.25-10.77-5.14-16.07a116,116,0,0,0-6.53-15.16,56.26,56.26,0,0,0-4.1-6.84c-1.41-1.92-3.35-3.31-5.83-2.92a7.25,7.25,0,0,0-5,3.89c-1.23,2.4-1,5.2-.43,7.74.68,2.94,1.65,5.8,2.29,8.75a76.68,76.68,0,0,1,1.38,8.8,78.34,78.34,0,0,1,.36,9.06c0,2.41-.22,5.2-2.27,6.82-1.88,1.47-4.53,1.76-6.83,1.92a36.64,36.64,0,0,1-8.5-.36,39,39,0,0,1-8.15-2.29c-1.79-.71-2.57,2.19-.8,2.89a39.93,39.93,0,0,0,17.22,2.78c4.91-.31,10.25-1.65,11.77-7a27.65,27.65,0,0,0,.55-8.12,84.28,84.28,0,0,0-.73-9,81.87,81.87,0,0,0-1.71-8.91c-.73-2.93-2-5.95-2.05-9,0-2.1,1.13-4.82,3.54-5.07s3.93,3.41,4.91,5.06a98.13,98.13,0,0,1,7.14,15.22c2,5.26,3.65,10.64,5.28,16,.41,1.35.82,2.69,1.22,4a7,7,0,0,0,1.76,3.45c1.91,1.66,5.26,1.14,7.59,1.19l19.08.38,9.42.2c2.28,0,4.73.27,6.87-.75a4,4,0,0,0,2.15-5.13c-.94-2.42-3.76-4-5.82-5.35a53.42,53.42,0,0,0-7.57-4.14,40.33,40.33,0,0,1-6.75-3.25c-2.23-1.54-3.35-3.86-4.25-6.34-1-2.75-1.9-5.54-2.72-8.36a163.31,163.31,0,0,1-4-17.19,267.35,267.35,0,0,1-3.52-35.83c-1-24.94-.89-50-.32-74.92.07-3.14.16-6.28.25-9.42.06-1.94-2.94-1.93-3,0Z"/>
    <path d="M227.18,272.09q9-8.26,18.46-15.9c3.17-2.54,6.37-5,9.63-7.43,2.82-2.08,6.31-4.6,10-3.71,1.88.46,2.68-2.43.8-2.89-4-1-7.71.79-10.93,3-3.49,2.41-6.82,5.08-10.15,7.72Q234.71,261,225.06,270c-1.42,1.31.7,3.43,2.12,2.12Z"/>
    <path d="M262.19,246c-.94,11.53-1.88,23.07-1.8,34.64s1.65,23,2.45,34.53c1.45,21.07-.26,42.69-8.09,62.47-4.23,10.69-10.42,22-7.24,33.84a1.5,1.5,0,0,0,2.89-.8c-2.77-10.32,2.46-20.62,6.31-29.94a123.64,123.64,0,0,0,8.16-30.48A168.47,168.47,0,0,0,266,318.57c-.59-11.35-2.27-22.62-2.59-34-.35-12.89.7-25.76,1.74-38.6.16-1.92-2.84-1.91-3,0Z"/>
    <path d="M265.12,423.82a145.35,145.35,0,0,1,21-46c2.39-3.48,4.94-6.86,7.65-10.11.7-.84,2.49-3.8,3.82-2.88s1.49,3.35,1.78,4.73l5.88,28.73L311.94,431c.38,1.89,3.28,1.09,2.89-.8q-6.31-30.79-12.62-61.6c-.64-3.1-2.25-8.11-6.48-6.66-2,.68-3.36,2.84-4.63,4.39q-2.09,2.55-4.07,5.19a146.08,146.08,0,0,0-14.23,23.14A148.24,148.24,0,0,0,262.23,423a1.5,1.5,0,0,0,2.89.79Z"/>
    <path d="M324.62,264.73c-9.12,18.94-11.74,40-13.15,60.78-.76,11.18-1.65,22.42.55,33.49a150.67,150.67,0,0,0,4.42,16.19c1.63,5.16,3.23,10.34,5.3,15.34,4,9.78,10.31,19.32,20.28,23.81,1.74.78,3.27-1.8,1.51-2.59-8.5-3.83-14.17-11.56-17.95-19.84a131.45,131.45,0,0,1-5.39-14.8c-1.65-5.17-3.31-10.35-4.56-15.63a73.78,73.78,0,0,1-2-16.35c-.06-5.43.32-10.86.66-16.27a289.65,289.65,0,0,1,3.14-30.13,121.23,121.23,0,0,1,9.83-32.48c.83-1.74-1.76-3.26-2.6-1.52Z"/>
    <path d="M325.9,252.08c4.67-1.27,9.41.57,13.65,2.45A137,137,0,0,1,352.66,261a1.5,1.5,0,0,0,1.52-2.59,136.08,136.08,0,0,0-14.38-7c-4.65-2-9.65-3.58-14.7-2.2a1.5,1.5,0,0,0,.8,2.89Z"/>
    <path d="M315.83,221.41a64.19,64.19,0,0,1,50.88-18.13c1.93.18,1.91-2.82,0-3a67.19,67.19,0,0,0-53,19c-1.38,1.36.74,3.48,2.12,2.12Z"/>
    <path d="M273.56,209c-5-3.42-7.84-9-9.4-14.71a59,59,0,0,1-1.68-19.37c.89-13,6.16-25.77,16.5-34a37,37,0,0,1,16.4-7.59,32.08,32.08,0,0,1,17.87,2.06c12.1,5,20.38,16,23.93,28.4a62.18,62.18,0,0,1,2.08,22.55c-.62,7.1-2.72,14.33-7.58,19.72-1.29,1.43.83,3.55,2.12,2.12,9.48-10.5,10-26.81,7.5-40-2.63-13.76-10.31-26.59-22.76-33.52a36.39,36.39,0,0,0-19-4.76,38,38,0,0,0-18.6,6c-11.93,7.57-19,20.5-20.91,34.3a65.44,65.44,0,0,0,.44,21.27c1.17,6.21,3.53,12.49,8,17.13a22.63,22.63,0,0,0,3.65,3.05c1.6,1.1,3.1-1.5,1.52-2.59Z"/>
    <path d="M384.9,212c-8.64-7.07-14.84-17.49-16-28.7a33.26,33.26,0,0,1,11.13-28.66,31,31,0,0,1,13.66-7,28.21,28.21,0,0,1,16.41,1.6c5.78,2.26,10.94,6,15.56,10.08s8.86,8.92,11,14.94c2.22,6.31,2.34,13.09,1.61,19.68a97,97,0,0,1-1.82,10.42c-.36,1.64-.76,3.29-1.17,4.92l-.63,2.43c-.1.4-.21.8-.32,1.2-.06.24-.12.48-.19.72-.31.58,0,1,.88,1.41,1-1.64-1.55-3.14-2.59-1.52a2.19,2.19,0,0,0,1.3,3.21c1.66.54,2.83-.9,3.3-2.3a99.93,99.93,0,0,0,2.5-10.1c1.47-6.76,2.52-13.75,2-20.68a35.48,35.48,0,0,0-6.34-18.53,59.67,59.67,0,0,0-15.5-14.17c-5.58-3.69-11.94-6.41-18.67-6.86a30.82,30.82,0,0,0-17,4.11,36.16,36.16,0,0,0-18.25,29.15c-.81,14.05,6.24,28,17,36.81,1.48,1.21,3.62-.9,2.12-2.12Z"/>
    <path d="M434.09,213.22a32.6,32.6,0,0,0,.06,9.91c.41,2.51,1,6.28,3.2,7.86a9.37,9.37,0,0,0,3.93,1.26,28.74,28.74,0,0,0,4.44.4,20.28,20.28,0,0,0,8.35-1.69c5.24-2.38,8.24-7.44,10.64-12.41,1.19-2.46,2.53-5.06,2.55-7.85,0-3-1.8-5.17-4.38-6.42a39.61,39.61,0,0,0-21-3.53c-1.9.19-1.92,3.19,0,3a38.51,38.51,0,0,1,15.81,1.68c2,.65,5.16,1.46,6.22,3.5s-.2,4.79-1.1,6.7c-1.9,4.05-4,8.52-7.66,11.25-3.88,2.86-9,3.22-13.65,2.37-1.3-.24-2.53-.39-3.09-1.71a22.18,22.18,0,0,1-1.18-4.31A27.92,27.92,0,0,1,437,214a1.53,1.53,0,0,0-1-1.84,1.52,1.52,0,0,0-1.85,1Z"/>
    <path d="M383.11,212.74a26.72,26.72,0,0,0-6.92-.08,13.67,13.67,0,0,0-6.06,2.72,105.84,105.84,0,0,0-10,8.39c-6.21,5.94-11.46,13.27-12.86,21.92a25.16,25.16,0,0,0,1.55,14,1.53,1.53,0,0,0,2.06.54,1.55,1.55,0,0,0,.53-2.06c-3-7.16-1.3-15.55,2.5-22.08,4-6.83,10.06-12.13,16.21-16.95,1.77-1.39,3.57-2.87,5.8-3.42a21.09,21.09,0,0,1,7.22,0c1.92.21,1.91-2.8,0-3Z"/>
    <path d="M388,246.44c-.48-6.19-7.76-6.76-12.56-7s-11.75-.53-12.57,5.63a71.48,71.48,0,0,0-.12,9.26v4.61a23.42,23.42,0,0,0,.16,4.51,4.41,4.41,0,0,0,5.39,3.42c2.7-.51,4.89-3,6.77-4.84a84.1,84.1,0,0,0,12.26-14.94c1.05-1.62-1.54-3.13-2.59-1.51a80.41,80.41,0,0,1-8.32,10.78q-2.34,2.53-4.88,4.88c-1.12,1-3.25,3.47-5,2.62-.87-.42-.77-1.67-.77-2.49,0-1.29,0-2.59,0-3.89V250c0-1.83-.57-5,1-6.44,1.27-1.16,3.42-1.1,5-1.13a47.08,47.08,0,0,1,8.22.48c2,.32,4.85,1.15,5,3.58.15,1.91,3.15,1.93,3,0Z"/>
    <path d="M389.17,246.49c4.85-4.77,10.05-9.44,17.29-9.17,3.89.15,7.73,1.28,11.5,2.16l11.63,2.72c1.88.44,2.68-2.45.8-2.89l-12.6-2.95c-4-.94-8.12-2.09-12.28-2.05-7.63.06-13.31,5-18.46,10.05-1.38,1.36.74,3.48,2.12,2.13Z"/>
    <path d="M420.89,240.45a197.77,197.77,0,0,1-28.58,19.21q-7.44,4.09-15.21,7.56c-4.72,2.1-10.12,5.13-15.36,3.18-4.79-1.78-8.06-6.56-9.08-11.43-.39-1.88-3.28-1.09-2.89.8A19.07,19.07,0,0,0,358,271.85a14.14,14.14,0,0,0,6.69,2.21c3,.19,5.91-.86,8.66-2a198.34,198.34,0,0,0,32.75-17.18A202.54,202.54,0,0,0,423,242.57c1.5-1.21-.63-3.32-2.12-2.12Z"/>
    <path d="M449,236.17c2.62.78,4.38,2.92,5.69,5.22a29.66,29.66,0,0,1,3.11,8.12,15.11,15.11,0,0,1-.36,8.93,11.78,11.78,0,0,1-5.71,5.87c-5.8,3-13,2.4-19.37,2.34-6.75,0-13.44-.58-19.83-2.94s-13.41-6.17-20.32-3.46c-1.78.69-1,3.59.8,2.89,6.65-2.6,13.58,1.68,19.74,3.83,7,2.45,14.55,2.7,21.92,2.69,6.8,0,14.31.26,20.2-3.72a14.25,14.25,0,0,0,5.6-7.07,18.17,18.17,0,0,0,.35-9.54c-1.21-6.12-4.48-14.11-11-16.05-1.86-.55-2.65,2.34-.8,2.89Z"/>
    <path d="M433.93,210.46l-10.34,2.85a1.5,1.5,0,0,0,.79,2.9l10.35-2.86a1.5,1.5,0,0,0-.8-2.89Z"/>
    <path d="M375.63,273.8a457.3,457.3,0,0,1-2.47,63.66c-1.07,10.53-2.4,21-3.88,31.53q-1.08,7.75-2.27,15.48a106,106,0,0,1-2.58,12.86,37.55,37.55,0,0,1-5.23,11.48,29.34,29.34,0,0,1-9.71,8.45,58.91,58.91,0,0,1-12,4.88c-3.57,1.09-8.41,2.68-8.06,7.34.37,5,7.06,4.44,10.63,4.68q8,.55,16.07.74c7.54.19,15.81.11,22.55-3.75a17.29,17.29,0,0,0,7.34-8.08c1.66-3.83,1.94-8.05,2.06-12.18s0-8.52,1.27-12.58a21.18,21.18,0,0,1,6.8-9.74,62.36,62.36,0,0,1,10.13-6.7c.55-.31,1.83-1.32,2.5-1s.52,2.11.55,2.67q.19,4.08.41,8.16.81,15.82,1.79,31.64c.13,2.11.1,4.35.94,6.32a6.11,6.11,0,0,0,4.52,3.55c2.4.53,4.92.69,7.35,1q4,.49,8.1.9,7.84.81,15.73,1.36c5.22.36,10.54.89,15.78.82a6.79,6.79,0,0,0,5.38-2.22,7.33,7.33,0,0,0,1.58-5.18c-.32-4.21-3.67-7.54-6.84-10-6.72-5.13-15.15-7-22.67-10.62-2-1-3.93-1.86-4.47-4.18a46.39,46.39,0,0,1-.67-7.46q-.57-7.92-1.08-15.86-1.05-16-1.87-32-1.67-31.89-2.5-63.82-.21-7.82-.36-15.65c0-1.93-3-1.93-3,0q.63,31.43,2.05,62.84t3.64,62.76c.17,2.52.33,5,.55,7.55.18,2.17.62,4.3,2.21,5.9a17.06,17.06,0,0,0,5.22,3.08c1.91.86,3.86,1.63,5.81,2.39a96.43,96.43,0,0,1,11.3,4.87c3.41,1.87,7.18,4.43,9,8a5.09,5.09,0,0,1-.05,5.26c-1.28,1.76-3.82,1.31-5.7,1.23-5.18-.21-10.35-.52-15.52-.9s-10.49-.87-15.72-1.43q-3.81-.4-7.6-.88c-1.22-.15-2.45-.29-3.66-.46a5.56,5.56,0,0,1-3.1-1.06c-1.39-1.31-1.2-3.89-1.31-5.62l-.48-7.91q-.47-7.79-.89-15.57t-.8-15.58c-.09-1.9.07-4.29-1.29-5.81s-3.61-1.19-5.34-.26c-6.8,3.64-14.24,8.18-17.88,15.26-3.92,7.64-1.78,16.22-3.48,24.3a14.93,14.93,0,0,1-5.71,9.3,23.31,23.31,0,0,1-9.89,3.75,61.54,61.54,0,0,1-11.43.6q-7.67-.17-15.34-.64c-2.52-.16-5.13-.19-7.63-.57-.78-.12-1.72-.32-1.94-1.18a2.63,2.63,0,0,1,.76-2.29c1.39-1.46,3.8-1.82,5.64-2.39,2.06-.64,4.11-1.35,6.11-2.16,7.87-3.21,14.78-8.09,18.84-15.73s5.27-16.45,6.55-24.94c1.53-10.25,3-20.51,4.22-30.8a531,531,0,0,0,4.28-62.11c0-5.11-.07-10.21-.27-15.32-.07-1.92-3.07-1.93-3,0Z"/>
    <path d="M382.76,186.76c-2.71.84-5.16-1.55-5.45-4.14-.37-3.41,1.8-6.38,4.17-8.58a25,25,0,0,1,4-3.14c1.34-.8,2.69-1,3.54.52,1.67,3,.05,6.66-1.4,9.36-1.28,2.4-3.23,6.62-6.45,6.57a1.5,1.5,0,0,0,0,3c4.26.06,6.79-4,8.63-7.3,2.17-3.87,4.16-8.74,1.88-13a4.91,4.91,0,0,0-5.36-2.69c-2.22.43-4.1,2.14-5.79,3.56-3.41,2.87-6.55,6.86-6.2,11.59.33,4.5,4.56,8.62,9.25,7.16,1.84-.58,1.06-3.47-.79-2.9Z"/>
    <path d="M414.64,184.07a17.68,17.68,0,0,1-4.31-8.1c-.29-1.25-.79-3.18-.17-4.39s2.65-1.91,3.83-2.36a19.32,19.32,0,0,1,2.45-.77c.56-.13,1.38-.42,1.9-.06a3,3,0,0,1,.81,1.45c.32.91.62,1.83.89,2.76.91,3.07,1.59,6.59,0,9.55a5.87,5.87,0,0,1-3,2.82c-1.2.43-2.74.35-3.31-.94a1.5,1.5,0,1,0-2.59,1.52c1.78,4,7.24,2.87,9.77.43,3.24-3.14,3.57-7.81,2.66-12a26,26,0,0,0-2.1-6.46c-1.11-2.08-3.09-2.54-5.27-2.09a20,20,0,0,0-6.36,2.52,5.56,5.56,0,0,0-2.84,5.27,20.46,20.46,0,0,0,5.58,13c1.32,1.41,3.43-.71,2.12-2.12Z"/>
    <path d="M392.11,179.12l13.92.57c1.93.08,1.93-2.92,0-3l-13.92-.57c-1.93-.07-1.93,2.93,0,3Z"/>
    <path d="M386.39,197.61c4.31,1.9,8.92,3.65,13.71,3.4,4.06-.2,8.18-1.8,10.72-5.07a1.55,1.55,0,0,0,0-2.12,1.51,1.51,0,0,0-2.12,0c-5.14,6.62-14.33,4.05-20.79,1.2-1.75-.77-3.28,1.81-1.52,2.59Z"/>
    <path d="M442.83,126.54a10.18,10.18,0,0,1-.06-1.56c0-.16,0-.32,0-.47s.05-.42,0-.27.05-.27.05-.26.05-.26.07-.38a8.76,8.76,0,0,1,1.09-2.77q.19-.33.42-.66a3.78,3.78,0,0,1,.33-.45,10.47,10.47,0,0,1,1.07-1.14,7.19,7.19,0,0,1,.59-.51c-.17.13.2-.14.2-.14l.32-.22c.22-.14.45-.27.68-.39s.23-.12.34-.18.43-.19.22-.11a1.55,1.55,0,0,0,1-1.84,1.52,1.52,0,0,0-1.85-1,12.35,12.35,0,0,0-7.59,12.4,1.5,1.5,0,1,0,3,0Z"/>
    <path d="M458.43,137.1a14.42,14.42,0,0,1,8.27-1.73,1.5,1.5,0,0,0,0-3,17.59,17.59,0,0,0-9.79,2.14,1.51,1.51,0,0,0-.54,2.05,1.54,1.54,0,0,0,2.06.54Z"/>
    <path d="M467.22,144.71A15.43,15.43,0,0,1,479,146c1.68.94,3.2-1.65,1.51-2.59a18.52,18.52,0,0,0-14.13-1.6,1.5,1.5,0,0,0,.8,2.89Z"/>
    <path d="M356.05,122.37A48.26,48.26,0,0,1,372.47,110a1.51,1.51,0,0,0,.54-2,1.53,1.53,0,0,0-2.05-.54,50.23,50.23,0,0,0-17,12.89,1.53,1.53,0,0,0,0,2.12,1.51,1.51,0,0,0,2.12,0Z"/>
    <path d="M329.93,118.37A23.31,23.31,0,0,1,337,106.82a1.5,1.5,0,1,0-2.12-2.13A26.14,26.14,0,0,0,327,117.57a1.5,1.5,0,0,0,2.89.8Z"/>
    <path d="M313,112.11V97.18a1.5,1.5,0,0,0-3,0v14.93a1.5,1.5,0,0,0,3,0Z"/>
    <path d="M246.75,131.46a15.52,15.52,0,0,1,9.43-5.48,1.51,1.51,0,0,0,1-1.84,1.53,1.53,0,0,0-1.84-1,18.35,18.35,0,0,0-10.75,6.25,1.54,1.54,0,0,0,0,2.12,1.51,1.51,0,0,0,2.12,0Z"/>
    <path d="M222.45,117.08V102.16a1.5,1.5,0,0,0-3,0v14.92a1.5,1.5,0,0,0,3,0Z"/>
    <path d="M200.13,116.59a18.61,18.61,0,0,0-2.81-9.68,1.5,1.5,0,0,0-2.59,1.51,15.37,15.37,0,0,1,2.4,8.17,1.5,1.5,0,1,0,3,0Z"/>
    <path d="M100.55,116.09l0-8.72c0-1.43,0-2.86,0-4.29a3.84,3.84,0,0,1,.15-1.17.81.81,0,0,1,.14-.33c0,.07-.31.1.07,0,1.88-.44,1.09-3.33-.79-2.89-3,.71-2.57,4.75-2.57,7.08l0,10.31a1.5,1.5,0,0,0,3,0Z"/>
    <path d="M59.33,113.12a22.94,22.94,0,0,1-2-1.3l-.43-.32c.28.21,0,0-.08-.06l-.19-.16c-.31-.25-.61-.51-.91-.78-.57-.51-1.12-1-1.64-1.6-.27-.29-.54-.59-.8-.9l-.34-.42-.19-.23c-.2-.25.15.19-.06-.08a1.63,1.63,0,0,0-.9-.69,1.54,1.54,0,0,0-1.15.15,1.51,1.51,0,0,0-.54,2,27.29,27.29,0,0,0,7.67,6.93,1.5,1.5,0,1,0,1.52-2.59Z"/>
    <path d="M34.47,134.93a28.88,28.88,0,0,1-8.6-10.22,1.5,1.5,0,0,0-2.59,1.52A31.93,31.93,0,0,0,33,137.52a1.51,1.51,0,0,0,2-.54,1.53,1.53,0,0,0-.54-2Z"/>
    <path d="M87.12,160.46l-.06-.32.06.39a6.52,6.52,0,0,1,0-1.71l0,.4a6.61,6.61,0,0,1,.38-1.5l-2.51.66a1.83,1.83,0,0,1,.13.16l-.23-.3a2.43,2.43,0,0,1,.28.47l-.16-.36a2.19,2.19,0,0,1,.17.62l-.05-.4a3.05,3.05,0,0,1,0,.74l.06-.39a3.54,3.54,0,0,1-.23.83l.15-.36a3,3,0,0,1-.43.74l.23-.3a2.53,2.53,0,0,1-.49.49l.3-.23a2.73,2.73,0,0,1-.55.32l.36-.15a2.3,2.3,0,0,1-.53.14l.4-.05-.2,0a1.56,1.56,0,0,0-1.06.44,1.5,1.5,0,0,0-.44,1.06,1.52,1.52,0,0,0,1.5,1.5,4,4,0,0,0,2.38-1,4.49,4.49,0,0,0,1.27-1.86,4.11,4.11,0,0,0-.74-4.29,1.48,1.48,0,0,0-1.46-.38,1.55,1.55,0,0,0-1,1,7.93,7.93,0,0,0-.33,4.34,1.5,1.5,0,0,0,.69.89,1.51,1.51,0,0,0,2.06-.54,1.75,1.75,0,0,0,.15-1.15Z"/>
    <path d="M85.91,160.12a2.51,2.51,0,0,1-.26-.45l.15.35a2.76,2.76,0,0,1-.18-.64l.06.4a2.89,2.89,0,0,1,0-.72l-.06.4a3.67,3.67,0,0,1,.2-.74l-.15.36a3,3,0,0,1,.36-.63l-.24.31a2.62,2.62,0,0,1,.44-.44l-.31.23a2.1,2.1,0,0,1,.5-.29,1.5,1.5,0,0,0-.36-2.75l-.4,0a1.48,1.48,0,0,0-.76.21,4.21,4.21,0,0,0-1.58,6,1.68,1.68,0,0,0,.9.69,1.54,1.54,0,0,0,1.15-.16,1.47,1.47,0,0,0,.69-.89,1.43,1.43,0,0,0-.15-1.16Z"/>
    <path d="M103.59,161.85a12,12,0,0,1-.09-2.32c0-.18,0-.36,0-.54,0,0,0-.38,0-.15s0-.11,0-.16c.07-.39.16-.78.26-1.17l-2.2.9.21.13c.28.17-.24-.22-.06,0a2.76,2.76,0,0,1,.3.29c.09.11.13.26-.07-.09l.12.17c.08.13.14.26.21.39s-.15-.39,0-.07l.06.2a2.92,2.92,0,0,1,.1.4c.07.35,0-.2,0-.08a1.49,1.49,0,0,1,0,.21,3.53,3.53,0,0,1,0,.46c0,.07,0,.14,0,.21,0,.27.06-.38,0-.12s-.06.3-.1.44-.1.29-.15.43c.17-.49,0-.06-.06.08a1,1,0,0,1-.11.17s-.22.31,0,.08,0,0-.06.05l-.14.15-.16.13c.27-.28.21-.15.08-.07a2.26,2.26,0,0,1-.43.24,1.51,1.51,0,0,0-.53,2.05,1.54,1.54,0,0,0,2,.54,5.26,5.26,0,0,0,.3-8.94,1.51,1.51,0,0,0-2.2.9,13.06,13.06,0,0,0-.37,5.13,1.69,1.69,0,0,0,.44,1.07,1.51,1.51,0,0,0,1.06.43c.72,0,1.61-.66,1.5-1.5Z"/>
    <path d="M77.1,172.85a30.84,30.84,0,0,0,35,0c1.56-1.11.06-3.71-1.52-2.59a27.9,27.9,0,0,1-32-.05c-1.58-1.12-3.08,1.48-1.52,2.6Z"/>
    <path d="M191.4,176.27c-.06-.19-.11-.37-.15-.56l-.06-.29c0,.16,0,.15,0,0s0-.38,0-.57.07-.63,0-.32a6.4,6.4,0,0,1,.25-1,2.31,2.31,0,0,1,.1-.28c-.06.14-.05.12,0,0s.18-.35.28-.51a4.29,4.29,0,0,1,2.81-2.12,3.4,3.4,0,0,1,1.79.13,4.85,4.85,0,0,1,1.63.92,4.65,4.65,0,0,1,1.27,1.68,3.77,3.77,0,0,1,.33,2,1.5,1.5,0,0,0,1.5,1.5,1.53,1.53,0,0,0,1.5-1.5,7.63,7.63,0,0,0-5.65-7.52,7.1,7.1,0,0,0-8,3.95,7.23,7.23,0,0,0-.48,5.38,1.52,1.52,0,0,0,1.85,1,1.5,1.5,0,0,0,1-1.84Z"/>
    <path d="M216,178.84a5,5,0,0,1,2.11-1.9,4.89,4.89,0,0,1,2.79-.47c-.16,0,.05,0,.1,0s.27.05.4.09.56.17.68.22a10.32,10.32,0,0,1,1.08.63,5,5,0,0,1,1.69,2.29,1.5,1.5,0,1,0,2.9-.8,8.15,8.15,0,0,0-6.68-5.44,8.06,8.06,0,0,0-7.66,3.84c-1,1.65,1.58,3.16,2.59,1.51Z"/>
    <path d="M219.44,194.05a37.81,37.81,0,0,1-23.64-4.74,1.52,1.52,0,0,0-2.2,1.7,18.07,18.07,0,0,0,21.81,13.25c1.88-.45,1.09-3.34-.79-2.89a15,15,0,0,1-18.13-11.16l-2.2,1.69a40.41,40.41,0,0,0,25.15,5.15c1.89-.24,1.92-3.24,0-3Z"/>
    <path d="M287.18,165.91a3.17,3.17,0,0,1-.16-.66l.05.4a3.86,3.86,0,0,1,0-1l-.05.4a4.25,4.25,0,0,1,.26-1l-.15.36a3.94,3.94,0,0,1,.51-.89l-.23.31a3.13,3.13,0,0,1,.63-.63l-.31.24a1.78,1.78,0,0,1,.39-.24l-.36.15a2.26,2.26,0,0,1,.37-.11l-.4.06H288l-.4-.05.17,0-.36-.15.14.08-.3-.23.08.08-.24-.31a.75.75,0,0,1,.07.12l-.15-.36a.65.65,0,0,1,0,.13l0-.39a1.31,1.31,0,0,1,0,.28l0-.39a4.4,4.4,0,0,1-.32,1l.15-.36a7.18,7.18,0,0,1-.93,1.61l.23-.3a7.51,7.51,0,0,1-1.26,1.26l.3-.23a8.73,8.73,0,0,1-.74.5,1.5,1.5,0,1,0,1.51,2.59,8.6,8.6,0,0,0,3.91-5.05,2.21,2.21,0,0,0-.88-2.56,2.35,2.35,0,0,0-2-.13,4.55,4.55,0,0,0-2.43,2.43,5.23,5.23,0,0,0-.25,3.77,1.5,1.5,0,1,0,2.89-.8Z"/>
    <path d="M319.15,165.19a9.31,9.31,0,0,1-1.11-.74l.3.24a9.88,9.88,0,0,1-1.71-1.71l.24.3a8.78,8.78,0,0,1-1-1.57l-.54,2,.24-.12-.36.15a1.93,1.93,0,0,1,.41-.12l-.4.06a1.63,1.63,0,0,1,.54,0l-.4-.06a2.94,2.94,0,0,1,.58.16l-.36-.15a3.12,3.12,0,0,1,.59.34l-.3-.23a2.67,2.67,0,0,1,.48.47l-.24-.3a3.76,3.76,0,0,1,.49.85l-.15-.36a9.9,9.9,0,0,1,.51,2.28,1.5,1.5,0,0,0,1.85,1.05,1.5,1.5,0,0,0,.89-.69l.15-.36a1.36,1.36,0,0,0,0-.8,6.71,6.71,0,0,0-1.59-4,3.68,3.68,0,0,0-4.44-.74,1.55,1.55,0,0,0-.69.9,1.62,1.62,0,0,0,.15,1.16,10.88,10.88,0,0,0,4.34,4.55,1.5,1.5,0,1,0,1.51-2.59Z"/>
    <path d="M277.92,183.49c2.41,5.59,8.39,8.14,14.08,8.89a58.55,58.55,0,0,0,20.39-1.2c1.88-.43,1.09-3.32-.79-2.9a57.34,57.34,0,0,1-18.28,1.25c-5.16-.51-10.62-2.47-12.81-7.56-.76-1.77-3.35-.24-2.59,1.52Z"/>
    <path d="M287.09,165.5c0-.06-.06-.13-.1-.19.21.35.1.24.06.1a2.59,2.59,0,0,1-.09-.4l.05.4a2.69,2.69,0,0,1,0-.75l-.06.39a3.16,3.16,0,0,1,.13-.53c.13-.36-.13.26,0,0l.11-.21a2.43,2.43,0,0,0,.14-.2c-.24.39-.12.15,0,0l.2-.18c-.32.31-.16.12,0,0l-2.21-.89a10.46,10.46,0,0,1,.56,2l-.05-.4a4.88,4.88,0,0,1,0,1.08l.06-.4a4.12,4.12,0,0,1-.18.69c-.05.15.18-.36,0-.12l-.07.14c-.08.14-.33.4,0,.06l-.23.25c-.09.08-.23.13.11-.08l-.12.09-.16.08c-.12.08.38-.12.13-.05a1.55,1.55,0,0,1-.36.08l.39-.05a2.37,2.37,0,0,1-.46,0l.4.06c-.05,0-.43-.13-.44-.12s.39.19.08,0l-.17-.1c-.27-.17.17.15.05.05l-.15-.13-.17-.17c-.09-.11-.16-.28,0,.05-.07-.13-.17-.24-.24-.37l-.09-.18c-.16-.3.05,0,0,.08s-.12-.37-.14-.43-.06-.3-.09-.46l.06.4a4,4,0,0,1,0-.91l0,.4a4.49,4.49,0,0,1,.19-.72c-.15.46,0,.1,0,0s.2-.18-.06.07l.12-.14a1.42,1.42,0,0,1,.13-.12c.15-.16-.29.18-.14.1l.26-.15c.12-.08-.38.13-.16.06l.15,0,.33-.07-.4.06a2.49,2.49,0,0,1,.61,0l-.4-.05a2.73,2.73,0,0,1,.41.1c.24.07-.37-.2-.11-.05l.17.1c.21.13-.28-.25-.12-.09a1.33,1.33,0,0,0,.16.17c-.06,0-.24-.36-.1-.12s-.11-.31,0-.08a1.5,1.5,0,0,0,2.9-.8,3.09,3.09,0,0,0-1.55-1.81,3.93,3.93,0,0,0-2.46-.3,3.24,3.24,0,0,0-1.84,1.05,4.36,4.36,0,0,0-1.05,2.55,5,5,0,0,0,1.76,4.23,3.68,3.68,0,0,0,3,.86,3.34,3.34,0,0,0,2-1.2,4.57,4.57,0,0,0,1-2.92,9.35,9.35,0,0,0-.65-3,1.53,1.53,0,0,0-2.21-.9A4.23,4.23,0,0,0,284.5,167a1.51,1.51,0,0,0,2.05.54,1.54,1.54,0,0,0,.54-2.05Z"/>
    <path d="M318.05,165.77l-.16-.18c-.12-.13.18.27,0,0a3.26,3.26,0,0,1-.24-.4c0-.06-.07-.13-.11-.2s.12.35,0,.05-.09-.29-.13-.44l0-.19c-.07-.32,0,.36,0,0,0-.13,0-.27,0-.41s0-.16,0-.23c0-.32-.06.25,0,.07s.07-.33.12-.49l-1.84,1c.13,0,.25.06.38.09s-.33-.19-.08,0l.15.08c.21.12-.07,0-.09-.08l.13.12c.06.05.1.11.15.16s-.2-.3,0,0a.6.6,0,0,1,.09.15c.1.18,0,.15,0-.08a1.5,1.5,0,0,0,.11.34c.07.23,0-.11,0-.14s0,.16,0,.21-.09.22,0-.12a1.16,1.16,0,0,0,0,.18.76.76,0,0,0-.06.18s.18-.35.06-.15l-.15.25c-.14.23.21-.21.08-.09a1.59,1.59,0,0,0-.13.13l-.11.11c-.19.18.3-.2.06-.05l-.26.16-.14.07c-.24.13.3-.09.11,0l-.33.09-.15,0c.31-.12.28,0,.09,0h-.3c-.28,0,.31.08.13,0l-.18,0-.15-.05c-.15,0,0-.09.14.07a1.9,1.9,0,0,0-.34-.2c-.24-.15.22.2.09.06l-.11-.1-.14-.14c-.08-.09-.08-.19.09.12-.05-.09-.13-.18-.18-.26l-.09-.18c-.17-.27.06.21,0,.07s-.14-.43-.19-.65,0,.14,0,.16a1.36,1.36,0,0,0,0-.2c0-.14,0-.27,0-.4s-.08.4,0,.12l0-.16.09-.3c.08-.28-.14.27,0,.09a1.86,1.86,0,0,1,.1-.2c.05-.1.21-.26.23-.37s-.23.28-.07.1l.18-.19.33-.3c-.33.3,0,0,.14-.06s.32-.12.39-.21c-.1.12-.28.11-.11.05l.25-.09a3.54,3.54,0,0,1,.44-.11s.34,0,.06,0h.6a1.5,1.5,0,0,0,1.5-1.5,1.52,1.52,0,0,0-1.5-1.5,5.6,5.6,0,0,0-4.45,1.88,4.68,4.68,0,0,0-.89,4.63,4,4,0,0,0,7.69.18,3.76,3.76,0,0,0-2.82-4.74,1.55,1.55,0,0,0-1.84,1,5.38,5.38,0,0,0,1.25,5.26,1.52,1.52,0,0,0,2.12,0,1.54,1.54,0,0,0,0-2.12Z"/>
    <path d="M310.9,191.17A16.15,16.15,0,0,0,318,186.3a1.5,1.5,0,1,0-2.12-2.12,14.78,14.78,0,0,1-1.33,1.41c-.23.21-.47.42-.71.61l-.21.17c.08-.05.21-.16,0-.05l-.42.31a14.76,14.76,0,0,1-1.62,1c-.29.15-.59.29-.9.43l.07,0-.24.09a4.84,4.84,0,0,1-.49.18,1.5,1.5,0,0,0,.79,2.9Z"/>
  </g>
  <g id="Layer_4" data-name="Layer 4">
    <path d="M68.41,18.27c2.53-5.94,12.66-7.34,18.14-4.5,4.84,2.5,4,12.11,3.26,16.64-1.07,6.56-7.28,11-12,15.08A197.91,197.91,0,0,1,60.56,58.78c-4,2.78-2.64,9.17,2.53,9.32,6.56.19,13.12.22,19.68,0,4.76-.14,11.57.85,15.08-3A5.24,5.24,0,0,0,98.63,59l-.29-.62c-2.73-5.83-11.35-.75-8.64,5l.29.62L90.78,58c-.14.15-5.33,0-6,0q-3.43.12-6.89.17c-4.92.08-9.84,0-14.76-.12l2.52,9.32a207.86,207.86,0,0,0,25.1-20.14c7.93-7.53,9.91-15.81,9.23-26.53-.6-9.52-5.21-16.2-15.07-17.53-9.34-1.27-20.93.24-25.09,10-2.5,5.86,6.11,11,8.63,5Z" style="fill: #27187e"/>
    <path d="M137.46,36.86H172c6.43,0,6.44-10,0-10H137.46c-6.43,0-6.44,10,0,10Z" style="fill: #27187e"/>
    <path d="M151.76,6.17l-.06,29.72c0,8.83-.61,17.6,3.07,25.84,2.61,5.86,11.23.78,8.63-5-3.24-7.26-1.71-17-1.69-24.75l0-25.76c0-6.44-10-6.45-10,0Z" style="fill: #27187e"/>
    <path d="M212.31,15.76c0-2.28,8.49-4.29,9.93-4.7,3.4-1,7-1.56,10.46-.52,7.74,2.35,6.71,10.67,4.54,16.89-4.8,13.79-18.41,21.55-32.5,22-6.42.23-6.45,10.22,0,10a368.87,368.87,0,0,1,37.91.66c6.42.44,6.39-9.57,0-10a368.87,368.87,0,0,0-37.91-.66v10c22.22-.78,44.48-17.27,44.09-41.21C248.65,6.93,239-.31,228.1,0c-9,.26-25.61,4.53-25.79,15.75-.1,6.43,9.9,6.44,10,0Z" style="fill: #27187e"/>
    <path d="M270,32.11a121.45,121.45,0,0,1,20.09.53c6.39.7,6.34-9.3,0-10A121.45,121.45,0,0,0,270,22.11c-6.4.36-6.44,10.36,0,10Z" style="fill: #27187e"/>
    <path d="M270,48.9h18.46c6.44,0,6.45-10,0-10H270c-6.44,0-6.45,10,0,10Z" style="fill: #27187e"/>
    <path d="M339.26,1.62C334,6.7,328.87,11.94,324,17.38c-3.18,3.52-10.58,9.29-10.35,14.53.24,5.59,8.47,7.43,12.41,9.78a82.76,82.76,0,0,1,16.14,12.67c4.57,4.55,11.64-2.52,7.07-7.07a96.54,96.54,0,0,0-12.53-10.57q-3.09-2.19-6.36-4.09c-1.58-.92-5.61-3.89-7.47-3.86q-2-1.23.09,1.8c.3,2.6,1,2.86,2,.76a16.83,16.83,0,0,0,2.39-2.77q3-3.45,6.11-6.81c4.14-4.48,8.43-8.82,12.82-13.06,4.64-4.48-2.44-11.54-7.07-7.07Z" style="fill: #27187e"/>
    <path d="M375.75,7.77v45c0,6.43,10,6.44,10,0v-45c0-6.43-10-6.44-10,0Z" style="fill: #ff8600"/>
    <path d="M407.57,8c-4.48,4.77-4.35,11.09-4.55,17.28-.19,5.93-.46,12.27,1.44,18,3.86,11.68,16.84,15.38,27.08,9.06,9.07-5.61,17.18-21.19,14.11-31.85C442,7.68,427.61,4.78,416.07,5.14c-6.42.19-6.45,10.19,0,10,6.69-.21,17.53,0,19.94,8,1.73,5.82-3.74,15.75-8.08,19.44-6,5.09-13,3.08-14.53-4.59a50,50,0,0,1-.43-10.8c.08-3.42-.81-9.48,1.67-12.12C419,10.4,412,3.31,407.57,8Z" style="fill: #ff8600"/>
  </g>
</svg>
