<svg xmlns="http://www.w3.org/2000/svg" viewBox="0 0 686 655">
  <title>Artboard 1</title>
  <g id="Layer_2" data-name="Layer 2">
    <rect x="-1" y="-1" width="688" height="656" style="fill: #fff"/>
  </g>
  <g id="Layer_5" data-name="Layer 5">
    <path d="M599,178.87a32.32,32.32,0,0,1-6,18.83c-10.06,15.05-23.72,26-37.36,37.42a15.83,15.83,0,0,0-4.81,10.54c-1.52,69.15-27.14,148.24-72.78,200.51-54.58,62.49-129,104.88-215.08,104.88a16,16,0,0,1,0-32c158.56,0,245-138.6,255-256.93a24.83,24.83,0,0,0,.76-6.81c0-1,0-2,.07-3a52,52,0,0,1,16.43-35,12.1,12.1,0,0,0,1.17-1.27,236.82,236.82,0,0,0,30.46-37.15A180.38,180.38,0,0,1,530,190.8a4,4,0,0,1-2.8-6.82s-.11,0-.12,0a92.8,92.8,0,0,0,27.48-41.82,185.35,185.35,0,0,1-26.68,13.1,51.87,51.87,0,0,1-48.2-4.95c-.32-.22-.65-.36-1-.56A84.29,84.29,0,0,0,431,135.06l-1.88.34c-39.74,0-69.95,22.41-81.24,56.71-.31.15-3.55,14.4-3.87,16.45A40,40,0,0,1,304.5,242.3a37.46,37.46,0,0,1-6.38-.54c-52.47-9.81-99.85-32.5-135.21-69.4a6.52,6.52,0,0,1-.68-.54,12,12,0,0,0-17,0,12.14,12.14,0,0,0-2.53,3.73c-.14.34-.23.34-.34.41-4.27,9.87-7.39,20.54-7.39,31.09,0,21.84,8.87,41.77,22.22,57.6,0,0-.16-.07-.09,0A8,8,0,0,1,151,277.8a7.72,7.72,0,0,1-2.5-.5l-.37-.16a.61.61,0,0,1-.56,0,7.89,7.89,0,0,0-3.57-.84,8,8,0,0,0-8,7.82c4.17,28.47,21.64,53.68,45.23,68.46-.3,0-.48,0-.37,0a8,8,0,0,1-4.38,14.69h-.27a1.73,1.73,0,0,0-.31-.07c-.28,0-.55-.1-.84-.13a4,4,0,0,0-3.84,4,3.91,3.91,0,0,0,.39,1.75A92.84,92.84,0,0,0,203,413c.16.13.2.24.39.38a27.48,27.48,0,0,1,3.38,2.87,28,28,0,0,1-11.56,46.55l-.05,0a171.64,171.64,0,0,1-52.2,8.22H133a4,4,0,0,0-4,4,3.89,3.89,0,0,0,1.58,3.09c6.59,3.91,13.33,7.73,20.35,11.28l0,0a15.38,15.38,0,1,1-16.72,25.72C123,509.29,112.1,503,101.77,496.33a32.53,32.53,0,0,1-12.88-38.2C93.49,445.14,105.6,439,119,439c6,.72,17.9,0,24,0,12.29,0,22.35-2.53,34-5.34a124.9,124.9,0,0,1-38.26-57.57,32.72,32.72,0,0,1-.65-17.4C117.44,336.2,103,303.44,103,271.06c.16-8,5.28-14.71,10.5-20.44-5.06-13.76-10.5-28.43-10.5-43.57,0-22.14,8.56-44,19.56-63,5.31-9.19,18-16.17,28.45-17,9.6,0,18,5.27,24.15,12.84,30.17,37.35,77.4,57.43,123.87,68.91a14.26,14.26,0,0,0,2.47.25,16,16,0,0,0,15.59-12.44c12.74-53.78,54.48-93.62,112-93.62a123.7,123.7,0,0,1,68.15,20.63A19.9,19.9,0,0,0,508,126.81a19.29,19.29,0,0,0,5-.72,150,150,0,0,0,25.12-11.79c5.08-3,10.73-3.26,16.36-3.26,7.11,0,14.19,1.13,20,5.79A32.55,32.55,0,0,1,585.08,152s0,.07,0,.11A32.47,32.47,0,0,1,599,178.87ZM119,439c-1.26-.14,1.25,0,0,0Zm32-312c-.83,0,.83-.08,0,0Zm56,384a16,16,0,1,1-16,16,16,16,0,0,1,16-16Z" style="fill: #00aced;fill-rule: evenodd"/>
  </g>
</svg>
