<svg id="Layer_1" data-name="Layer 1" xmlns="http://www.w3.org/2000/svg" viewBox="0 0 457 358.26">
  <title>Artboard 1</title>
  <ellipse cx="419" cy="8.44" rx="5.5" ry="7.5" style="fill: #27187e;opacity: 0.7000000000000001"/>
  <path d="M414,17.44h9l9-8s4.14-.42,3,3c-1,3-9,7-10,11s-1,33-1,33-2,5-4,5-7-1-7-7v-31l-12-11s-1.5-1.5.5-3.5C403.14,7.31,413.81,17.1,414,17.44Z" style="fill: #27187e;opacity: 0.7000000000000001"/>
  <ellipse cx="383.56" cy="7.5" rx="5.5" ry="7.5" style="fill: #27187e;opacity: 0.7000000000000001"/>
  <path d="M378.56,16.5h9l9-8s4.14-.42,3,3c-1,3-9,7-10,11s-1,33-1,33-2,5-4,5-7-1-7-7v-31l-12-11s-1.5-1.5.5-3.5C367.7,6.36,378.37,16.16,378.56,16.5Z" style="fill: #27187e;opacity: 0.7000000000000001"/>
  <path d="M73.52,99.73h7.2l8.4,10.8s0,3.6-2.4,2.4-6-7.2-6-7.2v27.6s-3.6,8.4-8.4,0v-26.4l-6,6s-3.6,1.2-2.4-2.4,7.2-9.6,7.2-9.6Z" style="fill: #27187e;opacity: 0.7000000000000001"/>
  <ellipse cx="76.52" cy="90.73" rx="5.4" ry="7.8" style="fill: #27187e;opacity: 0.7000000000000001"/>
  <path d="M97.52,99.73h7.2l8.4,10.8s0,3.6-2.4,2.4-6-7.2-6-7.2v27.6s-3.6,8.4-8.4,0v-26.4l-6,6s-3.6,1.2-2.4-2.4,7.2-9.6,7.2-9.6Z" style="fill: #27187e;opacity: 0.7000000000000001"/>
  <ellipse cx="100.52" cy="90.73" rx="5.4" ry="7.8" style="fill: #27187e;opacity: 0.7000000000000001"/>
  <path d="M79.52,211.73h7.2l8.4,10.8s0,3.6-2.4,2.4-6-7.2-6-7.2v27.6s-3.6,8.4-8.4,0v-26.4l-6,6s-3.6,1.2-2.4-2.4,7.2-9.6,7.2-9.6Z" style="fill: #27187e;opacity: 0.7000000000000001"/>
  <ellipse cx="82.52" cy="202.73" rx="5.4" ry="7.8" style="fill: #27187e;opacity: 0.7000000000000001"/>
  <path d="M187.22,292.43h7.2l8.4,10.8s0,3.6-2.4,2.4-6-7.2-6-7.2V326s-3.6,8.4-8.4,0v-26.4l-6,6s-3.6,1.2-2.4-2.4,7.2-9.6,7.2-9.6Z" style="fill: #27187e;opacity: 0.7000000000000001"/>
  <ellipse cx="190.22" cy="283.43" rx="5.4" ry="7.8" style="fill: #27187e;opacity: 0.7000000000000001"/>
  <path d="M346.82,293H354l8.4,10.8s0,3.6-2.4,2.4-6-7.2-6-7.2v27.6s-3.6,8.4-8.4,0v-26.4l-6,6s-3.6,1.2-2.4-2.4,7.2-9.6,7.2-9.6Z" style="fill: #27187e;opacity: 0.7000000000000001"/>
  <ellipse cx="349.82" cy="284.03" rx="5.4" ry="7.8" style="fill: #27187e;opacity: 0.7000000000000001"/>
  <path d="M370.82,293H378l8.4,10.8s0,3.6-2.4,2.4-6-7.2-6-7.2v27.6s-3.6,8.4-8.4,0v-26.4l-6,6s-3.6,1.2-2.4-2.4,7.2-9.6,7.2-9.6Z" style="fill: #27187e;opacity: 0.7000000000000001"/>
  <ellipse cx="373.82" cy="284.03" rx="5.4" ry="7.8" style="fill: #27187e;opacity: 0.7000000000000001"/>
  <text transform="translate(167.29 210.68)" style="font-size: 20px;fill: #666;font-family: NunitoSans-ExtraBold, Nunito Sans;font-weight: 800;letter-spacing: -0.1em">Win / <tspan x="45.32" y="0" style="letter-spacing: -0.10498046875em">L</tspan><tspan x="54.48" y="0">ose</tspan><tspan style="letter-spacing: -0.10498046875em"><tspan x="0" y="24">L</tspan><tspan x="9.16" y="24" style="letter-spacing: -0.1em">os</tspan><tspan x="26.66" y="24" style="letter-spacing: -0.081005859375em">e</tspan><tspan x="35.7" y="24" style="letter-spacing: -0.060009765625em">/</tspan><tspan x="41.12" y="24" style="letter-spacing: -0.1em">Win</tspan></tspan></text>
  <text transform="translate(259.12 161.01)" style="font-size: 20px;fill: #666;font-family: NunitoSans-ExtraBold, Nunito Sans;font-weight: 800;letter-spacing: -0.1099853515625em">C<tspan x="11.36" y="0" style="letter-spacing: -0.1em">omp</tspan><tspan x="47.08" y="0" style="letter-spacing: -0.1099609375em">r</tspan><tspan x="52.9" y="0" style="letter-spacing: -0.1em">omise</tspan></text>
  <text transform="translate(366.55 102.1)" style="font-size: 20px;fill: #666;font-family: NunitoSans-ExtraBold, Nunito Sans;font-weight: 800;letter-spacing: -0.1em"><tspan xml:space="preserve">Win  / Win</tspan></text>
  <polyline points="159 240.44 159 185.44 250 185.44 250 132.94 352.5 132.94 352.5 72.94 440.5 72.94" style="fill: none;stroke: #ff931e;stroke-miterlimit: 10;stroke-width: 10px"/>
  <g>
    <polyline points="140 271.44 140.63 109.03 140.97 20.3" style="fill: none;stroke: #999;stroke-miterlimit: 10;stroke-width: 6px"/>
    <polygon points="151.1 32.29 140.97 22.08 130.75 32.21 130.79 23.58 141 13.45 151.13 23.66 151.1 32.29" style="fill: #999"/>
  </g>
  <g>
    <polyline points="138.84 268.8 332.83 269.43 440.14 269.77" style="fill: none;stroke: #999;stroke-miterlimit: 10;stroke-width: 6px"/>
    <polygon points="428.16 279.91 438.37 269.77 428.22 259.56 436.86 259.59 447 269.8 436.8 279.94 428.16 279.91" style="fill: #999"/>
  </g>
  <text transform="translate(55.6 153.01)" style="font-size: 20px;fill: #666;font-family: NunitoSans-Bold, Nunito Sans;font-weight: 700"><tspan style="letter-spacing: -0.077978515625em">T</tspan><tspan x="10.7" y="0">ru</tspan><tspan x="29.94" y="0" style="letter-spacing: -0.0050048828125em">s</tspan><tspan x="39.54" y="0">t</tspan><tspan style="font-size: 18px"><tspan x="0" y="21.6" xml:space="preserve">   and</tspan></tspan></text>
  <text transform="translate(0 266.39)" style="font-size: 20px;fill: #666;font-family: NunitoSans-Bold, Nunito Sans;font-weight: 700;letter-spacing: -0.1em">Resiponsi<tspan x="71.3" y="0" style="letter-spacing: -0.1080078125em">v</tspan><tspan x="79.66" y="0" style="letter-spacing: -0.0999755859375em">eness</tspan></text>
  <text transform="translate(146.5 347.45)" style="font-size: 20px;fill: #666;font-family: NunitoSans-Bold, Nunito Sans;font-weight: 700;letter-spacing: -0.025em">No <tspan x="30.36" y="0" style="letter-spacing: -0.0349853515625em">C</tspan><tspan x="43.22" y="0">ompa</tspan><tspan x="93" y="0" style="letter-spacing: -0.035009765625em">r</tspan><tspan x="99.96" y="0">e </tspan><tspan x="115" y="0" style="font-size: 24px;letter-spacing: -0.025004069010416668em"> </tspan><tspan x="120.9" y="0" style="font-size: 18px;font-family: NunitoSans-Regular, Nunito Sans;font-weight: 400;letter-spacing: -0.025010850694444444em">and</tspan><tspan x="149.79" y="0" xml:space="preserve" style="font-size: 24px;letter-spacing: -0.024983723958333332em">   </tspan><tspan x="167.5" y="0" style="letter-spacing: -0.035009765625em">C</tspan><tspan x="180.36" y="0">oope</tspan><tspan x="224" y="0" style="letter-spacing: -0.027001953125em">r</tspan><tspan x="231.12" y="0">ation</tspan></text>
</svg>
