<svg xmlns="http://www.w3.org/2000/svg" xmlns:xlink="http://www.w3.org/1999/xlink" viewBox="0 0 405 162">
  <defs>
    <clipPath id="clip-path">
      <rect x="1.79" y="2.47" width="399.6" height="155.56" style="fill: none"/>
    </clipPath>
  </defs>
  <g id="Layer_2" data-name="Layer 2">
    <g id="color">
      <rect width="405" height="162" style="fill: #fff"/>
      <g style="clip-path: url(#clip-path)">
        <path d="M69.79,140.8A46.24,46.24,0,1,0,23.55,94.56,46.24,46.24,0,0,0,69.79,140.8" style="fill: #df225a"/>
        <circle cx="69.79" cy="94.56" r="46.24" style="fill: none;stroke: #a1c639"/>
      </g>
      <text transform="translate(146.12 22.67)" style="font-size: 11.199999809265137px;fill: #1d1d1b;font-family: AvenirNext-Medium, Avenir Next;font-weight: 500">1st O<tspan x="27.63" y="0" style="letter-spacing: -0.005013602205916851em">P</tspan><tspan x="34.24" y="0">TION</tspan></text>
      <line x1="29.19" y1="36.96" x2="314.79" y2="36.96" style="fill: none;stroke: #3a4149;stroke-width: 2.4000000953674316px"/>
      <g style="clip-path: url(#clip-path)">
        <line x1="4.29" y1="16.52" x2="4.29" y2="150.57" style="fill: none;stroke: #2b5da9;stroke-linecap: round;stroke-linejoin: round;stroke-width: 5px;stroke-dasharray: 0,9.930000305175781"/>
        <line x1="14.41" y1="155.54" x2="393.84" y2="155.54" style="fill: none;stroke: #2b5da9;stroke-linecap: round;stroke-linejoin: round;stroke-width: 5px;stroke-dasharray: 0,10.118000030517578"/>
        <line x1="398.9" y1="145.61" x2="398.9" y2="11.56" style="fill: none;stroke: #2b5da9;stroke-linecap: round;stroke-linejoin: round;stroke-width: 5px;stroke-dasharray: 0,9.930000305175781"/>
        <line x1="388.78" y1="6.59" x2="9.35" y2="6.59" style="fill: none;stroke: #2b5da9;stroke-linecap: round;stroke-linejoin: round;stroke-width: 5px;stroke-dasharray: 0,10.118000030517578"/>
        <path d="M4.29,6.59h0m394.61,0h0m0,149h0m-394.61,0h0" style="fill: none;stroke: #2b5da9;stroke-linecap: round;stroke-linejoin: round;stroke-width: 5px"/>
        <path d="M172,134.91c23.16,0,41.92-18.07,41.92-40.35S195.15,54.22,172,54.22s-41.92,18.06-41.92,40.34,18.77,40.35,41.92,40.35" style="fill: #315293"/>
        <path d="M262.65,134.72a35.91,35.91,0,1,0-35.91-35.9,35.91,35.91,0,0,0,35.91,35.9" style="fill: #4d4d4d"/>
        <path d="M344.82,126.56c13.68,0,24.76-12.42,24.76-27.74S358.5,71.07,344.82,71.07s-24.77,12.42-24.77,27.75,11.09,27.74,24.77,27.74" style="fill: #e9e9e9"/>
      </g>
    </g>
  </g>
</svg>
