<svg xmlns="http://www.w3.org/2000/svg" viewBox="0 0 325.06 287.69">
  <g id="Layer_2" data-name="Layer 2">
    <g id="Layer_1-2" data-name="Layer 1">
      <rect width="325.06" height="279.24" style="fill: #319191;opacity: 0.6000000000000001"/>
      <rect x="39.35" y="33.81" width="62.13" height="183" rx="12" style="fill: #315293;stroke: #000;stroke-miterlimit: 10;stroke-width: 6px"/>
      <rect x="101.63" y="33.31" width="62.13" height="183" rx="12" style="fill: #315293;stroke: #000;stroke-miterlimit: 10;stroke-width: 6px"/>
      <rect x="193.22" y="33.81" width="62.13" height="183" rx="12" transform="translate(-28.13 77.43) rotate(-18.45)" style="fill: #315293;stroke: #000;stroke-miterlimit: 10;stroke-width: 6px"/>
      <text transform="translate(57.35 165.74)" style="font-size: 60px;fill: #fff;font-family: Baskerville-Bold, Baskerville;font-weight: 700">I</text>
      <text transform="translate(111.11 165.74)" style="font-size: 60px;fill: #fff;font-family: Baskerville-Bold, Baskerville;font-weight: 700">R</text>
      <text transform="translate(214.52 169.16) rotate(-18.45)" style="font-size: 60px;fill: #fff;font-family: Baskerville-Bold, Baskerville;font-weight: 700">C</text>
      <rect x="54.42" y="67.81" width="32" height="9" style="fill: #319191"/>
      <rect x="54.42" y="83.57" width="32" height="9" style="fill: #319191"/>
      <rect x="116.7" y="67.81" width="32" height="9" style="fill: #319191"/>
      <rect x="116.7" y="83.57" width="32" height="9" style="fill: #319191"/>
      <text transform="translate(36.33 265.64)" style="font-size: 53px;fill: #315293;font-family: Baskerville-Bold, Baskerville;font-weight: 700"><tspan style="letter-spacing: 0.01759655070754717em">L</tspan><tspan x="34.6" y="0" style="letter-spacing: 0.007499262971698113em">I</tspan><tspan x="56.53" y="0" style="letter-spacing: -0.017799233490566037em">B</tspan><tspan x="92.02" y="0" style="letter-spacing: 0.0498046875em">R</tspan><tspan x="134.41" y="0" style="letter-spacing: 0.03740418632075472em">A</tspan><tspan x="170.06" y="0" style="letter-spacing: -0.04309772995283019em">R</tspan><tspan x="207.53" y="0">Y</tspan></text>
      <rect x="191.52" y="71.72" width="32" height="9" transform="translate(-13.52 79.93) rotate(-21.13)" style="fill: #319191"/>
      <rect x="197.2" y="86.42" width="32" height="9" transform="translate(-18.44 82.97) rotate(-21.13)" style="fill: #319191"/>
    </g>
  </g>
</svg>
