<svg xmlns="http://www.w3.org/2000/svg" viewBox="0 0 719.35 570.9">
  <g id="Layer_2" data-name="Layer 2">
    <g id="shape">
      <rect x="235.83" y="0.5" width="106.76" height="27.66" rx="12" style="fill: none;stroke: #1d1d1b;stroke-miterlimit: 10"/>
      <rect x="3.22" y="65.04" width="106.76" height="27.66" rx="12" style="fill: none;stroke: #1d1d1b;stroke-miterlimit: 10"/>
      <rect x="119.98" y="65.04" width="106.76" height="27.66" rx="12" style="fill: none;stroke: #1d1d1b;stroke-miterlimit: 10"/>
      <rect x="236.74" y="65.04" width="106.76" height="27.66" rx="12" style="fill: none;stroke: #1d1d1b;stroke-miterlimit: 10"/>
      <rect x="501.88" y="65.04" width="106.76" height="27.66" rx="12" style="fill: none;stroke: #1d1d1b;stroke-miterlimit: 10"/>
      <rect x="381.5" y="65.04" width="106.76" height="27.66" rx="12" style="fill: none;stroke: #1d1d1b;stroke-miterlimit: 10"/>
      <rect x="1.41" y="115.75" width="106.76" height="27.66" rx="12" style="fill: none;stroke: #1d1d1b;stroke-miterlimit: 10"/>
      <rect x="118.17" y="115.75" width="106.76" height="27.66" rx="12" style="fill: none;stroke: #1d1d1b;stroke-miterlimit: 10"/>
      <rect x="234.92" y="115.75" width="106.76" height="27.66" rx="12" style="fill: none;stroke: #1d1d1b;stroke-miterlimit: 10"/>
      <rect x="500.07" y="115.75" width="106.76" height="27.66" rx="12" style="fill: none;stroke: #1d1d1b;stroke-miterlimit: 10"/>
      <rect x="379.68" y="115.75" width="106.76" height="27.66" rx="12" style="fill: none;stroke: #1d1d1b;stroke-miterlimit: 10"/>
      <rect x="2.31" y="166.46" width="106.76" height="27.66" rx="12" style="fill: none;stroke: #1d1d1b;stroke-miterlimit: 10"/>
      <rect x="119.07" y="166.46" width="106.76" height="27.66" rx="12" style="fill: none;stroke: #1d1d1b;stroke-miterlimit: 10"/>
      <rect x="235.83" y="166.46" width="106.76" height="27.66" rx="12" style="fill: none;stroke: #1d1d1b;stroke-miterlimit: 10"/>
      <rect x="500.97" y="166.46" width="106.76" height="27.66" rx="12" style="fill: none;stroke: #1d1d1b;stroke-miterlimit: 10"/>
      <rect x="380.59" y="166.46" width="106.76" height="27.66" rx="12" style="fill: none;stroke: #1d1d1b;stroke-miterlimit: 10"/>
      <rect x="0.5" y="217.17" width="106.76" height="27.66" rx="12" style="fill: none;stroke: #1d1d1b;stroke-miterlimit: 10"/>
      <rect x="117.26" y="217.17" width="106.76" height="27.66" rx="12" style="fill: none;stroke: #1d1d1b;stroke-miterlimit: 10"/>
      <rect x="499.16" y="217.17" width="106.76" height="27.66" rx="12" style="fill: none;stroke: #1d1d1b;stroke-miterlimit: 10"/>
      <rect x="378.78" y="217.17" width="106.76" height="27.66" rx="12" style="fill: none;stroke: #1d1d1b;stroke-miterlimit: 10"/>
      <rect x="3.22" y="267.88" width="106.76" height="27.66" rx="12" style="fill: none;stroke: #1d1d1b;stroke-miterlimit: 10"/>
      <rect x="119.98" y="267.88" width="106.76" height="27.66" rx="12" style="fill: none;stroke: #1d1d1b;stroke-miterlimit: 10"/>
      <rect x="234.02" y="464.85" width="106.76" height="27.66" rx="12" style="fill: none;stroke: #1d1d1b;stroke-miterlimit: 10"/>
      <rect x="501.88" y="267.88" width="106.76" height="27.66" rx="12" style="fill: none;stroke: #1d1d1b;stroke-miterlimit: 10"/>
      <rect x="381.5" y="267.88" width="106.76" height="27.66" rx="12" style="fill: none;stroke: #1d1d1b;stroke-miterlimit: 10"/>
      <rect x="1.41" y="318.59" width="106.76" height="27.66" rx="12" style="fill: none;stroke: #1d1d1b;stroke-miterlimit: 10"/>
      <rect x="118.17" y="318.59" width="106.76" height="27.66" rx="12" style="fill: none;stroke: #1d1d1b;stroke-miterlimit: 10"/>
      <rect x="500.07" y="318.59" width="106.76" height="27.66" rx="12" style="fill: none;stroke: #1d1d1b;stroke-miterlimit: 10"/>
      <rect x="379.68" y="318.59" width="106.76" height="27.66" rx="12" style="fill: none;stroke: #1d1d1b;stroke-miterlimit: 10"/>
      <rect x="142.11" y="359.93" width="83.73" height="27.66" rx="12" style="fill: none;stroke: #1d1d1b;stroke-miterlimit: 10"/>
      <rect x="500.97" y="369.29" width="106.76" height="27.66" rx="12" style="fill: none;stroke: #1d1d1b;stroke-miterlimit: 10"/>
      <rect x="380.59" y="369.29" width="106.76" height="27.66" rx="12" style="fill: none;stroke: #1d1d1b;stroke-miterlimit: 10"/>
      <rect x="141.84" y="433.83" width="83.09" height="27.66" rx="12" style="fill: none;stroke: #1d1d1b;stroke-miterlimit: 10"/>
      <rect x="142.11" y="396.48" width="81.92" height="27.66" rx="12" style="fill: none;stroke: #1d1d1b;stroke-miterlimit: 10"/>
      <rect x="234.02" y="420" width="106.76" height="27.66" rx="12" style="fill: none;stroke: #1d1d1b;stroke-miterlimit: 10"/>
      <text transform="translate(271.01 16.67)" style="font-size: 14px;fill: #1d1d1b;font-family: Roboto-Bold, Roboto;font-weight: 700">Home</text>
      <text transform="translate(27.32 84.57)" style="font-size: 14px;fill: #1d1d1b;font-family: Roboto-Bold, Roboto;font-weight: 700">Catalog</text>
      <text transform="translate(157.62 81.21)" style="font-size: 14px;fill: #1d1d1b;font-family: Roboto-Bold, Roboto;font-weight: 700">Info</text>
      <text transform="translate(252.82 81.21)" style="font-size: 14px;fill: #1d1d1b;font-family: Roboto-Bold, Roboto;font-weight: 700">Resou<tspan x="39.45" y="0" style="letter-spacing: -0.00927734375em">r</tspan><tspan x="44.43" y="0">ces</tspan></text>
      <text transform="translate(405.03 81.21)" style="font-size: 14px;fill: #1d1d1b;font-family: Roboto-Bold, Roboto;font-weight: 700">Se<tspan x="16.17" y="0" style="letter-spacing: 0.0087890625em">r</tspan><tspan x="21.4" y="0">vices</tspan></text>
      <text transform="translate(504.89 81.21)" style="font-size: 14px;fill: #1d1d1b;font-family: Roboto-Bold, Roboto;font-weight: 700"><tspan style="letter-spacing: -0.0126953125em">E</tspan><tspan x="7.7" y="0" style="letter-spacing: -0.00634765625em">v</tspan><tspan x="14.68" y="0">ents&amp;Classes</tspan></text>
      <text transform="translate(33.56 133.92)" style="font-size: 14px;fill: #1d1d1b;font-family: Roboto-Regular, Roboto"><tspan xml:space="preserve"> Books</tspan></text>
      <text transform="translate(134.01 133.09)" style="font-size: 14px;fill: #1d1d1b;font-family: Roboto-Regular, Roboto">Lib<tspan x="18.79" y="0" style="letter-spacing: -0.01953125em">r</tspan><tspan x="23.25" y="0">a</tspan><tspan x="30.86" y="0" style="letter-spacing: 0.0087890625em">r</tspan><tspan x="35.72" y="0">y ca</tspan><tspan x="60.76" y="0" style="letter-spacing: -0.00927734375em">r</tspan><tspan x="65.37" y="0">d</tspan></text>
      <text transform="translate(237.59 133.09)" style="font-size: 14px;fill: #1d1d1b;font-family: Roboto-Regular, Roboto">Online-Database</text>
      <text transform="translate(408.67 128.4)" style="font-size: 14px;fill: #1d1d1b;font-family: Roboto-Regular, Roboto">Meeting <tspan x="3.26" y="11">Rooms</tspan></text>
      <text transform="translate(522.14 127.4)" style="font-size: 14px;fill: #1d1d1b;font-family: Roboto-Regular, Roboto">All <tspan x="19.39" y="0" style="letter-spacing: -0.0126953125em">E</tspan><tspan x="27.17" y="0" style="letter-spacing: -0.00634765625em">v</tspan><tspan x="33.87" y="0">ents </tspan><tspan x="-2.08" y="12">(Calender)</tspan></text>
      <text transform="translate(20.76 183.05)" style="font-size: 14px;fill: #1d1d1b;font-family: Roboto-Regular, Roboto">M<tspan x="12.22" y="0" style="letter-spacing: -0.00732421875em">o</tspan><tspan x="20.1" y="0">vies/</tspan><tspan x="50.69" y="0" style="letter-spacing: 0.0078125em">T</tspan><tspan x="59.15" y="0">V</tspan></text>
      <text transform="translate(131.25 182.21)" style="font-size: 14px;fill: #1d1d1b;font-family: Roboto-Regular, Roboto"><tspan style="letter-spacing: -0.01025390625em">F</tspan><tspan x="7.59" y="0">ees &amp; Fines</tspan></text>
      <text transform="translate(259.09 182.21)" style="font-size: 14px;fill: #1d1d1b;font-family: Roboto-Regular, Roboto"><tspan style="letter-spacing: -0.00927734375em">E</tspan><tspan x="7.83" y="0">ducation</tspan></text>
      <text transform="translate(408.95 182.21)" style="font-size: 14px;fill: #1d1d1b;font-family: Roboto-Regular, Roboto">Printing</text>
      <text transform="translate(521.51 183.05)" style="font-size: 14px;fill: #1d1d1b;font-family: Roboto-Regular, Roboto"><tspan style="letter-spacing: -0.00927734375em">E</tspan><tspan x="7.83" y="0">ducation</tspan></text>
      <text transform="translate(35.82 233.76)" style="font-size: 14px;fill: #1d1d1b;font-family: Roboto-Regular, Roboto">music</text>
      <text transform="translate(136.5 230.17)" style="font-size: 13px;fill: #1d1d1b;font-family: Roboto-Regular, Roboto">Locations &amp; <tspan x="16.66" y="12">Hours</tspan></text>
      <text transform="translate(401.01 232.92)" style="font-size: 14px;fill: #1d1d1b;font-family: Roboto-Regular, Roboto">Lab Hours</text>
      <text transform="translate(508.52 233.76)" style="font-size: 14px;fill: #1d1d1b;font-family: Roboto-Regular, Roboto">Ente<tspan x="27.67" y="0" style="letter-spacing: 0.0244140625em">r</tspan><tspan x="32.75" y="0">tainmnet</tspan></text>
      <text transform="translate(19.32 279.8)" style="font-size: 13px;fill: #1d1d1b;font-family: Roboto-Regular, Roboto">Ebook &amp;<tspan x="1" y="11" style="letter-spacing: -0.00537109375em">A</tspan><tspan x="9.41" y="11">udiobooks</tspan></text>
      <text transform="translate(136.3 283.63)" style="font-size: 14px;fill: #1d1d1b;font-family: Roboto-Regular, Roboto">Contact Us</text>
      <text transform="translate(254.94 476.63)" style="font-size: 14px;fill: #1d1d1b;font-family: Roboto-Regular, Roboto">His<tspan x="20.6" y="0" style="letter-spacing: -0.009765625em">t</tspan><tspan x="25.03" y="0">orical </tspan><tspan x="2.99" y="11">A</tspan><tspan x="12.13" y="11" style="letter-spacing: -0.00927734375em">r</tspan><tspan x="16.73" y="11">chi</tspan><tspan x="35.17" y="11" style="letter-spacing: -0.00634765625em">v</tspan><tspan x="41.86" y="11">es</tspan></text>
      <text transform="translate(402.23 283.63)" style="font-size: 14px;fill: #1d1d1b;font-family: Roboto-Regular, Roboto">Computer</text>
      <text transform="translate(520.88 284.47)" style="font-size: 14px;fill: #1d1d1b;font-family: Roboto-Regular, Roboto">Book Club </text>
      <text transform="translate(22.9 335.18)" style="font-size: 14px;fill: #1d1d1b;font-family: Roboto-Regular, Roboto">St<tspan x="12.88" y="0" style="letter-spacing: -0.00927734375em">r</tspan><tspan x="17.49" y="0">eaming</tspan></text>
      <text transform="translate(143.82 334.34)" style="font-size: 14px;fill: #1d1d1b;font-family: Roboto-Regular, Roboto">Get Help</text>
      <text transform="translate(390.95 334.34)" style="font-size: 14px;fill: #1d1d1b;font-family: Roboto-Regular, Roboto">Book Deli<tspan x="58.64" y="0" style="letter-spacing: -0.00634765625em">v</tspan><tspan x="65.33" y="0">e</tspan><tspan x="72.75" y="0" style="letter-spacing: 0.0087890625em">r</tspan><tspan x="77.61" y="0">y</tspan></text>
      <text transform="translate(526.76 335.18)" style="font-size: 14px;fill: #1d1d1b;font-family: Roboto-Regular, Roboto"><tspan style="letter-spacing: -0.04638671875em">T</tspan><tspan x="7.7" y="0">u</tspan><tspan x="15.42" y="0" style="letter-spacing: -0.009765625em">t</tspan><tspan x="19.86" y="0">oring</tspan></text>
      <text/>      <text transform="translate(157.39 377.36)" style="font-size: 14px;fill: #1d1d1b;font-family: Roboto-Regular, Roboto">Ca<tspan x="16.73" y="0" style="letter-spacing: -0.00927734375em">r</tspan><tspan x="21.33" y="0">eers</tspan></text>
      <text transform="translate(399.7 381.79)" style="font-size: 14px;fill: #1d1d1b;font-family: Roboto-Regular, Roboto"><tspan style="letter-spacing: -0.00927734375em">E</tspan><tspan x="7.83" y="0">quipment </tspan><tspan x="4.75" y="12" style="letter-spacing: -0.0244140625em">A</tspan><tspan x="13.55" y="12" style="letter-spacing: -0.00732421875em">v</tspan><tspan x="20.22" y="12">ai</tspan><tspan x="31.24" y="12" style="letter-spacing: -0.01953125em">r</tspan><tspan x="35.7" y="12">able</tspan></text>
      <text transform="translate(517.54 386.72)" style="font-size: 14px;fill: #1d1d1b;font-family: Roboto-Regular, Roboto"><tspan style="letter-spacing: -0.01513671875em">W</tspan><tspan x="12.21" y="0">orkshops</tspan></text>
      <text transform="translate(165.91 454.09)" style="font-size: 14px;fill: #1d1d1b;font-family: Roboto-Regular, Roboto"><tspan style="letter-spacing: -0.0830078125em">F</tspan><tspan x="6.58" y="0" style="letter-spacing: -0.00537109375em">A</tspan><tspan x="15.63" y="0">Q</tspan></text>
      <text transform="translate(149.97 415.92)" style="font-size: 14px;fill: #1d1d1b;font-family: Roboto-Regular, Roboto"><tspan style="letter-spacing: -0.0224609375em">V</tspan><tspan x="8.59" y="0">oluntieer</tspan></text>
      <text transform="translate(261.14 436.6)" style="font-size: 14px;fill: #1d1d1b;font-family: Roboto-Regular, Roboto">Genelogy</text>
      <text/>      <text/>      <line x1="48.97" y1="143.41" x2="48.97" y2="166.46" style="fill: none;stroke: #1d1d1b;stroke-miterlimit: 10"/>
      <line x1="167.42" y1="194.54" x2="167.42" y2="217.59" style="fill: none;stroke: #1d1d1b;stroke-miterlimit: 10"/>
      <line x1="167.42" y1="244.83" x2="167.42" y2="267.88" style="fill: none;stroke: #1d1d1b;stroke-miterlimit: 10"/>
      <line x1="286.06" y1="143.78" x2="286.06" y2="166.83" style="fill: none;stroke: #1d1d1b;stroke-miterlimit: 10"/>
      <line x1="433.97" y1="193.7" x2="433.97" y2="216.75" style="fill: none;stroke: #1d1d1b;stroke-miterlimit: 10"/>
      <line x1="433.97" y1="143.78" x2="433.97" y2="166.83" style="fill: none;stroke: #1d1d1b;stroke-miterlimit: 10"/>
      <line x1="433.97" y1="93.28" x2="433.97" y2="116.33" style="fill: none;stroke: #1d1d1b;stroke-miterlimit: 10"/>
      <line x1="552.26" y1="143.45" x2="552.26" y2="166.5" style="fill: none;stroke: #1d1d1b;stroke-miterlimit: 10"/>
      <line x1="552.26" y1="194.54" x2="552.26" y2="217.59" style="fill: none;stroke: #1d1d1b;stroke-miterlimit: 10"/>
      <line x1="552.26" y1="246.5" x2="552.26" y2="269.54" style="fill: none;stroke: #1d1d1b;stroke-miterlimit: 10"/>
      <line x1="552.26" y1="296.58" x2="552.26" y2="319.63" style="fill: none;stroke: #1d1d1b;stroke-miterlimit: 10"/>
      <line x1="552.26" y1="346.71" x2="552.26" y2="369.76" style="fill: none;stroke: #1d1d1b;stroke-miterlimit: 10"/>
      <line x1="433.97" y1="244.83" x2="433.97" y2="267.88" style="fill: none;stroke: #1d1d1b;stroke-miterlimit: 10"/>
      <line x1="434.88" y1="295.12" x2="434.88" y2="318.17" style="fill: none;stroke: #1d1d1b;stroke-miterlimit: 10"/>
      <line x1="286.06" y1="92.7" x2="286.06" y2="115.75" style="fill: none;stroke: #1d1d1b;stroke-miterlimit: 10"/>
      <line x1="284.68" y1="28.16" x2="284.68" y2="65.04" style="fill: none;stroke: #1d1d1b;stroke-miterlimit: 10"/>
      <line x1="167.42" y1="295.54" x2="167.42" y2="318.59" style="fill: none;stroke: #1d1d1b;stroke-miterlimit: 10"/>
      <line x1="167.42" y1="144.15" x2="167.42" y2="167.2" style="fill: none;stroke: #1d1d1b;stroke-miterlimit: 10"/>
      <line x1="167.42" y1="92.7" x2="167.42" y2="115.75" style="fill: none;stroke: #1d1d1b;stroke-miterlimit: 10"/>
      <line x1="167.42" y1="41.99" x2="167.42" y2="65.04" style="fill: none;stroke: #1d1d1b;stroke-miterlimit: 10"/>
      <line x1="48.97" y1="244.83" x2="48.97" y2="267.88" style="fill: none;stroke: #1d1d1b;stroke-miterlimit: 10"/>
      <line x1="48.97" y1="295.54" x2="48.97" y2="318.59" style="fill: none;stroke: #1d1d1b;stroke-miterlimit: 10"/>
      <line x1="48.97" y1="194.54" x2="48.97" y2="217.59" style="fill: none;stroke: #1d1d1b;stroke-miterlimit: 10"/>
      <line x1="48.97" y1="92.7" x2="48.97" y2="115.75" style="fill: none;stroke: #1d1d1b;stroke-miterlimit: 10"/>
      <line x1="48.97" y1="41.99" x2="48.97" y2="65.04" style="fill: none;stroke: #1d1d1b;stroke-miterlimit: 10"/>
      <line x1="130.37" y1="371.98" x2="142.11" y2="371.93" style="fill: none;stroke: #1d1d1b;stroke-miterlimit: 10"/>
      <line x1="130.69" y1="410.31" x2="142.11" y2="410.31" style="fill: none;stroke: #1d1d1b;stroke-miterlimit: 10"/>
      <line x1="129.56" y1="447.66" x2="140.68" y2="447.66" style="fill: none;stroke: #1d1d1b;stroke-miterlimit: 10"/>
      <line x1="130.17" y1="346.24" x2="130.17" y2="447.66" style="fill: none;stroke: #1d1d1b;stroke-miterlimit: 10"/>
      <rect x="282.91" y="207.25" width="83.73" height="27.66" rx="12" style="fill: none;stroke: #1d1d1b;stroke-miterlimit: 10"/>
      <rect x="282.64" y="281.15" width="83.09" height="27.66" rx="12" style="fill: none;stroke: #1d1d1b;stroke-miterlimit: 10"/>
      <rect x="282.91" y="243.79" width="81.92" height="27.66" rx="12" style="fill: none;stroke: #1d1d1b;stroke-miterlimit: 10"/>
      <text transform="translate(286.41 224.67)" style="font-size: 14px;fill: #1d1d1b;font-family: Roboto-Regular, Roboto"><tspan style="letter-spacing: -0.01025390625em">F</tspan><tspan x="7.59" y="0">or </tspan><tspan x="23.78" y="0" style="letter-spacing: -0.00537109375em">P</tspan><tspan x="32.54" y="0">a</tspan><tspan x="40.15" y="0" style="letter-spacing: -0.00927734375em">r</tspan><tspan x="44.76" y="0">ents</tspan></text>
      <text transform="translate(301.36 301.4)" style="font-size: 14px;fill: #1d1d1b;font-family: Roboto-Regular, Roboto"><tspan style="letter-spacing: -0.03173828125em">Y</tspan><tspan x="7.96" y="0">outh</tspan></text>
      <text transform="translate(287.34 262.48)" style="font-size: 13px;fill: #1d1d1b;font-family: Roboto-Regular, Roboto"><tspan style="letter-spacing: -0.01025390625em">F</tspan><tspan x="7.05" y="0">or</tspan><tspan x="18.87" y="0" style="letter-spacing: -0.01953125em"> </tspan><tspan x="21.83" y="0" style="letter-spacing: -0.04833984375em">T</tspan><tspan x="28.96" y="0">eachers</tspan></text>
      <text/>      <text/>      <line x1="271.17" y1="219.29" x2="282.91" y2="219.25" style="fill: none;stroke: #1d1d1b;stroke-miterlimit: 10"/>
      <text/>      <line x1="270.36" y1="294.98" x2="281.48" y2="294.98" style="fill: none;stroke: #1d1d1b;stroke-miterlimit: 10"/>
      <rect x="282.64" y="355.52" width="83.09" height="27.66" rx="12" style="fill: none;stroke: #1d1d1b;stroke-miterlimit: 10"/>
      <rect x="282.91" y="318.17" width="81.92" height="27.66" rx="12" style="fill: none;stroke: #1d1d1b;stroke-miterlimit: 10"/>
      <text transform="translate(289.15 368.66)" style="font-size: 14px;fill: #1d1d1b;font-family: Roboto-Regular, Roboto">Online high<tspan x="13.9" y="12">school</tspan></text>
      <text transform="translate(296.48 337.61)" style="font-size: 14px;fill: #1d1d1b;font-family: Roboto-Regular, Roboto"><tspan style="letter-spacing: -0.04638671875em">T</tspan><tspan x="7.7" y="0">u</tspan><tspan x="15.42" y="0" style="letter-spacing: -0.009765625em">t</tspan><tspan x="19.86" y="0">oring</tspan></text>
      <text/>      <line x1="271.49" y1="332" x2="282.91" y2="332" style="fill: none;stroke: #1d1d1b;stroke-miterlimit: 10"/>
      <line x1="270.36" y1="369.35" x2="281.48" y2="369.35" style="fill: none;stroke: #1d1d1b;stroke-miterlimit: 10"/>
      <line x1="270.97" y1="193.56" x2="270.36" y2="369.35" style="fill: none;stroke: #1d1d1b;stroke-miterlimit: 10"/>
      <line x1="251.54" y1="192.32" x2="251.54" y2="420.88" style="fill: none;stroke: #1d1d1b;stroke-miterlimit: 10"/>
      <line x1="284.68" y1="447.66" x2="284.68" y2="464.85" style="fill: none;stroke: #1d1d1b;stroke-miterlimit: 10"/>
      <rect x="263.45" y="506.2" width="83.73" height="27.66" rx="12" style="fill: none;stroke: #1d1d1b;stroke-miterlimit: 10"/>
      <rect x="263.45" y="542.74" width="81.92" height="27.66" rx="12" style="fill: none;stroke: #1d1d1b;stroke-miterlimit: 10"/>
      <text transform="translate(265.3 523.63)" style="font-size: 14px;fill: #1d1d1b;font-family: Roboto-Regular, Roboto">News <tspan x="38.6" y="0" style="letter-spacing: -0.00537109375em">P</tspan><tspan x="47.36" y="0">aper</tspan></text>
      <text transform="translate(280.71 562.18)" style="font-size: 14px;fill: #1d1d1b;font-family: Roboto-Regular, Roboto">Pho<tspan x="24.53" y="0" style="letter-spacing: -0.009765625em">t</tspan><tspan x="28.96" y="0">os</tspan></text>
      <line x1="251.71" y1="518.24" x2="263.45" y2="518.2" style="fill: none;stroke: #1d1d1b;stroke-miterlimit: 10"/>
      <polyline points="251.5 492.51 252.03 556.57 263.45 556.57" style="fill: none;stroke: #1d1d1b;stroke-miterlimit: 10"/>
      <line x1="434.88" y1="347.24" x2="434.88" y2="370.29" style="fill: none;stroke: #1d1d1b;stroke-miterlimit: 10"/>
      <rect x="627.82" y="170.29" width="83.73" height="27.66" rx="12" style="fill: none;stroke: #1d1d1b;stroke-miterlimit: 10"/>
      <rect x="627.55" y="244.19" width="83.09" height="27.66" rx="12" style="fill: none;stroke: #1d1d1b;stroke-miterlimit: 10"/>
      <rect x="627.82" y="206.84" width="81.92" height="27.66" rx="12" style="fill: none;stroke: #1d1d1b;stroke-miterlimit: 10"/>
      <text transform="translate(653.52 187.72)" style="font-size: 14px;fill: #1d1d1b;font-family: Roboto-Regular, Roboto">Kids</text>
      <text transform="translate(650.81 262.45)" style="font-size: 14px;fill: #1d1d1b;font-family: Roboto-Regular, Roboto">Adults</text>
      <text transform="translate(652.44 226.27)" style="font-size: 14px;fill: #1d1d1b;font-family: Roboto-Regular, Roboto"><tspan style="letter-spacing: -0.04833984375em">T</tspan><tspan x="7.68" y="0">eens</tspan></text>
      <text/>      <line x1="614.98" y1="220.67" x2="627.82" y2="220.67" style="fill: none;stroke: #1d1d1b;stroke-miterlimit: 10"/>
      <line x1="607.74" y1="182.12" x2="627.82" y2="182.29" style="fill: none;stroke: #1d1d1b;stroke-miterlimit: 10"/>
      <line x1="615.28" y1="258.02" x2="615.28" y2="182.2" style="fill: none;stroke: #1d1d1b;stroke-miterlimit: 10"/>
      <line x1="627.55" y1="258.02" x2="615.28" y2="258.02" style="fill: none;stroke: #1d1d1b;stroke-miterlimit: 10"/>
      <rect x="635.76" y="362.8" width="83.09" height="27.66" rx="12" style="fill: none;stroke: #1d1d1b;stroke-miterlimit: 10"/>
      <rect x="636.03" y="325.44" width="81.92" height="27.66" rx="12" style="fill: none;stroke: #1d1d1b;stroke-miterlimit: 10"/>
      <text transform="translate(652.48 383.05)" style="font-size: 14px;fill: #1d1d1b;font-family: Roboto-Regular, Roboto">Onsite</text>
      <text transform="translate(655.73 344.88)" style="font-size: 14px;fill: #1d1d1b;font-family: Roboto-Regular, Roboto">Online</text>
      <text/>      <line x1="624.61" y1="339.27" x2="636.03" y2="339.27" style="fill: none;stroke: #1d1d1b;stroke-miterlimit: 10"/>
      <line x1="623.48" y1="376.63" x2="634.61" y2="376.63" style="fill: none;stroke: #1d1d1b;stroke-miterlimit: 10"/>
      <line x1="624.61" y1="339.27" x2="624.09" y2="376.63" style="fill: none;stroke: #1d1d1b;stroke-miterlimit: 10"/>
      <line x1="552.26" y1="358.23" x2="624.35" y2="358.23" style="fill: none;stroke: #1d1d1b;stroke-miterlimit: 10"/>
      <line x1="434.88" y1="41.98" x2="434.88" y2="65.02" style="fill: none;stroke: #1d1d1b;stroke-miterlimit: 10"/>
      <line x1="553.45" y1="41.98" x2="553.45" y2="65.02" style="fill: none;stroke: #1d1d1b;stroke-miterlimit: 10"/>
      <line x1="552.26" y1="92.7" x2="552.26" y2="115.75" style="fill: none;stroke: #1d1d1b;stroke-miterlimit: 10"/>
      <line x1="48.97" y1="41.99" x2="553.45" y2="41.98" style="fill: none;stroke: #1d1d1b;stroke-miterlimit: 10"/>
    </g>
  </g>
</svg>
